<?xml version="1.0" encoding="UTF-8"?>
<svg id="zaclona" xmlns="http://www.w3.org/2000/svg" viewBox="0 0 1959.1 1111.11">
  <defs>
    <style>
      .cls-1 {
        stroke: #af7146;
        stroke-width: 7px;
      }

      .cls-1, .cls-2, .cls-3, .cls-4, .cls-5, .cls-6, .cls-7, .cls-8, .cls-9, .cls-10, .cls-11, .cls-12 {
        stroke-linecap: round;
        stroke-linejoin: round;
      }

      .cls-1, .cls-4, .cls-7, .cls-8, .cls-12 {
        fill: none;
      }

      .cls-2 {
        stroke: #6d6c6c;
      }

      .cls-2, .cls-3, .cls-4, .cls-5, .cls-6, .cls-7, .cls-9, .cls-10, .cls-11 {
        stroke-width: 25px;
      }

      .cls-2, .cls-3, .cls-5, .cls-6, .cls-13, .cls-9, .cls-10, .cls-11 {
        fill: #8c8c8c;
      }

      .cls-3 {
        stroke: #474747;
      }

      .cls-4 {
        stroke: #707070;
      }

      .cls-5 {
        stroke: #545454;
      }

      .cls-6 {
        stroke: #3a3a3a;
      }

      .cls-7 {
        stroke: #757575;
      }

      .cls-8 {
        stroke: #8c8c8c;
        stroke-width: 11px;
      }

      .cls-14 {
        fill: #563e31;
        stroke: #422e26;
      }

      .cls-14, .cls-15, .cls-16, .cls-17 {
        stroke-miterlimit: 10;
      }

      .cls-14, .cls-12 {
        stroke-width: 4px;
      }

      .cls-9 {
        stroke: #7f7f7f;
      }

      .cls-15 {
        fill: #9b643e;
        stroke: #4c2c15;
        stroke-width: 5px;
      }

      .cls-18 {
        fill: #999;
      }

      .cls-10 {
        stroke: #606060;
      }

      .cls-19 {
        fill: #a07050;
      }

      .cls-20 {
        fill: #7f7f7f;
      }

      .cls-11 {
        stroke: #6d6d6d;
      }

      .cls-16 {
        fill: #efd8c5;
        stroke: #f5661d;
      }

      .cls-16, .cls-17 {
        stroke-width: 2px;
      }

      .cls-17 {
        fill: #c64f1a;
        stroke: #c64f1a;
      }

      .cls-12 {
        stroke: #b7b7b7;
      }
    </style>
  </defs>
  <rect class="cls-18" x="357.59" y="570.82" width="1522.49" height="157.12"/>
  <rect class="cls-13" x="355.9" y="413.7" width="1522.49" height="157.12"/>
  <rect class="cls-18" x="357.59" y="256.61" width="1522.49" height="157.12"/>
  <rect class="cls-20" x="355.9" y="99.45" width="1522.49" height="157.12"/>
  <line class="cls-4" x1="494.91" y1="176.53" x2="1742.89" y2="176.57"/>
  <line class="cls-11" x1="494.91" y1="238.66" x2="1742.89" y2="238.66"/>
  <line class="cls-10" x1="494.91" y1="549.53" x2="1742.89" y2="549.53"/>
  <line class="cls-10" x1="494.91" y1="611.55" x2="1742.89" y2="611.55"/>
  <line class="cls-9" x1="494.91" y1="673.79" x2="1742.89" y2="673.79"/>
  <line class="cls-9" x1="494.91" y1="487.4" x2="1742.89" y2="487.4"/>
  <line class="cls-11" x1="494.91" y1="363.14" x2="1742.89" y2="363.14"/>
  <line class="cls-10" x1="494.91" y1="425.35" x2="1742.89" y2="425.35"/>
  <line class="cls-10" x1="494.91" y1="301.02" x2="1742.89" y2="301.02"/>
  <line class="cls-6" x1="1428.44" y1="238.66" x2="1648.89" y2="238.66"/>
  <line class="cls-6" x1="791.07" y1="549.53" x2="1292.02" y2="549.53"/>
  <line class="cls-3" x1="1408.7" y1="611.77" x2="1624.5" y2="611.77"/>
  <line class="cls-3" x1="708.85" y1="611.77" x2="776.98" y2="611.77"/>
  <line class="cls-6" x1="885.78" y1="673.9" x2="1698.26" y2="673.68"/>
  <line class="cls-3" x1="1037.28" y1="487.4" x2="1536.34" y2="487.4"/>
  <line class="cls-6" x1="1132.67" y1="363.14" x2="1603.05" y2="363.14"/>
  <line class="cls-3" x1="1572.07" y1="425.35" x2="1714.18" y2="425.35"/>
  <line class="cls-3" x1="1127.96" y1="301.02" x2="1687.52" y2="301.02"/>
  <line class="cls-3" x1="764.78" y1="238.66" x2="1428.44" y2="238.66"/>
  <line class="cls-11" x1="535.22" y1="549.53" x2="751.22" y2="549.53"/>
  <line class="cls-5" x1="815.72" y1="611.55" x2="1408.7" y2="611.55"/>
  <line class="cls-3" x1="1195.14" y1="673.68" x2="1566.92" y2="673.68"/>
  <line class="cls-5" x1="749.28" y1="487.4" x2="1037.28" y2="487.4"/>
  <line class="cls-5" x1="690.86" y1="363.14" x2="1091.59" y2="363.14"/>
  <line class="cls-5" x1="913.03" y1="425.35" x2="1572.07" y2="425.35"/>
  <line class="cls-3" x1="1021.5" y1="301.02" x2="1127.96" y2="301.02"/>
  <line class="cls-2" x1="453.36" y1="123.69" x2="453.62" y2="715.63"/>
  <line class="cls-6" x1="1250.07" y1="176.53" x2="1535.43" y2="176.53"/>
  <line class="cls-5" x1="688.43" y1="176.57" x2="1212.72" y2="176.57"/>
  <line class="cls-3" x1="453.23" y1="176.53" x2="453.49" y2="370.69"/>
  <line class="cls-6" x1="453.49" y1="413.7" x2="453.49" y2="709.55"/>
  <line class="cls-2" x1="1784.18" y1="125.08" x2="1784.44" y2="717.02"/>
  <line class="cls-3" x1="1784.31" y1="219.77" x2="1784.57" y2="493.75"/>
  <line class="cls-6" x1="1784.44" y1="530.64" x2="1784.44" y2="717.02"/>
  <line class="cls-3" x1="453.23" y1="140.77" x2="453.23" y2="140.77"/>
  <line class="cls-3" x1="1784.18" y1="125.08" x2="1784.18" y2="184.01"/>
  <g id="Vrstva_8" data-name="Vrstva 8">
    <rect class="cls-14" x="841.51" y="285.67" width="547.31" height="108.91" rx="8.45" ry="8.45"/>
    <rect class="cls-19" x="845.52" y="279.28" width="547.31" height="108.91" rx="8.45" ry="8.45"/>
    <rect class="cls-15" x="847.73" y="280.83" width="543.23" height="105.96" rx="7.81" ry="7.81"/>
    <path class="cls-1" d="M1379.54,382.1h-523.64"/>
    <path class="cls-1" d="M862.54,286.05h514.93c8.9,0,9.8,2.18,9.8,9.8"/>
    <rect class="cls-14" x="841.51" y="428.16" width="547.31" height="108.91" rx="8.45" ry="8.45"/>
    <rect class="cls-19" x="845.52" y="421.78" width="547.31" height="108.91" rx="8.45" ry="8.45"/>
    <rect class="cls-15" x="847.73" y="423.33" width="543.23" height="105.96" rx="7.79" ry="7.79"/>
    <path class="cls-1" d="M1379.54,523.67h-523.64"/>
    <path class="cls-1" d="M863.53,428.22h513.33c8.54,0,9.8,1.18,9.8,9.8"/>
    <line class="cls-7" x1="917.79" y1="199.02" x2="917.79" y2="235.62"/>
    <path class="cls-12" d="M907.66,235.87v-31.54s-.68-10.21,5.9-12.93"/>
    <line class="cls-7" x1="917.79" y1="111.13" x2="917.79" y2="147.73"/>
    <path class="cls-12" d="M907.66,147.98v-31.54s-.68-10.21,5.9-12.93"/>
    <line class="cls-7" x1="1319.25" y1="146.18" x2="1319.25" y2="109.58"/>
    <path class="cls-12" d="M1329.38,109.33v31.54s.68,10.21-5.9,12.93"/>
    <line class="cls-8" x1="917.79" y1="146.68" x2="917.79" y2="199.02"/>
    <line class="cls-8" x1="917.79" y1="235.62" x2="917.79" y2="287.95"/>
    <line class="cls-12" x1="915.67" y1="236.12" x2="915.67" y2="287.94"/>
    <line class="cls-8" x1="917.79" y1="431.04" x2="917.79" y2="378.7"/>
    <line class="cls-12" x1="915.67" y1="430.53" x2="915.67" y2="378.71"/>
    <line class="cls-8" x1="1321.01" y1="431.04" x2="1321.01" y2="378.7"/>
    <line class="cls-12" x1="1318.9" y1="430.53" x2="1318.9" y2="378.71"/>
    <line class="cls-7" x1="1319.95" y1="235.62" x2="1319.95" y2="199.02"/>
    <path class="cls-12" d="M1327.82,199.41v31.54s.68,10.21-5.9,12.93"/>
    <line class="cls-8" x1="1319.95" y1="287.95" x2="1319.95" y2="235.62"/>
    <line class="cls-8" x1="1319.95" y1="199.02" x2="1319.95" y2="146.68"/>
    <line class="cls-12" x1="1317.84" y1="198.51" x2="1317.84" y2="146.7"/>
    <g id="Vrstva_9" data-name="Vrstva 9">
      <g>
        <path class="cls-17" d="M991.7,358.29c0,.93-.29,2.88-1.01,4.53-4.31-1.44-5.97-1.01-7.12-1.01-6.54,0-10.71.65-24.3,5.39l-3.45-4.17c2.95-5.25,6.33-11.5,9.27-16.97l2.16-4.03c2.37-4.39,10.5-18.12,12.01-21.28-5.32-.07-10.5-.43-15.82-.43-2.08,0-4.6.58-5.75,1.01-.29-1.29-.43-2.95-.43-4.31,0-1.65.29-3.45,1.22-6.33l31.35,2.73c-.22,1.8-.29,5.39-.72,7.55l-1.73,3.09c-1.65,2.66-4.89,8.56-7.91,13.88l-4.39,7.76c-.79,1.37-1.65,3.31-2.95,5.68l-2.45,4.53h.07l2.08-.43c4.75-1.01,9.63-1.87,14.45-1.73,2.95,0,4.31.29,5.25.36.14,1.37.14,2.8.14,4.17Z"/>
        <path class="cls-17" d="M1027.36,362.68c-1.01,0-2.08-.07-3.09-.22l-3.95-13.88c-3.38.22-8.56.36-13.23.36-.72,4.46-2.37,12.58-3.02,17.47-.5,0-1.01.07-1.51.07-2.8,0-5.03-.43-7.05-1.22l.58-3.59c.43-2.73,1.8-9.13,2.3-13.01-.79,0-1.51-.07-3.74-.07h-1.94c-.07-.65-.14-1.51-.14-2.44,0-2.01.57-3.74,1.15-5.39,4.24.07,4.53.07,6.47.07,2.37-8.84,4.89-19.84,8.27-30.99,2.95-.5,5.97-.93,8.91-1.37,3.74,12.94,11.65,38.68,15.46,52.84-1.37.86-3.74,1.37-5.46,1.37ZM1013.27,323.06c-1.51,6.47-3.38,12.22-4.46,17.76,2.88-.07,6.83-.22,9.42-.36-1.44-5.25-3.52-12.29-4.96-17.4Z"/>
        <path class="cls-17" d="M1071.36,350.02c-.93,5.03-1.94,15.24-16.68,15.24-17.11,0-19.05-19.99-19.05-30.34s5.82-25.67,19.77-25.67c9.35,0,15.38,6.69,16.03,15.17l.36,4.6c-2.59,1.01-4.82,1.22-7.12,1.22-.86,0-1.73,0-2.66-.07.22-1.65.29-3.16.29-4.31,0-4.24-2.16-8.41-6.9-8.41-7.19,0-10.21,10.07-10.21,16.46s-.07,23.29,9.78,23.29c6.47,0,7.76-4.03,7.76-11.29l9.13,1.01c-.07,1.22-.43,1.8-.5,3.09ZM1053.03,306.45l-10.14-11.29,5.82-3.67,6.69,8.34,8.12-8.84,4.46,4.03-10.57,11.5-4.39-.07Z"/>
        <path class="cls-17" d="M1079.56,311.2l-3.74-3.16c2.37-2.44,11.65-10.5,15.53-14.74,1.73,1.08,5.75,4.39,6.33,5.18-4.1,3.38-15.6,10.64-18.12,12.73ZM1079.92,362.53c.43-7.33.29-15.96.65-22.79,0-6.83,0-18.05-1.37-26.03l10.5-.29-.29,8.48c.14,4.53.07,13.88.14,21.93l.07,17.69c0,.5,0,1.01-.07,1.44l-2.08-.07c-4.46-.29-3.09-.22-7.55-.36Z"/>
        <path class="cls-17" d="M1139.45,318.6c0,2.16-.14,4.75-.36,6.26-2.08-.22-4.53-.29-6.69-.36l-9.85-.14c-.22,3.16-.58,7.48-.58,15.39,0,3.81.5,8.77,1.15,18.84l.29,3.16c-1.22.86-3.95,1.08-8.05,1.08h-2.08l-.36-3.88c.5-11.79.86-24.88,1.01-34.73-4.17,0-8.84.65-15.89,1.08-.29-1.44-.36-3.67-.36-4.67,0-.57.29-3.31.58-4.39l2.73.14c.72.07,1.51.14,2.3.14l20.71-.5c4.6-.14,11.86-.29,12.58-.43l2.73-.14c.07.72.14,1.87.14,3.16Z"/>
        <path class="cls-17" d="M1191.43,368.64c-1.58.43-3.24.65-4.24.65-1.08,0-2.66-.22-4.67-.72v-3.52l.14-16.32c-3.02,0-6.11.07-9.13.07.14,4.96.29,10.35.36,14.95-2.23.5-3.67.72-4.6.72s-2.66-.14-4.31-.36l-.36-15.31h-4.89v-7.84h4.82l-.5-30.27c2.23-.5,3.67-.72,4.67-.72.86,0,1.65,0,4.24.5l.5,30.48c3.09,0,6.18-.07,9.27-.07.07-11.79.22-24.23.36-35.95,2.01-.58,3.24-.79,4.24-.79s2.37.22,4.67.65l-.36,36.09c2.45,0,5.18-.07,6.97-.07v7.69l-7.05.14c0,6.61-.07,13.73-.14,19.99Z"/>
        <path class="cls-17" d="M1219.84,364.83c-3.02-3.23-5.75-9.27-8.56-15.67-1.01,7.76-1.65,14.88-2.01,18.62l-8.48-1.8c.72-4.1,2.52-15.6,4.53-31.85,0-.14.07-.36,1.94-15.1-2.23.65-4.31,1.22-5.97,1.8-.14-1.65-.22-4.39-.22-6.18,0-1.51.07-2.59.07-2.59,3.59-.93,5.18-.93,7.19-1.29l.43-3.81c2.95-.14,6.04-.22,8.99-.29-.14,1.15-.43,2.3-.65,3.45h1.72c9.13,0,13.95,5.39,13.95,13.08,0,9.63-6.25,17.76-15.6,19.77,4.75,12.01,11.86,19.77,21.78,25.95l-4.24,7.55c-3.95-1.51-10.35-6.25-14.88-11.65ZM1217.89,317.81c-.65,0-1.22.14-2.01.14-.22,2.37-.65,5.46-1.08,8.7l-1.08,8.41c0,.29,0,.58-.07.86,6.4-1.22,9.49-5.25,10.07-11.43,0-4.24-2.16-6.69-5.82-6.69Z"/>
        <path class="cls-17" d="M1261.46,359.3l.07-.07c-2.23,1.51-4.24,2.44-6.04,2.66-.5.14-1.08.14-1.58.14-4.82,0-10.42-3.88-11.93-7.19v.07c-.93-2.16-1.8-15.89-2.44-27.82l-.43-7.98c2.01-.5,4.17-.79,6.4-.79,1.08,0,2.08.07,3.24.22l.36,3.6c.14,1.44.22,6.69.22,11,.22,13.16.36,17.25,1.15,18.76.58,1.22,2.95,2.16,3.67,2.16.43,0,1.58-.36,2.88-1.01l.5-.36c2.44-1.08,3.16-5.39,3.16-7.55,0-2.66-.79-22.5-.79-28.54,2.23-.5,3.59-.72,4.67-.72.79,0,1.65,0,4.24.58,0,.72.07,1.51.07,2.3,0,5.39.29,23.01.29,25.31,0,5.75-1.44,11.43-7.69,15.24Z"/>
      </g>
      <g>
        <path class="cls-16" d="M995.4,356.21c0,.93-.29,2.88-1.01,4.53-4.31-1.44-5.97-1.01-7.12-1.01-6.54,0-10.71.65-24.3,5.39l-3.45-4.17c2.95-5.25,6.33-11.5,9.27-16.97l2.16-4.03c2.37-4.39,10.5-18.12,12.01-21.28-5.32-.07-10.5-.43-15.82-.43-2.08,0-4.6.58-5.75,1.01-.29-1.29-.43-2.95-.43-4.31,0-1.65.29-3.45,1.22-6.33l31.35,2.73c-.22,1.8-.29,5.39-.72,7.55l-1.73,3.09c-1.65,2.66-4.89,8.56-7.91,13.88l-4.39,7.76c-.79,1.37-1.65,3.31-2.95,5.68l-2.45,4.53h.07l2.08-.43c4.75-1.01,9.63-1.87,14.45-1.73,2.95,0,4.31.29,5.25.36.14,1.37.14,2.8.14,4.17Z"/>
        <path class="cls-16" d="M1031.07,360.59c-1.01,0-2.08-.07-3.09-.22l-3.95-13.88c-3.38.22-8.56.36-13.23.36-.72,4.46-2.37,12.58-3.02,17.47-.5,0-1.01.07-1.51.07-2.8,0-5.03-.43-7.05-1.22l.58-3.59c.43-2.73,1.8-9.13,2.3-13.01-.79,0-1.51-.07-3.74-.07h-1.94c-.07-.65-.14-1.51-.14-2.44,0-2.01.57-3.74,1.15-5.39,4.24.07,4.53.07,6.47.07,2.37-8.84,4.89-19.84,8.27-30.99,2.95-.5,5.97-.93,8.91-1.37,3.74,12.94,11.65,38.68,15.46,52.84-1.37.86-3.74,1.37-5.46,1.37ZM1016.98,320.98c-1.51,6.47-3.38,12.22-4.46,17.76,2.88-.07,6.83-.22,9.42-.36-1.44-5.25-3.52-12.29-4.96-17.4Z"/>
        <path class="cls-16" d="M1075.07,347.94c-.93,5.03-1.94,15.24-16.68,15.24-17.11,0-19.05-19.99-19.05-30.34s5.82-25.67,19.77-25.67c9.35,0,15.38,6.69,16.03,15.17l.36,4.6c-2.59,1.01-4.82,1.22-7.12,1.22-.86,0-1.73,0-2.66-.07.22-1.65.29-3.16.29-4.31,0-4.24-2.16-8.41-6.9-8.41-7.19,0-10.21,10.07-10.21,16.46s-.07,23.29,9.78,23.29c6.47,0,7.76-4.03,7.76-11.29l9.13,1.01c-.07,1.22-.43,1.8-.5,3.09ZM1056.74,304.37l-10.14-11.29,5.82-3.67,6.69,8.34,8.12-8.84,4.46,4.03-10.57,11.5-4.39-.07Z"/>
        <path class="cls-16" d="M1083.27,309.11l-3.74-3.16c2.37-2.44,11.65-10.5,15.53-14.74,1.73,1.08,5.75,4.39,6.33,5.18-4.1,3.38-15.6,10.64-18.12,12.73ZM1083.63,360.45c.43-7.33.29-15.96.65-22.79,0-6.83,0-18.05-1.37-26.03l10.5-.29-.29,8.48c.14,4.53.07,13.88.14,21.93l.07,17.69c0,.5,0,1.01-.07,1.44l-2.08-.07c-4.46-.29-3.09-.22-7.55-.36Z"/>
        <path class="cls-16" d="M1143.16,316.52c0,2.16-.14,4.75-.36,6.26-2.08-.22-4.53-.29-6.69-.36l-9.85-.14c-.22,3.16-.58,7.48-.58,15.39,0,3.81.5,8.77,1.15,18.84l.29,3.16c-1.22.86-3.95,1.08-8.05,1.08h-2.08l-.36-3.88c.5-11.79.86-24.88,1.01-34.73-4.17,0-8.84.65-15.89,1.08-.29-1.44-.36-3.67-.36-4.67,0-.57.29-3.31.58-4.39l2.73.14c.72.07,1.51.14,2.3.14l20.71-.5c4.6-.14,11.86-.29,12.58-.43l2.73-.14c.07.72.14,1.87.14,3.16Z"/>
        <path class="cls-16" d="M1195.14,366.56c-1.58.43-3.24.65-4.24.65-1.08,0-2.66-.22-4.67-.72v-3.52l.14-16.32c-3.02,0-6.11.07-9.13.07.14,4.96.29,10.35.36,14.95-2.23.5-3.67.72-4.6.72s-2.66-.14-4.31-.36l-.36-15.31h-4.89v-7.84h4.82l-.5-30.27c2.23-.5,3.67-.72,4.67-.72.86,0,1.65,0,4.24.5l.5,30.48c3.09,0,6.18-.07,9.27-.07.07-11.79.22-24.23.36-35.95,2.01-.58,3.24-.79,4.24-.79s2.37.22,4.67.65l-.36,36.09c2.45,0,5.18-.07,6.97-.07v7.69l-7.05.14c0,6.61-.07,13.73-.14,19.99Z"/>
        <path class="cls-16" d="M1223.54,362.75c-3.02-3.23-5.75-9.27-8.56-15.67-1.01,7.76-1.65,14.88-2.01,18.62l-8.48-1.8c.72-4.1,2.52-15.6,4.53-31.85,0-.14.07-.36,1.94-15.1-2.23.65-4.31,1.22-5.97,1.8-.14-1.65-.22-4.39-.22-6.18,0-1.51.07-2.59.07-2.59,3.59-.93,5.18-.93,7.19-1.29l.43-3.81c2.95-.14,6.04-.22,8.99-.29-.14,1.15-.43,2.3-.65,3.45h1.72c9.13,0,13.95,5.39,13.95,13.08,0,9.63-6.25,17.76-15.6,19.77,4.75,12.01,11.86,19.77,21.78,25.95l-4.24,7.55c-3.95-1.51-10.35-6.25-14.88-11.65ZM1221.6,315.73c-.65,0-1.22.14-2.01.14-.22,2.37-.65,5.46-1.08,8.7l-1.08,8.41c0,.29,0,.58-.07.86,6.4-1.22,9.49-5.25,10.07-11.43,0-4.24-2.16-6.69-5.82-6.69Z"/>
        <path class="cls-16" d="M1265.17,357.21l.07-.07c-2.23,1.51-4.24,2.44-6.04,2.66-.5.14-1.08.14-1.58.14-4.82,0-10.42-3.88-11.93-7.19v.07c-.93-2.16-1.8-15.89-2.44-27.82l-.43-7.98c2.01-.5,4.17-.79,6.4-.79,1.08,0,2.08.07,3.24.22l.36,3.6c.14,1.44.22,6.69.22,11,.22,13.16.36,17.25,1.15,18.76.58,1.22,2.95,2.16,3.67,2.16.43,0,1.58-.36,2.88-1.01l.5-.36c2.44-1.08,3.16-5.39,3.16-7.55,0-2.66-.79-22.5-.79-28.54,2.23-.5,3.59-.72,4.67-.72.79,0,1.65,0,4.24.58,0,.72.07,1.51.07,2.3,0,5.39.29,23.01.29,25.31,0,5.75-1.44,11.43-7.69,15.24Z"/>
      </g>
      <g>
        <path class="cls-17" d="M938.55,499.9c.43-7.33.29-15.96.65-22.79,0-6.83,0-18.05-1.37-26.03l10.5-.29-.29,8.48c.14,4.53.07,13.88.14,21.93l.07,17.69c0,.5,0,1.01-.07,1.44l-2.08-.07c-4.46-.29-3.09-.22-7.55-.36Z"/>
        <path class="cls-17" d="M969.76,477.54c1.15,11.29,2.3,20.71,3.24,27.82-2.3.79-4.67,1.15-7.19,1.15-.58,0-1.15,0-1.72-.07-.22-1.22-.29-2.44-.5-3.59h.07c-1.44-10.28-3.24-27.9-5.54-51.19,2.16-1.44,4.31-2.95,6.4-4.46,9.92,21.21,12.44,26.1,16.97,33.58-.22-5.97-.22-11.79-.22-17.83s.07-12.51.29-18.41c1.8-.58,3.02-.79,4.1-.79s2.66.36,4.89.93c-.14,5.9-.29,12.65-.29,18.33,0,14.6.65,26.46,1.73,40.62l-5.39,1.15c-4.89-7.48-10.5-15.03-16.82-27.25Z"/>
        <path class="cls-17" d="M1028.21,456.33v1.01c-3.74.43-19.99,1.37-20.35,1.65.22,4.1.29,8.34.65,13.8,3.52-.22,10.28-.36,14.23-1.08,1.08,2.23,1.08,3.52,1.08,4.46,0,.86-.07,2.01-.22,3.52l-14.38.93c.43,7.05,1.01,14.81,1.51,21.57-4.1,1.73-4.24,1.29-5.68,1.29-.86,0-1.87-.07-3.23-.22l-1.29-21.86c-.65.14-4.03.36-4.75.43l-.43-7.48,4.46-.5c-.43-6.97-.79-13.23-1.15-20.85,3.45-.86,7.19-1.65,10.71-2.09l17.83-1.58c.72,2.73,1.01,4.53,1.01,6.97Z"/>
        <path class="cls-17" d="M1079.04,478.62c-2.37,16.68-11.86,27.54-25.02,27.54-17.11,0-22.29-17.04-22.29-29.76,0-13.44,6.11-22.43,18.12-27.03,2.16-.79,4.53-1.22,6.9-1.22,12.65,0,22.72,11.72,22.72,25.88.07,1.37-.22,3.02-.43,4.6ZM1058.12,456.55c-1.08,0-2.3.14-3.67.72l.07-.07c-8.2,3.16-13.09,9.85-13.09,19.34s2.73,21.43,13.66,21.43c6.54,0,11.93-6.97,13.95-19.7v.07c.14-1.65.29-3.16.29-4.46,0-10.28-5.18-17.33-11.22-17.33Z"/>
        <path class="cls-17" d="M1098.89,502.2c-3.02-3.23-5.75-9.27-8.56-15.67-1.01,7.76-1.65,14.88-2.01,18.62l-8.48-1.8c.72-4.1,2.52-15.6,4.53-31.85,0-.14.07-.36,1.94-15.1-2.23.65-4.31,1.22-5.97,1.8-.14-1.65-.22-4.39-.22-6.18,0-1.51.07-2.59.07-2.59,3.59-.93,5.18-.93,7.19-1.29l.43-3.81c2.95-.14,6.04-.22,8.99-.29-.14,1.15-.43,2.3-.65,3.45h1.72c9.13,0,13.95,5.39,13.95,13.08,0,9.63-6.25,17.76-15.6,19.77,4.75,12.01,11.86,19.77,21.78,25.95l-4.24,7.55c-3.95-1.51-10.35-6.25-14.88-11.65ZM1096.95,455.18c-.65,0-1.22.14-2.01.14-.22,2.37-.65,5.46-1.08,8.7l-1.08,8.41c0,.29,0,.58-.07.86,6.4-1.22,9.49-5.25,10.07-11.43,0-4.24-2.16-6.69-5.82-6.69Z"/>
        <path class="cls-17" d="M1164.75,502.13c-1.44,0-3.09-.29-4.96-.93v-3.45c0-.29.07-.65.07-1.01,0-13.59-2.23-26.96-3.16-34.37-4.03,7.69-8.41,19.41-11.43,26.17l-4.6-.22-11.07-19.2c-.5,10.64-.65,19.99-1.15,30.27-2.16.29-3.81.43-4.96.43-1.73,0-3.45-.22-5.54-1.01,0-1.15.07-2.3.07-3.45l3.38-43.57,5.97-2.73,14.88,22.79c3.09-6.97,9.42-18.84,13.44-25.24l8.12,2.73.36,3.31c.29,3.02,1.29,6.9,2.01,12.29,1.44,9.49,3.31,26.31,3.88,32.78l.22,3.38c-1.65.5-3.45,1.01-5.54,1.01Z"/>
        <path class="cls-17" d="M1206.45,500.05c-1.01,0-2.08-.07-3.09-.22l-3.95-13.88c-3.38.22-8.55.36-13.23.36-.72,4.46-2.37,12.58-3.02,17.47-.5,0-1.01.07-1.51.07-2.8,0-5.03-.43-7.05-1.22l.58-3.59c.43-2.73,1.8-9.13,2.3-13.01-.79,0-1.51-.07-3.74-.07h-1.94c-.07-.65-.14-1.51-.14-2.44,0-2.01.58-3.74,1.15-5.39,4.24.07,4.53.07,6.47.07,2.37-8.84,4.89-19.84,8.27-30.99,2.95-.5,5.97-.93,8.91-1.37,3.74,12.94,11.65,38.68,15.46,52.84-1.37.86-3.74,1.37-5.46,1.37ZM1192.36,460.43c-1.51,6.47-3.38,12.22-4.46,17.76,2.88-.07,6.83-.22,9.42-.36-1.44-5.25-3.52-12.29-4.96-17.4Z"/>
        <path class="cls-17" d="M1250.45,487.39c-.93,5.03-1.94,15.24-16.68,15.24-17.11,0-19.05-19.99-19.05-30.34s5.82-25.67,19.77-25.67c9.35,0,15.39,6.69,16.03,15.17l.36,4.6c-2.59,1.01-4.82,1.22-7.12,1.22-.86,0-1.73,0-2.66-.07.22-1.65.29-3.16.29-4.31,0-4.24-2.16-8.41-6.9-8.41-7.19,0-10.21,10.07-10.21,16.46s-.07,23.29,9.78,23.29c6.47,0,7.77-4.03,7.77-11.29l9.13,1.01c-.07,1.22-.43,1.8-.5,3.09Z"/>
        <path class="cls-17" d="M1258.65,503.21l-.5-20.85c-1.08,0-4.17.5-4.46.5,0-2.66-.07-5.32-.07-8.05.72,0,3.67-.29,4.39-.36-.14-6.69-.29-14.09-.36-20.42.36,0,.86.07,1.44.07,1.08,0,2.52-.07,3.74-.07.36,0,5.32-.14,20.85-1.15.65,1.87.58,3.16.65,4.1,0,.86,0,1.65-.43,3.74-7.62.65-8.55.58-17.11,1.15,0,3.81.07,7.76.14,11.58,4.6-.65,11.07-1.37,15.67-2.3.57,1.51.93,3.38.93,5.46,0,.79,0,1.58-.14,2.37l-3.74.65c-5.03.86-8.05,1.44-12.58,1.87l.29,9.92c5.1-1.58,11.14-2.95,17.4-3.95.58,1.87.79,4.31.79,6.33,0,.65-.07,1.29-.07,1.8-6.97,1.29-18.33,4.1-26.82,7.62Z"/>
      </g>
      <g>
        <path class="cls-16" d="M942.1,497.81c.43-7.33.29-15.96.65-22.79,0-6.83,0-18.05-1.37-26.03l10.5-.29-.29,8.48c.14,4.53.07,13.88.14,21.93l.07,17.69c0,.5,0,1.01-.07,1.44l-2.08-.07c-4.46-.29-3.09-.22-7.55-.36Z"/>
        <path class="cls-16" d="M973.3,475.45c1.15,11.29,2.3,20.71,3.24,27.82-2.3.79-4.67,1.15-7.19,1.15-.58,0-1.15,0-1.72-.07-.22-1.22-.29-2.44-.5-3.59h.07c-1.44-10.28-3.24-27.9-5.54-51.19,2.16-1.44,4.31-2.95,6.4-4.46,9.92,21.21,12.44,26.1,16.97,33.58-.22-5.97-.22-11.79-.22-17.83s.07-12.51.29-18.41c1.8-.58,3.02-.79,4.1-.79s2.66.36,4.89.93c-.14,5.9-.29,12.65-.29,18.33,0,14.6.65,26.46,1.73,40.62l-5.39,1.15c-4.89-7.48-10.5-15.03-16.82-27.25Z"/>
        <path class="cls-16" d="M1031.75,454.24v1.01c-3.74.43-19.99,1.37-20.35,1.65.22,4.1.29,8.34.65,13.8,3.52-.22,10.28-.36,14.23-1.08,1.08,2.23,1.08,3.52,1.08,4.46,0,.86-.07,2.01-.22,3.52l-14.38.93c.43,7.05,1.01,14.81,1.51,21.57-4.1,1.73-4.24,1.29-5.68,1.29-.86,0-1.87-.07-3.23-.22l-1.29-21.86c-.65.14-4.03.36-4.75.43l-.43-7.48,4.46-.5c-.43-6.97-.79-13.23-1.15-20.85,3.45-.86,7.19-1.65,10.71-2.09l17.83-1.58c.72,2.73,1.01,4.53,1.01,6.97Z"/>
        <path class="cls-16" d="M1082.59,476.53c-2.37,16.68-11.86,27.54-25.02,27.54-17.11,0-22.29-17.04-22.29-29.76,0-13.44,6.11-22.43,18.12-27.03,2.16-.79,4.53-1.22,6.9-1.22,12.65,0,22.72,11.72,22.72,25.88.07,1.37-.22,3.02-.43,4.6ZM1061.67,454.46c-1.08,0-2.3.14-3.67.72l.07-.07c-8.2,3.16-13.09,9.85-13.09,19.34s2.73,21.43,13.66,21.43c6.54,0,11.93-6.97,13.95-19.7v.07c.14-1.65.29-3.16.29-4.46,0-10.28-5.18-17.33-11.22-17.33Z"/>
        <path class="cls-16" d="M1102.43,500.11c-3.02-3.23-5.75-9.27-8.56-15.67-1.01,7.76-1.65,14.88-2.01,18.62l-8.48-1.8c.72-4.1,2.52-15.6,4.53-31.85,0-.14.07-.36,1.94-15.1-2.23.65-4.31,1.22-5.97,1.8-.14-1.65-.22-4.39-.22-6.18,0-1.51.07-2.59.07-2.59,3.59-.93,5.18-.93,7.19-1.29l.43-3.81c2.95-.14,6.04-.22,8.99-.29-.14,1.15-.43,2.3-.65,3.45h1.72c9.13,0,13.95,5.39,13.95,13.08,0,9.63-6.25,17.76-15.6,19.77,4.75,12.01,11.86,19.77,21.78,25.95l-4.24,7.55c-3.95-1.51-10.35-6.25-14.88-11.65ZM1100.49,453.09c-.65,0-1.22.14-2.01.14-.22,2.37-.65,5.46-1.08,8.7l-1.08,8.41c0,.29,0,.58-.07.86,6.4-1.22,9.49-5.25,10.07-11.43,0-4.24-2.16-6.69-5.82-6.69Z"/>
        <path class="cls-16" d="M1168.29,500.04c-1.44,0-3.09-.29-4.96-.93v-3.45c0-.29.07-.65.07-1.01,0-13.59-2.23-26.96-3.16-34.37-4.03,7.69-8.41,19.41-11.43,26.17l-4.6-.22-11.07-19.2c-.5,10.64-.65,19.99-1.15,30.27-2.16.29-3.81.43-4.96.43-1.73,0-3.45-.22-5.54-1.01,0-1.15.07-2.3.07-3.45l3.38-43.57,5.97-2.73,14.88,22.79c3.09-6.97,9.42-18.84,13.44-25.24l8.12,2.73.36,3.31c.29,3.02,1.29,6.9,2.01,12.29,1.44,9.49,3.31,26.31,3.88,32.78l.22,3.38c-1.65.5-3.45,1.01-5.54,1.01Z"/>
        <path class="cls-16" d="M1209.99,497.95c-1.01,0-2.08-.07-3.09-.22l-3.95-13.88c-3.38.22-8.55.36-13.23.36-.72,4.46-2.37,12.58-3.02,17.47-.5,0-1.01.07-1.51.07-2.8,0-5.03-.43-7.05-1.22l.58-3.59c.43-2.73,1.8-9.13,2.3-13.01-.79,0-1.51-.07-3.74-.07h-1.94c-.07-.65-.14-1.51-.14-2.44,0-2.01.58-3.74,1.15-5.39,4.24.07,4.53.07,6.47.07,2.37-8.84,4.89-19.84,8.27-30.99,2.95-.5,5.97-.93,8.91-1.37,3.74,12.94,11.65,38.68,15.46,52.84-1.37.86-3.74,1.37-5.46,1.37ZM1195.9,458.34c-1.51,6.47-3.38,12.22-4.46,17.76,2.88-.07,6.83-.22,9.42-.36-1.44-5.25-3.52-12.29-4.96-17.4Z"/>
        <path class="cls-16" d="M1253.99,485.3c-.93,5.03-1.94,15.24-16.68,15.24-17.11,0-19.05-19.99-19.05-30.34s5.82-25.67,19.77-25.67c9.35,0,15.39,6.69,16.03,15.17l.36,4.6c-2.59,1.01-4.82,1.22-7.12,1.22-.86,0-1.73,0-2.66-.07.22-1.65.29-3.16.29-4.31,0-4.24-2.16-8.41-6.9-8.41-7.19,0-10.21,10.07-10.21,16.46s-.07,23.29,9.78,23.29c6.47,0,7.77-4.03,7.77-11.29l9.13,1.01c-.07,1.22-.43,1.8-.5,3.09Z"/>
        <path class="cls-16" d="M1262.19,501.12l-.5-20.85c-1.08,0-4.17.5-4.46.5,0-2.66-.07-5.32-.07-8.05.72,0,3.67-.29,4.39-.36-.14-6.69-.29-14.09-.36-20.42.36,0,.86.07,1.44.07,1.08,0,2.52-.07,3.74-.07.36,0,5.32-.14,20.85-1.15.65,1.87.58,3.16.65,4.1,0,.86,0,1.65-.43,3.74-7.62.65-8.55.58-17.11,1.15,0,3.81.07,7.76.14,11.58,4.6-.65,11.07-1.37,15.67-2.3.57,1.51.93,3.38.93,5.46,0,.79,0,1.58-.14,2.37l-3.74.65c-5.03.86-8.05,1.44-12.58,1.87l.29,9.92c5.1-1.58,11.14-2.95,17.4-3.95.58,1.87.79,4.31.79,6.33,0,.65-.07,1.29-.07,1.8-6.97,1.29-18.33,4.1-26.82,7.62Z"/>
      </g>
    </g>
  </g>
</svg>