<?xml version="1.0" encoding="UTF-8"?>
<svg id="Vrstva_3" data-name="Vrstva 3" xmlns="http://www.w3.org/2000/svg" viewBox="0 0 1337.3 377.04">
  <defs>
    <style>
      .cls-1 {
        fill: #c6a87b;
      }

      .cls-2, .cls-3 {
        fill: none;
      }

      .cls-3 {
        stroke: #42210b;
        stroke-miterlimit: 10;
        stroke-width: 23px;
      }

      .cls-4 {
        fill: #dbba97;
      }

      .cls-5 {
        fill: #b59469;
      }

      .cls-6 {
        fill: #42210b;
      }

      .cls-7 {
        fill: #8c6239;
      }
    </style>
  </defs>
  <path class="cls-6" d="M176.39,189.39c-1.02,16.65,7.58,32.12,22.85,39.16,11.77,5.42,24.71,6.98,37.57,6.68,46.68-1.08,93.62-1.28,140.23,1.77,22.82,1.49,45.39,3.65,67.71,7.62,20.2,3.59,38.9,8.61,55.47,18.82s28.74,26.99,45.52,38.18c19.76,13.18,43.51,12.58,66.29,12.81,97.98.98,195.97,1.73,293.95,2.35,98.32.62,196.64,1.12,294.96,1.59,21.45.1,42.89.16,64.34.43,15.99.21,37.22.08,47.11-14.88,3.75-5.67,4.34-12.51,5.17-19.06s1.26-12.59,1.66-18.9c1-16.08,1.45-32.2,1.71-48.32.11-6.53.17-13.06.17-19.59,0-7.85-6.9-15.36-15-15s-15,6.59-15,15c-.02,28.44-.27,57.19-3.38,85.49-.4,3.63.63-3.55-.08.5-.16.9-.3,1.81-.49,2.71-.14.66-.53,1.53-.52,2.19.03,1.87,1.43-2.7.54-1.21s2.47-2.38.54-.75c4.61-3.9-2.39,1.13.23-.21,2.25-1.15-.67.18-1.05.3-.69.21-1.38.39-2.08.56-.99.24-5.46.94-1.67.46-2.02.26-4.06.42-6.1.53-18.59,1.01-37.49-.08-56.1-.17-94.65-.45-189.31-.92-283.96-1.49-94.99-.58-189.97-1.26-284.95-2.16-22.76-.21-45.9.72-68.59-1.18-7.77-.65-16.36-3.58-23.82-8.79-.84-.59-1.7-1.19-2.51-1.83,1.54,1.21-.47-.44-.63-.58-1.79-1.56-3.59-3.1-5.34-4.71-3.74-3.43-7.34-7.01-11.01-10.51-15.52-14.8-32.77-25.66-53.01-32.83s-40.66-10-61.36-12.7c-45.97-5.99-92.4-7.13-138.72-6.98-18.94.06-38.02,1.16-56.95.52-2.33-.08-4.64-.31-6.97-.5-3.17-.26,2.86.61.79.1-.6-.15-1.23-.2-1.85-.32-1.55-.29-3.09-.63-4.61-1.04-1.37-.37-2.69-.92-4.05-1.28s-1.41.22.98.45c-.37-.04-1.3-.58-1.68-.8-1.14-.66-2.37-1.59-3.55-2.12-1.65-.73,1.99,2.09.87.68-.53-.67-1.34-1.29-1.97-1.89-.44-.42-1.59-2.07-.29-.24,1.51,2.13-.21-.48-.38-.79-.31-.55-.57-1.14-.88-1.69.27.48.96,3.24.44.83-.32-1.47-.73-4.49-.52-1.21-.13-2.03-.17-3.99-.05-6.03.48-7.85-7.24-15.35-15-15-8.54.38-14.49,6.59-15,15h0Z"/>
  <path class="cls-6" d="M176.58,197.07c-.98,16.82,7.11,32.77,22.46,40.36,11.65,5.76,24.78,7.42,37.65,7.12,47.11-1.1,94.48-1.37,141.52,1.92,22.74,1.59,45.05,3.89,67.32,8.09,20.47,3.86,38.35,9,55.09,19.93,4.28,2.8,5.91,4.03,9.61,7.31s7.53,7.12,11.17,10.81c7.73,7.85,15.47,15.59,24.52,21.95,19.82,13.92,44.16,13.14,67.29,13.39,98.65,1.04,197.3,1.83,295.95,2.49,98.98.66,197.97,1.18,296.96,1.68,20.99.11,42,.47,62.99.46,16.5,0,38.2-1.74,45.45-19.36,2.3-5.59,2.76-11.78,3.42-17.73.77-6.96,1.21-13.96,1.59-20.94.88-16.24,1.31-32.5,1.55-48.76.1-6.53.16-13.06.16-19.59,0-7.85-6.9-15.36-15-15-8.13.36-15,6.59-15,15-.01,29.07-.17,58.47-3.1,87.41-.12,1.22-.28,2.44-.4,3.65-.24,2.45.66-3.84-.06.37-.17.98-.32,1.96-.53,2.92-.32,1.45-1.51,3.45.37.11-1.18,2.09.75-.68.93-.89-.33.4-.8.91-1.23,1.23,4.6-3.48-2.65.76-.05-.25,2.11-.83-2.52.64-3.3.81s-1.5.28-2.24.44c-3.78.8,3.22-.2-.75.09-17.81,1.31-35.95.22-53.79.13-95.65-.48-191.31-.98-286.96-1.58-95.65-.61-191.3-1.33-286.95-2.28-12-.12-24-.24-35.99-.37-11.18-.12-22.45.15-33.6-.88-2.94-.27-8.17-1.37-12.35-2.82-3.57-1.23-7.79-3.81-11.47-6.55,1.27.94-2.45-2.05-3.14-2.66-1.83-1.6-3.6-3.27-5.34-4.96-3.74-3.62-7.34-7.38-11.01-11.07-15.35-15.43-32.66-26.79-53.07-34.4-19.01-7.09-39.23-10.34-59.25-13.05-47-6.36-94.36-7.8-141.74-7.61-18.7.07-37.57,1.25-56.25.54-1.27-.05-2.54-.12-3.8-.23-1.33-.11-4.94.13-.45.05-2.62.05-5.68-.99-8.17-1.7-1.34-.38-2.65-.98-3.99-1.34-1.89-.5,3.18,1.86.6.22-.51-.32-1.12-.56-1.64-.85-.6-.34-2.91-1.33-3.11-1.97.32,1.04,2.26,2.15.56.31-.51-.55-1.06-1.13-1.62-1.63-2.15-1.92.92,2.09.34.47-.19-.54-.67-1.14-1-1.62-.62-.91-1.1-3.01.05.48-.22-.65-.46-1.28-.66-1.94-.44-1.47-.65-4.67-.49-1.43-.11-2.1-.16-4.15-.04-6.26.46-7.85-7.23-15.35-15-15-8.52.38-14.51,6.59-15,15h0Z"/>
  <path class="cls-3" d="M290.12,192.47c0,11.08-16.08,16.76-35.92,16.76s-35.92-5.02-35.92-16.76,16.08-16.76,35.92-16.76,35.92,6.44,35.92,16.76Z"/>
  <path class="cls-3" d="M290.12,201.38c0,11.08-16.08,16.76-35.92,16.76s-35.92-5.02-35.92-16.76,16.08-16.76,35.92-16.76,35.92,6.44,35.92,16.76Z"/>
  <g id="Vrstva_2" data-name="Vrstva 2">
    <g>
      <path class="cls-5" d="M1309.82,86.84c-6.88-10.5-38.68-9.58-53.18-9.51-217.97,1.04-435.94-1.53-653.9.7-13.44.14-27.25,3.98-39.72,9.73-16.23,7.49-28.18,23.39-42.49,34.92-23.54,18.98-52.86,25.7-81.42,29.97-65.98,9.85-132.79,8.99-199.33,8.13-14.17-.62-56.27,8.1-58.11,22.23,1.84,14.13,43.93,22.84,58.11,22.23,66.54-.87,133.34-1.72,199.33,8.13,28.56,4.26,57.88,10.98,81.42,29.97,14.31,11.54,26.25,27.43,42.49,34.92,12.47,5.76,26.28,5.98,39.72,6.12,217.96,2.23,435.93,3.27,653.9,4.31,14.5.07,46.3.99,53.18-9.51,7.09-10.81,6.11-70.36,6.11-96.16s.97-85.35-6.11-96.16ZM254.28,201.38c-20.99,0-38.01-5.51-38.01-18.38s17.02-18.38,38.01-18.38,38.01,5.27,38.01,18.38c0,12.15-17.02,18.38-38.01,18.38Z"/>
      <g>
        <path class="cls-2" d="M1314.14,84.32c-7.87-10.99-25.35-11.34-37.53-11.84-19.61-.79-39.34-.06-58.96,0-49.33.15-98.65.13-147.98.05-98.98-.15-197.97-.56-296.95-.42-49.33.07-98.65.27-147.98.7-11.87.1-23.9-.44-35.65,1.49-10.33,1.69-20.61,5.11-29.97,9.8-17.75,8.88-29.4,25.82-45.16,37.37-16.96,12.42-37.14,19-57.55,23.13-22.67,4.59-45.84,7-68.88,8.74-48.48,3.66-97.21,3.24-145.79,2.46-13.04-.21-26.26,2.23-38.64,6.27-8.87,2.89-26.43,9.05-26.43,20.93,0,11.89,17.55,18.04,26.43,20.93,12.39,4.04,25.59,6.46,38.64,6.27,48.26-.71,96.65-1.2,144.82,2.38,23.1,1.72,46.31,4.11,69.04,8.65,20.43,4.08,40.58,10.55,57.67,22.8,15.91,11.41,27.52,28.42,45.16,37.51,19.74,10.17,43.81,7.81,65.3,8.02,49.66.49,99.32.92,148.97,1.31,98.65.77,197.3,1.35,295.95,1.87,49.33.26,98.65.5,147.98.74,19.74.09,39.59.81,59.33.07,11.59-.43,30.67-.52,37.95-11.56,2.37-3.59,3.23-8.11,3.93-12.28,1.1-6.55,1.66-13.19,2.07-19.82,1-15.98,1.07-32.01,1.05-48.02-.02-28.76.74-57.65-1.09-86.36-.62-9.73-.43-22.57-5.75-31.2-3.37-5.47-12.02-.45-8.63,5.05,1.72,2.79,2.44,7.58,2.99,11.39.94,6.5,1.34,13.09,1.67,19.64.78,15.35.84,30.74.81,46.11-.05,27.97.7,56.06-1.09,83.99-.39,6.1-.84,12.25-1.98,18.26-.71,3.72-1.04,7.16-4.01,9.35-4.92,3.63-12.58,4.28-18.44,4.84-7.3.7-14.65.8-21.98.78-45.61-.16-91.21-.45-136.82-.68-95.65-.48-191.31-1-286.96-1.67-47.99-.34-95.98-.71-143.98-1.13-24-.21-47.99-.43-71.99-.67-20.77-.21-45.03,2.65-63.6-8.52-16.48-9.91-28.01-26.26-43.89-37.1-16.36-11.16-35.51-17.6-54.75-21.69-44.28-9.41-90.41-11.52-135.54-12.29-23.5-.4-47.01-.22-70.51.06-14.87.18-28.43.06-42.9-3.75-6.39-1.68-12.84-3.72-18.62-6.97-2.02-1.14-4.15-2.4-5.69-4.17-.4-.46-1.05-1.86-1.49-2.19.37.27-3.99-7.04-.13-.65,1.56,2.58-.65,1.32.13.75,1.28-.93,2.2-3.02,3.62-4.11,2.46-1.88,5.36-3.31,8.18-4.55,6.28-2.76,13.04-4.59,19.73-6.06,15.6-3.42,31.08-2.43,46.97-2.26,23.5.24,47.01.32,70.51-.25,23.47-.57,46.94-1.78,70.31-4.1,21.25-2.11,42.74-4.66,63.49-9.84,18.9-4.72,37.22-12.2,52.68-24.22,14.95-11.63,26.56-27.96,44.14-35.96,10-4.55,21-7.75,31.98-8.5,11.73-.8,23.64-.37,35.39-.46,24-.2,47.99-.34,71.99-.44,95.65-.41,191.3-.14,286.95.08,47.99.11,95.99.21,143.98.21,44.17,0,88.38-.76,132.54-.29,7.02.07,14.12.27,21.07,1.34,4.55.7,12.28,1.59,15.24,5.72,3.72,5.19,12.39.2,8.63-5.05Z"/>
        <path class="cls-2" d="M254.28,196.38c-8.4-.06-34.52-.5-32.97-14.41,1.38-12.41,24.42-12.34,32.97-12.34s31.65.06,32.97,12.36c1.45,13.51-24.83,14.33-32.97,14.4-6.43.05-6.45,10.05,0,10,13.26-.11,32.93-1.69,40.58-14.59,7.19-12.11-2.2-23.83-13.49-28.16-14.8-5.68-34.14-5.49-49.35-1.61-11.81,3.01-23.85,12.01-20.11,25.77,4.56,16.78,28.36,18.5,42.37,18.6,6.44.05,6.44-9.95,0-10Z"/>
      </g>
    </g>
  </g>
  <g id="Vrstva_4" data-name="Vrstva 4">
    <g>
      <path class="cls-7" d="M176.78,184.21c3,12.45,17.58,18.26,28.53,21.59,13.19,4.01,26.56,5.27,40.27,5.1,48.27-.62,96.64-1.08,144.81,2.73,22.87,1.81,45.91,4.24,68.38,9.01,20.1,4.28,39.96,11.08,56.48,23.64,15.61,11.87,27.32,28.86,45.75,36.85,20.41,8.85,43.95,6.99,65.67,7.21,98.65.97,197.3,1.71,295.95,2.32,98.65.61,197.3,1.1,295.96,1.57,19.21.09,38.51.75,57.72.14,11.37-.36,30.36-.33,37.4-11.33,2.34-3.66,3.22-8.31,3.96-12.53,1.19-6.83,1.82-13.77,2.29-20.68,1.09-15.92,1.28-31.9,1.2-47.85-.03-6.37-.12-12.74-.28-19.1s-10.16-6.45-10,0c.35,14.1.4,28.21.1,42.32s-.53,28.67-2.96,42.66c-.64,3.65-1.09,8.42-3.64,10.81-4.01,3.76-11.65,4.41-16.8,4.97-16.17,1.75-32.76.77-49,.69-95.65-.46-191.31-.92-286.96-1.49-95.65-.57-191.3-1.25-286.95-2.13-23.46-.22-47.1.34-70.53-.85-10.56-.53-21.48-2.02-31.07-6.73-8.59-4.23-15.65-10.76-22.49-17.34-14.41-13.87-28.85-25.65-47.54-33.32s-38.61-11.25-58.48-14.03c-46.05-6.44-92.57-7.97-139.02-7.95-11.75,0-23.51.1-35.26.23-8.74.1-17.58.67-26.32.17-12.51-.71-26.14-3.35-37.31-9.19-4.25-2.22-9.01-5.17-10.21-10.14-1.51-6.25-11.15-3.61-9.64,2.66h0Z"/>
      <path class="cls-7" d="M287.2,182.88c-.48,12.68-24.53,13.37-33.01,13.38s-32.54-.33-33.01-13.38c-.23-6.42-10.23-6.45-10,0,.74,20.49,27.44,23.38,43.01,23.38,15.26,0,42.24-3.27,43.01-23.38.25-6.44-9.76-6.43-10,0h0Z"/>
    </g>
  </g>
  <g id="Vrstva_5" data-name="Vrstva 5">
    <path class="cls-1" d="M595.93,105.29c62.19,0,124.39,0,186.58,0,6.43,0,6.45-10,0-10-62.19,0-124.39,0-186.58,0-6.43,0-6.45,10,0,10h0Z"/>
    <path class="cls-1" d="M1220.47,136.24h-323.61c-6.43,0-6.45,10,0,10h323.61c6.43,0,6.45-10,0-10h0Z"/>
    <path class="cls-1" d="M415.57,176.97h175.74c6.43,0,6.45-10,0-10h-175.74c-6.43,0-6.45,10,0,10h0Z"/>
    <path class="cls-1" d="M505.89,206.36c66.32,0,132.65,0,198.97,0,6.43,0,6.45-10,0-10-66.32,0-132.65,0-198.97,0-6.43,0-6.45,10,0,10h0Z"/>
    <path class="cls-1" d="M707.96,271.83c105.6,0,211.2,0,316.79,0,29.89,0,59.77,0,89.66,0,6.43,0,6.45-10,0-10-105.6,0-211.2,0-316.79,0-29.89,0-59.77,0-89.66,0-6.43,0-6.45,10,0,10h0Z"/>
    <path class="cls-1" d="M1286.28,261.16h-73.55c-6.43,0-6.45,10,0,10h73.55c6.43,0,6.45-10,0-10h0Z"/>
    <path class="cls-1" d="M571.7,244.44c67.92,0,135.83,0,203.75,0,19.31,0,38.62,0,57.93,0,6.43,0,6.45-10,0-10-67.92,0-135.83,0-203.75,0-19.31,0-38.62,0-57.93,0-6.43,0-6.45,10,0,10h0Z"/>
    <path class="cls-2" d="M1102.8,177.66c-96.57,0-193.13,0-289.7,0-27.3,0-54.61,0-81.91,0-6.43,0-6.45,10,0,10,96.57,0,193.13,0,289.7,0,27.3,0,54.61,0,81.91,0,6.43,0,6.45-10,0-10h0Z"/>
    <path class="cls-1" d="M1286.28,96.82c-56.26,0-112.52,0-168.77,0-6.43,0-6.45,10,0,10,56.26,0,112.52,0,168.77,0,6.43,0,6.45-10,0-10h0Z"/>
    <path class="cls-1" d="M1245.25,211.73c-67.1,0-134.19,0-201.29,0-6.43,0-6.45,10,0,10,67.1,0,134.19,0,201.29,0,6.43,0,6.45-10,0-10h0Z"/>
    <path class="cls-4" d="M343.31,193c25.29,0,50.58,0,75.87,0,6.43,0,6.45-10,0-10-25.29,0-50.58,0-75.87,0-6.43,0-6.45,10,0,10h0Z"/>
    <path class="cls-4" d="M635.96,153.59h185.03c6.43,0,6.45-10,0-10h-185.03c-6.43,0-6.45,10,0,10h0Z"/>
    <path class="cls-4" d="M1182.54,161.62c-62.97,0-125.94,0-188.9,0-6.43,0-6.45,10,0,10,62.97,0,125.94,0,188.9,0,6.43,0,6.45-10,0-10h0Z"/>
    <path class="cls-4" d="M796.99,219.38c53.94,0,107.87,0,161.81,0,12.87,0,12.89-20,0-20-53.94,0-107.87,0-161.81,0-12.87,0-12.89,20,0,20h0Z"/>
    <path class="cls-4" d="M1198.8,240.45h-149.42c-6.43,0-6.45,10,0,10h149.42c6.43,0,6.45-10,0-10h0Z"/>
    <path class="cls-4" d="M1021.51,92.82c-47.74,0-95.48,0-143.23,0-6.43,0-6.45,10,0,10,47.74,0,95.48,0,143.23,0,6.43,0,6.45-10,0-10h0Z"/>
    <path class="cls-4" d="M1288.25,131.22c0,33.4,0,66.8,0,100.21,0,6.43,10,6.45,10,0,0-33.4,0-66.8,0-100.21,0-6.43-10-6.45-10,0h0Z"/>
    <path class="cls-7" d="M514.75,222.94c14.45,12.47,28.9,24.94,43.35,37.41,4.85,4.19,11.95-2.86,7.07-7.07-14.45-12.47-28.9-24.94-43.35-37.41-4.85-4.19-11.95,2.86-7.07,7.07h0Z"/>
    <path class="cls-7" d="M610.38,97.6c38.71,0,77.42,0,116.13,0,12.87,0,12.89-20,0-20-38.71,0-77.42,0-116.13,0-12.87,0-12.89,20,0,20h0Z"/>
    <path class="cls-2" d="M1239.44,127.67h-222.45c-6.43,0-6.45,10,0,10h222.45c6.43,0,6.45-10,0-10h0Z"/>
    <path class="cls-2" d="M561.76,237.43c44.22,0,88.43,0,132.65,0,6.43,0,6.45-10,0-10-44.22,0-88.43,0-132.65,0-6.43,0-6.45,10,0,10h0Z"/>
    <path class="cls-7" d="M1211.18,260.5h-187.35c-12.87,0-12.89,20,0,20h187.35c12.87,0,12.89-20,0-20h0Z"/>
    <path class="cls-2" d="M549.89,169.73c69.33,0,138.67,0,208,0,6.43,0,6.45-10,0-10-69.33,0-138.67,0-208,0-6.43,0-6.45,10,0,10h0Z"/>
    <path class="cls-2" d="M806.93,150.29h114.06c12.87,0,12.89-20,0-20h-114.06c-12.87,0-12.89,20,0,20h0Z"/>
    <path class="cls-2" d="M863.7,140.78c30.28,0,60.56,0,90.84,0,6.43,0,6.45-10,0-10-30.28,0-60.56,0-90.84,0-6.43,0-6.45,10,0,10h0Z"/>
    <path class="cls-7" d="M299.57,172.29c40.09,0,80.17,0,120.26,0,6.43,0,6.45-10,0-10-40.09,0-80.17,0-120.26,0-6.43,0-6.45,10,0,10h0Z"/>
    <path class="cls-5" d="M352.73,197.07c46.28,0,92.56,0,138.84,0,6.43,0,6.45-10,0-10-46.28,0-92.56,0-138.84,0-6.43,0-6.45,10,0,10h0Z"/>
    <path class="cls-5" d="M922.38,99.5c-55.05,0-110.11,0-165.16,0-6.43,0-6.45,10,0,10,55.05,0,110.11,0,165.16,0,6.43,0,6.45-10,0-10h0Z"/>
    <path class="cls-7" d="M1287.02,158.05c0,27.61,0,55.22,0,82.84,0,12.87,20,12.89,20,0,0-27.61,0-55.22,0-82.84,0-12.87-20-12.89-20,0h0Z"/>
    <path class="cls-7" d="M909.25,87.67c77.7,0,155.4,0,233.09,0,21.91,0,43.83,0,65.74,0,6.43,0,6.45-10,0-10-77.7,0-155.4,0-233.09,0-21.91,0-43.83,0-65.74,0-6.43,0-6.45,10,0,10h0Z"/>
    <path class="cls-5" d="M603.44,279.18c63.48,0,126.97,0,190.45,0,6.43,0,6.45-10,0-10-63.48,0-126.97,0-190.45,0-6.43,0-6.45,10,0,10h0Z"/>
  </g>
</svg>