<?xml version="1.0" encoding="UTF-8"?>
<svg xmlns="http://www.w3.org/2000/svg" viewBox="0 0 942 707.52">
  <defs>
    <style>
      .cls-1 {
        fill: #c9beb5;
      }

      .cls-2 {
        fill: #f1e1d4;
      }

      .cls-3 {
        fill: #e6baa5;
      }

      .cls-4 {
        fill: #ceaa9d;
      }

      .cls-5 {
        fill: #c47363;
      }
    </style>
  </defs>
  <g id="Vrstva_6" data-name="Vrstva 6">
    <path class="cls-2" d="M853.84,87.1c6.18,1.31,6.91,7.84,11.73,8.8,4.57.91,7.96-4.16,15.84-11.14,13.72-12.16,17.86-9.55,21.7-15.84,7.93-12.97-2.96-35.06-12.9-46.92-3.87-4.62-19.7-24.68-36.36-21.7-6.61,1.18-8.72,5.15-26.39,21.7,0,0-9.2,8.61-21.7,19.36-26.63,22.88-48.03,41.28-76.83,48.68-5.25,1.35-9.51,2.02-12.32,5.87-9.91,13.59.76,47.01,18.77,53.37,1.76.62,9.21,3.25,15.84,0,3.78-1.86,5.78-4.89,6.45-5.87,11.6-16.84,52.22-37.05,87.39-54.55,2.03-1.01,5.18-2.53,8.8-1.76Z"/>
    <path class="cls-1" d="M748.23,87.52c-1,0,11.96-7.2,36.84-28.59,33-28.38,37.12-21,62.61-27.46,14.94-3.78,24.24-5.15,32.26,0,9.88,6.34,11.56,18.57,11.73,19.94,1.63,13.32-6.78,22.73-9.38,25.35-10.66,10.76-26.04,10.89-26.39,9.84-.3-.89,10.22-2.24,18.18-11.16,6.99-7.83,3.23-18.79-1.64-26.14-4.57-6.9-14.57-9.65-32.26-4.13-36.39,11.35-87.84,42.35-91.95,42.35Z"/>
    <path class="cls-1" d="M803.04,45.81c-15.59,9.25-29.39,21.22-45.14,30.23-2.13,1.22-4.3,2.38-6.5,3.47-1.13.56-2.28,1.1-3.43,1.62-.58.26-1.15.53-1.74.76.15-.06,1.24-.51.25-.11-.39.16-.79.32-1.18.47-1.49.59-2.72,1.3-3.56,2.74-.75,1.28-1.06,3.16-.6,4.59.91,2.8,4.22,5.38,7.32,4.16,8.9-3.51,17.18-8.15,25.14-13.43,7.62-5.06,14.94-10.55,22.45-15.77,4.25-2.95,8.56-5.8,13-8.44,2.68-1.59,3.89-5.43,2.14-8.15s-5.28-3.84-8.15-2.14h0Z"/>
  </g>
  <g id="Vrstva_2" data-name="Vrstva 2">
    <path class="cls-3" d="M761.19,177.07c-25.86,49.19-46.86,57.39-78,105-10.77,16.46-23.01,35.18-33,63-4.49,12.51-10.72,39.18-23,92-5.59,24.03-8.22,35.86-17,51-3.62,6.25-7.76,12.15-32,37-46.6,47.77-63.45,58.91-76,66-8.23,4.64-6.87,2.38-20,10-60.77,35.27-68.97,51.38-102,61-26.95,7.85-50.29,3.03-65,0-39.12-8.07-39.11-23.75-93-47-42.74-18.44-59.3-15.72-77-37-10.58-12.72-7.56-17.18-22-42-18.72-32.17-30.25-35.75-45-58-6.19-9.33-33.27-53.4-25-101,7.4-42.6,32.21-70.52,46-85,9.19-9.64,28.53-27.99,86-54,37.45-16.95,89.5-40.06,163-51,67.35-10.03,78.94,1.15,134-15,32.46-9.52,57.61-21.95,86-36,45.61-22.56,72.64-41.62,123-55,26.73-7.1,42.37-7.9,56,0,23.59,13.68,26.75,45.07,27,48,1.41,16.45-3.66,30.23-13,48Z"/>
  </g>
  <g id="Vrstva_3" data-name="Vrstva 3">
    <path class="cls-5" d="M52.47,382.87s-6.34,19.75,1.73,43.19c16.82,48.9,20.11,52.97,49.92,87.61,4.43,5.15,15.67,26.03,32.44,60.45,10.71,21.98,25.68,27.29,89.61,55.74,42.3,18.83,35.33,16.62,57.29,25.55,24.62,10.01,45.8,14.74,66.74,13.65,15.78-.82,15.3,1.89,44.77-12.23,26.43-12.66,69.96-48.86,77.33-54.58,2.6-2.02,7.57-6.81,13.55-11.23,6.33-4.68,9.47-7.62,11.03-8.9,15.1-12.39,42.04-39.8,49.32-77.06,4.33-22.19.52-38.88-5-63-4.93-21.54-11.43-49.97-34-78-5.1-6.33-27.09-27.72-60-46q-22.77-12.65-53.74-25.55c-17.39-7.25-31.49-9.65-50.26-14.45-14.9-3.8-36.44-6.24-39,0-1.25,3.04,2.31,7.45,8,13,19.43,18.96,38,26.23,56,36,26.82,14.56,40.23,21.83,44,33,6.73,19.93-12.84,32.72-6,61,2.7,11.18,5.78,9.26,12,27,6.88,19.63,11.95,34.08,6,49-6.14,15.41-21.58,25.19-35,27-5.57.75-13.31.47-14-2-.95-3.43,13.01-6.43,21-16,13.69-16.39,13.19-55.99-12-71-13.43-8-33.02-8.77-45,1-28.96,23.61-24.71,60.18,3,81,2.28,1.72,8.39,4.21,8,7-.44,3.17-8.82,4.87-13,5-17.36.55-39.71-23.36-45-50-5.14-25.9,10.07-33.08,16-80,3.4-26.86,5.09-40.3-1-54-16.98-38.19-75.97-44.76-105-48-35.46-3.95-64.62-7.2-88,12-29.89,24.55-29.26,68.48-29,87,.41,28.87,6.21,32.39,11.04,42.83,3.67,7.94,7.79,15.11,9,14.65,2.32-.88-7.37-9.67-5.04-40.49.48-6.32-1.53-22.33,9.66-42.18,4.39-7.78,21.42-20.95,21.42-20.95,0,0-15.13,17.46-17.81,29.68-8.77,40,9.64,84.97,18.73,111.45,17.4,50.71,25.77,54.75,22.1,57.77-2.88,2.37-27.69-28.89-45.47-49.48-58.15-67.35-56.35-116.48-56.35-116.48Z"/>
    <path class="cls-4" d="M135.54,266.42c-1.44-3.09,25.32-16.9,39.65-24.35,13.52-7.04,61.14-26.73,72.77-30.29,54.02-16.51,26.13-9.42,65.03-18.77,17.09-4.11,18.87-4.71,28.06-6.58,8.22-1.67,37.65-11.37,108.13-12.35,20.63-.29,19.91,1.49,28.9-1.19,24-7.16,39.08-12.79,57.1-21.29,37.74-17.81,37.38-19.38,75.49-38.29,36-17.87,55.49-25.22,76.07-31.01,10.92-3.07,16.83-5.23,26.56-6.18,12.26-1.2,19.68-2.83,32.81,4.45s13.82,10.86,13.82,10.86l4.05,6.49c2.26,3.78.8,8.85-3.11,10.88-12.58,6.54-37.68,19.6-42.7,22.29-40.01,21.38-124.55,57.15-113.63,233.32.77,12.48-61.57-103.74-102.97-118.45-38.96-13.85-60.37.44-84.48,9.62-8.22,3.13-109.61-31.45-148.93-26.49-74.31,9.37-132.65,37.35-132.65,37.35Z"/>
    <path class="cls-4" d="M509.43,239.18c.97.65,1.92,1.32,2.86,2.02.31.23,2.01,1.26.59.44.51.29.98.78,1.44,1.15,1.84,1.51,3.62,3.1,5.34,4.76,3.45,3.32,6.64,6.9,9.65,10.63.35.43.69.86,1.03,1.29.17.22.34.43.51.65.65.83-.09-.09-.17-.22.65,1.04,1.51,1.99,2.23,2.98,1.43,1.95,2.82,3.94,4.19,5.94,2.73,4.01,5.34,8.09,7.92,12.19,12.15,19.31,24.19,38.68,36.29,58.02,6.92,11.07,13.84,22.13,20.76,33.2,1.58,2.53,4.67,3.6,7.43,2.44s4.05-4.08,3.45-7.02c-.93-4.51-1.73-9.05-2.41-13.61-.08-.53-.16-1.06-.23-1.6-.03-.23-.06-.46-.1-.68-.16-1.11,0,.03.03.21-.17-1.14-.3-2.29-.43-3.43-.27-2.29-.51-4.58-.72-6.87-.82-9.1-1.15-18.25-.98-27.39s.84-18.27,2.01-27.33c.03-.23.06-.46.09-.69.15-1.16-.05.07-.03.21-.07-.45.16-1.16.22-1.6.16-1.14.33-2.28.51-3.42.36-2.28.75-4.55,1.17-6.81.84-4.53,1.81-9.04,2.9-13.51,2.11-8.64,4.67-17.17,7.7-25.54,1.4-3.87,3.03-7.64,4.49-11.48,0,0-.46,1.09-.2.48.11-.25.21-.5.32-.76.19-.44.38-.88.57-1.32.44-1,.88-2.01,1.33-3.01.82-1.81,1.66-3.61,2.52-5.4,7.06-14.7,15.56-28.7,25.32-41.76.57-.77,1.15-1.53,1.74-2.29.13-.17.68-.88.16-.21-.5.64-.06.07.04-.05.34-.43.67-.86,1.01-1.3,1.27-1.61,2.56-3.21,3.87-4.8,2.62-3.17,5.32-6.27,8.09-9.3,5.45-5.97,11.2-11.67,17.21-17.07,1.53-1.37,3.07-2.73,4.64-4.07,2.37-2.03,2.24-6.36,0-8.42-2.53-2.32-5.89-2.17-8.42,0-12.54,10.74-24,22.72-34.19,35.72s-19.63,27.49-27.29,42.56c-7.87,15.5-14.23,31.82-18.78,48.61-4.94,18.21-7.83,37.03-8.69,55.88-.86,18.87.45,37.82,3.75,56.42.4,2.27.84,4.53,1.3,6.79,3.63-1.53,7.25-3.06,10.88-4.59-12.43-19.88-24.86-39.75-37.29-59.63-6.11-9.77-12.21-19.55-18.33-29.31-5.41-8.64-10.95-17.19-17.21-25.25-6.88-8.86-14.76-16.83-24.08-23.12-2.59-1.75-6.71-.58-8.15,2.14-1.59,3.01-.63,6.28,2.14,8.15h0Z"/>
  </g>
  <g id="Vrstva_4" data-name="Vrstva 4">
    <path class="cls-1" d="M343.24,457.03c6.44-6.36,11-9.71,18.24-10.56,6.58-.77,10.58.27,15.48,4.27,9.64,7.86,19.61,18.71,3.42,45.51"/>
    <path class="cls-2" d="M363.58,450.26c11.44,1.6,17.69,12.27,18.19,13.16,4.08,7.22,3.46,14.21,3.1,17.81-.43,4.24-1.55,15.22-10.47,21.29-9.01,6.13-21.32,4.07-29.41-1.55-7.78-5.4-12.68-14.8-12-24.39.76-10.64,7.58-17.31,10.24-19.55,2.14-1.81,9.79-8.25,20.34-6.78Z"/>
  </g>
  <g id="Vrstva_7" data-name="Vrstva 7">
    <path class="cls-3" d="M118.2,344.99c-8.41,7.66-13.53,18.46-16.78,29.19s-4.57,22.45-5.45,33.8c-.85,10.96-1.5,22.01-.68,32.99.87,11.58,3.29,22.88,7.16,33.82,2.9,8.21,6.18,16.42,10.3,24.11,2.95,5.52,6.29,10.83,9.83,15.99,9.28,13.54,19.87,26.39,31.87,37.61,12.6,11.78,26.92,22.15,43.35,27.83,1.68.58,3.37,1.09,5.09,1.53,3.03.78,6.46.39,9.17-1.2,2.47-1.45,4.83-4.28,5.47-7.12.69-3.05.54-6.47-1.2-9.17s-4.07-4.69-7.12-5.47c-3.27-.84-6.45-1.94-9.56-3.25l2.84,1.2c-8.11-3.45-15.58-8.21-22.54-13.58l2.41,1.86c-9.98-7.74-18.94-16.74-27.1-26.37-2.25-2.66-4.44-5.37-6.57-8.12l1.86,2.41c-6.79-8.81-13.14-18.1-18.21-28.02-1.4-2.73-2.63-5.54-3.82-8.37l1.2,2.84c-4.75-11.29-8.67-22.98-10.35-35.15l.43,3.17c-1.17-8.81-1.22-17.71-.82-26.57s.99-17.13,2.11-25.61l-.43,3.17c1.18-8.75,3.06-17.43,6.47-25.61l-1.2,2.84c1.73-4.07,3.84-7.96,6.53-11.48l-1.86,2.41c1.36-1.74,2.83-3.36,4.46-4.84,2.19-2,3.49-5.51,3.49-8.42s-1.3-6.41-3.49-8.42c-4.94-4.53-11.91-4.49-16.84,0h0Z"/>
    <path class="cls-3" d="M382.56,539.48c11.8-2.17,23.06-7.18,32.16-15.03,4.4-3.79,8.28-8.66,10.76-13.93,3.43-7.27,5-14.78,5.58-22.78.44-6.15.22-12.37-.5-18.49-.82-6.97-2-13.85-4.12-20.55-2.79-8.81-6.66-17.45-12.2-24.89-2.96-3.97-6.01-7.85-7.96-12.45l1.2,2.84c-1.17-2.81-1.91-5.76-2.32-8.78l.43,3.17c-.68-5.27-.38-10.6.31-15.85l-.43,3.17c1.08-7.98,3.08-15.81,5.39-23.52.87-2.92.33-6.57-1.2-9.17-1.45-2.47-4.28-4.83-7.12-5.47-6.41-1.46-12.73,1.93-14.65,8.32-4.54,15.19-8.19,31.33-5.47,47.19.81,4.7,2.6,9.3,4.91,13.46,1.62,2.91,3.64,5.55,5.64,8.2,3.64,4.84,6.6,9.98,8.97,15.57l-1.2-2.84c3.12,7.44,5.14,15.27,6.23,23.26l-.43-3.17c1.04,7.96,1.32,16.16.27,24.13l.43-3.17c-.54,3.88-1.45,7.69-2.94,11.32l1.2-2.84c-1.13,2.66-2.58,5.14-4.34,7.44l1.86-2.41c-1.98,2.54-4.28,4.79-6.82,6.78l2.41-1.86c-3.49,2.68-7.33,4.83-11.37,6.54l2.84-1.2c-4.46,1.86-9.12,3.19-13.87,4.06-2.79.51-5.73,3.11-7.12,5.47-1.49,2.55-2.13,6.31-1.2,9.17s2.72,5.66,5.47,7.12c2.97,1.57,5.87,1.81,9.17,1.2h0Z"/>
    <path class="cls-3" d="M343.33,511.48c-1.21-.4-2.4-.84-3.58-1.33l2.84,1.2c-3.7-1.57-7.17-3.59-10.37-6.02l2.41,1.86c-3.44-2.66-6.51-5.75-9.19-9.18l1.86,2.41c-2.56-3.32-4.77-6.93-6.4-10.79l1.2,2.84c-1.96-4.71-2.71-9.97-3.39-15l.43,3.17c-1.29-9.78-1.25-19.7.04-29.48l-.43,3.17c1.34-9.89,3.95-19.57,7.8-28.78l-1.2,2.84c3.57-8.47,8.18-16.47,13.79-23.75l-1.86,2.41c4.59-5.91,9.81-11.29,15.61-16.01,2.22-1.81,3.49-5.68,3.49-8.42,0-2.92-1.3-6.41-3.49-8.42s-5.25-3.63-8.42-3.49l-3.17.43c-2.02.57-3.77,1.59-5.25,3.06-9.97,8.1-18.37,18.29-24.86,29.36s-11.22,23.23-13.89,35.7-3.71,25.89-2.3,38.81c.67,6.08,1.39,12.58,3.28,18.45,1.26,3.93,3.1,7.79,5.26,11.3,7.72,12.54,19.43,22.01,33.45,26.61,2.85.94,6.63.29,9.17-1.2s4.83-4.28,5.47-7.12c1.49-6.55-1.98-12.56-8.32-14.65h0Z"/>
    <path class="cls-3" d="M322.37,493.09c-2.87-8.06-6.26-15.94-7.46-24.47l.43,3.17c-.85-6.39-.8-12.94-.78-19.38s.09-12.8.92-19.12l-.43,3.17c1.14-8.28,3.68-16.41,6.92-24.09l-1.2,2.84c1.56-3.66,3.44-7.17,5.08-10.79,1.91-4.21,3.62-8.5,4.87-12.95,2.37-8.43,3.48-17.35,3.55-26.09.04-4.73-.27-9.46-.85-14.15.06-1.64-.28-3.17-1.03-4.59-.48-1.48-1.3-2.75-2.46-3.83-2.07-2.07-5.45-3.62-8.42-3.49s-6.27,1.15-8.42,3.49c-1.98,2.16-3.87,5.37-3.49,8.42,1.07,8.62,1.17,17.33.02,25.95l.43-3.17c-.93,6.72-2.62,13.32-5.24,19.58l1.2-2.84c-1.5,3.54-3.35,6.91-4.92,10.42-1.96,4.39-3.81,8.86-5.3,13.44-2.35,7.22-3.88,14.71-4.51,22.29-.5,6.08-.58,12.21-.54,18.31.03,6.78.28,13.46,1.26,20.18,1.22,8.37,4.58,16.13,7.4,24.04,1.05,2.96,2.7,5.49,5.47,7.12,2.55,1.49,6.31,2.13,9.17,1.2s5.66-2.72,7.12-5.47,2.27-6.17,1.2-9.17h0Z"/>
    <path class="cls-3" d="M545.89,520.63c-1.79,2.55-3.63,5.06-5.53,7.53l1.86-2.41c-11.5,14.88-24.97,28.1-39.37,40.16-4.14,3.47-8.36,6.84-12.63,10.15l2.41-1.86c-12.75,9.84-25.97,19.03-39.3,28.08-14,9.5-28.03,19.01-42.74,27.38-8.32,4.73-16.86,9.08-25.67,12.82l2.84-1.2c-10.25,4.32-20.93,8.06-31.98,9.61l3.17-.43c-6.49.87-12.97.8-19.46-.07l3.17.43c-8.36-1.16-16.57-3.36-24.62-5.83s-15.6-5.23-23.19-8.42l2.84,1.2c-8.22-3.47-16.24-7.39-24.03-11.73-2.73-1.52-6.13-2.04-9.17-1.2-2.76.76-5.75,2.9-7.12,5.47-1.46,2.76-2.19,6.11-1.2,9.17s2.73,5.59,5.47,7.12c10.84,6.04,22.15,11.22,33.72,15.69,10.84,4.19,22.03,7.77,33.41,10.17,6.64,1.4,13.47,2.41,20.26,2.47s13.68-.9,20.3-2.4c11.97-2.71,23.54-7.43,34.63-12.61,20.56-9.59,39.48-22.24,58.22-34.92,18.29-12.38,36.44-25.01,53.57-38.98,8.23-6.71,16.19-13.75,23.7-21.25,8.07-8.06,15.47-16.67,22.37-25.75,1.58-2.09,3.13-4.2,4.63-6.35,1.69-2.41,1.95-6.44,1.2-9.17s-2.9-5.75-5.47-7.12c-2.76-1.46-6.11-2.19-9.17-1.2s-5.25,2.81-7.12,5.47h0Z"/>
    <path class="cls-3" d="M182.48,249.94c-9.73,1.41-19.21,4.36-28.38,7.85-11.1,4.22-21.94,9.19-32.37,14.87-8.88,4.83-17.53,10.16-25.61,16.25-4.76,3.59-9.38,7.28-13.49,11.62s-7.97,9.28-11.35,14.34c-6.45,9.64-11.22,20.4-15.09,31.31-3.63,10.23-6.3,20.79-8.51,31.41-5.65,27.19-8.91,55.28-2.84,82.7,2.74,12.36,7.54,24.64,14.54,35.22,7.38,11.17,17.18,20.18,25.95,30.19,1.92,2.19,3.76,4.45,5.55,6.75l-1.86-2.41c11.29,14.65,20.38,31.04,33.32,44.4,12.51,12.91,28.21,22.33,44.43,29.82,9.61,4.44,19.44,8.36,29.28,12.25,2.69,1.07,6.78.2,9.17-1.2s4.83-4.28,5.47-7.12c.69-3.05.54-6.47-1.2-9.17l-1.86-2.41c-1.49-1.48-3.24-2.5-5.25-3.06-5.48-2.17-10.96-4.35-16.39-6.64l2.84,1.2c-14.39-6.08-28.56-12.98-40.99-22.53l2.41,1.86c-7.53-5.83-14.07-12.63-19.91-20.14l1.86,2.41c-6.17-7.99-11.62-16.51-17.47-24.73-3.42-4.82-6.99-9.56-10.8-14.08-3.34-3.97-6.93-7.72-10.49-11.48-4.08-4.31-8.13-8.65-11.77-13.34l1.86,2.41c-4.56-5.95-8.29-12.45-11.22-19.35l1.2,2.84c-3.73-8.89-6.12-18.26-7.43-27.8l.43,3.17c-1.96-14.63-1.31-29.46.64-44.05l-.43,3.17c2.3-16.94,5.8-33.98,11.17-50.24,1.39-4.21,2.94-8.38,4.66-12.46l-1.2,2.84c3.77-8.86,8.41-17.34,14.29-24.98l-1.86,2.41c4.47-5.76,9.61-10.86,15.36-15.33l-2.41,1.86c11.51-8.89,24.24-16.26,37.29-22.63,3.95-1.92,7.94-3.74,11.98-5.45l-2.84,1.2c11.42-4.81,23.35-8.99,35.66-10.77,2.74-.4,5.79-3.2,7.12-5.47,1.49-2.55,2.13-6.31,1.2-9.17s-2.72-5.66-5.47-7.12l-2.84-1.2c-2.11-.57-4.22-.57-6.33,0h0Z"/>
  </g>
</svg>