<?xml version="1.0" encoding="UTF-8"?>
<svg xmlns="http://www.w3.org/2000/svg" xmlns:xlink="http://www.w3.org/1999/xlink" viewBox="0 0 906.57 508.89">
  <defs>
    <style>
      .cls-1 {
        fill: url(#Nepojmenovaný_přechod_260-3);
      }

      .cls-2 {
        fill: url(#Nepojmenovaný_přechod_345-2);
      }

      .cls-3 {
        fill: url(#Nepojmenovaný_přechod_351);
      }

      .cls-4 {
        fill: url(#Nepojmenovaný_přechod_354);
      }

      .cls-5 {
        fill: url(#Nepojmenovaný_přechod_260-2);
      }

      .cls-6 {
        fill: url(#Nepojmenovaný_přechod_351-2);
      }

      .cls-7 {
        fill: url(#Nepojmenovaný_přechod_351-4);
      }

      .cls-8 {
        fill: url(#Nepojmenovaný_přechod_351-3);
      }

      .cls-9 {
        fill: url(#Nepojmenovaný_přechod_260);
      }

      .cls-10 {
        fill: url(#Nepojmenovaný_přechod_345);
      }

      .cls-11 {
        fill: url(#Nepojmenovaný_přechod_354-2);
      }
    </style>
    <linearGradient id="Nepojmenovaný_přechod_354" data-name="Nepojmenovaný přechod 354" x1="145.51" y1="349.8" x2="425.95" y2="69.76" gradientTransform="translate(122.36 425.94) rotate(-69.83)" gradientUnits="userSpaceOnUse">
      <stop offset=".19" stop-color="#2a4313"/>
      <stop offset=".35" stop-color="#355a25"/>
      <stop offset=".56" stop-color="#407036"/>
      <stop offset=".76" stop-color="#477e41"/>
      <stop offset=".93" stop-color="#4a8345"/>
    </linearGradient>
    <linearGradient id="Nepojmenovaný_přechod_354-2" data-name="Nepojmenovaný přechod 354" x1="126.88" y1="90.25" x2="407.32" y2="-189.79" gradientTransform="translate(687.15 572.31) rotate(-128.61)" xlink:href="#Nepojmenovaný_přechod_354"/>
    <linearGradient id="Nepojmenovaný_přechod_345" data-name="Nepojmenovaný přechod 345" x1="405.98" y1="462.28" x2="762.48" y2="26.4" gradientTransform="translate(20.02 -55.88) rotate(6.73)" gradientUnits="userSpaceOnUse">
      <stop offset=".06" stop-color="#2a4313"/>
      <stop offset=".14" stop-color="#2f4d1a"/>
      <stop offset=".42" stop-color="#3d6a31"/>
      <stop offset=".66" stop-color="#467c3f"/>
      <stop offset=".83" stop-color="#4a8345"/>
    </linearGradient>
    <linearGradient id="Nepojmenovaný_přechod_345-2" data-name="Nepojmenovaný přechod 345" x1="291.98" y1="84.19" x2="648.48" y2="-351.69" gradientTransform="translate(687.15 572.31) rotate(-128.61)" xlink:href="#Nepojmenovaný_přechod_345"/>
    <linearGradient id="Nepojmenovaný_přechod_260" data-name="Nepojmenovaný přechod 260" x1="306.45" y1="274.17" x2="849.7" y2="274.17" gradientTransform="translate(-12.94 21.85) rotate(-.28)" gradientUnits="userSpaceOnUse">
      <stop offset=".19" stop-color="#2a4313"/>
      <stop offset=".61" stop-color="#3a561a"/>
      <stop offset="1" stop-color="#45631f"/>
    </linearGradient>
    <linearGradient id="Nepojmenovaný_přechod_260-2" data-name="Nepojmenovaný přechod 260" x1="212.46" y1="-101.95" x2="755.71" y2="-101.95" gradientTransform="translate(765.23 540.18) rotate(-135.63)" xlink:href="#Nepojmenovaný_přechod_260"/>
    <linearGradient id="Nepojmenovaný_přechod_351" data-name="Nepojmenovaný přechod 351" x1="597.98" y1="475.3" x2="385.15" y2="339.58" gradientTransform="translate(-12.94 21.85) rotate(-.28)" gradientUnits="userSpaceOnUse">
      <stop offset=".02" stop-color="#688f32"/>
      <stop offset=".09" stop-color="#60852d"/>
      <stop offset=".33" stop-color="#4c6c23"/>
      <stop offset=".47" stop-color="#45631f"/>
      <stop offset=".98" stop-color="#2a431f"/>
    </linearGradient>
    <linearGradient id="Nepojmenovaný_přechod_351-2" data-name="Nepojmenovaný přechod 351" x1="672.79" y1="38.73" x2="301.07" y2="380.67" gradientTransform="translate(20.02 -55.88) rotate(6.73)" xlink:href="#Nepojmenovaný_přechod_351"/>
    <linearGradient id="Nepojmenovaný_přechod_351-3" data-name="Nepojmenovaný přechod 351" x1="679.41" y1="-154.69" x2="307.69" y2="187.25" gradientTransform="translate(744.18 89.08) rotate(142.08) scale(1 -1)" xlink:href="#Nepojmenovaný_přechod_351"/>
    <linearGradient id="Nepojmenovaný_přechod_260-3" data-name="Nepojmenovaný přechod 260" x1="341.08" y1="368.56" x2="913.35" y2="368.56" xlink:href="#Nepojmenovaný_přechod_260"/>
    <linearGradient id="Nepojmenovaný_přechod_351-4" data-name="Nepojmenovaný přechod 351" x1="841.83" y1="240.81" x2="335.51" y2="501.06" xlink:href="#Nepojmenovaný_přechod_351"/>
  </defs>
  <g id="Vrstva_3" data-name="Vrstva 3">
    <path class="cls-4" d="M516.46,382.17c-3.07-7.6-14.2-8.92-18.84-15.56-6.78-9.71-5.37-23.48-13.35-32.31-1.47-1.62-3.26-3.09-4-5.12-.75-2.03-.3-4.27.26-6.34,3.72-13.62,12.15-25.45,18.66-38.03,6.5-12.58,15.17-33.6,10.7-47.1-5.98-18.04-20.72-33.1-30.38-49.63-3.52-6.02-14.89-1.57-18.59-7.49-3.87-6.2-9.39-11.26-14.73-16.34-31.28-29.73-59.08-62.87-82.69-98.56-15.37-23.22-29.79-48.38-53.5-63.74-1.63-1.06-3.47-2.11-5.42-1.93-4.81.43-5.47,6.91-4.56,11.5,6.67,33.86,24.05,67.25,18.03,101.06-2.53,14.2-9.17,28.5-5.32,42.51,1.7,6.17,5.32,11.68,8.07,17.5,4.67,9.89,6.82,20.86,6.21,31.65-.37,6.43-1.69,12.91-.42,19.25,1.29,6.45,5.14,12.13,8.9,17.63,16.87,24.62,34.06,49.6,57.4,68.7,17,13.91,37.15,24.63,50.9,41.55,10.23,12.59,12.58,27.29,24.83,38.08,4.83,4.26,14.76,9.06,16.32,15.17,2.1,8.23-4.8,15.63-8.03,23.44-3.73,9-2.35,19.85,3.53,27.84s2.44,15.18,12.51,14.8c.1-5.8,2.35-6.95,6.11-7.4,5.04-.59,9.55,6.06,9.55,6.06,3.28-1.21,16.3-16.99,18.19-19.86,4.53-6.88,12.78-16.59,7.77-23.05-9.71-12.51-10.41-25.27-18.09-44.27Z"/>
    <path class="cls-11" d="M662.76,389.09c-8.09-1.31-14.99,7.53-23.08,8.05-11.82.76-22.86-7.58-34.55-5.33-2.15.41-4.33,1.18-6.45.77-2.13-.41-3.81-1.95-5.28-3.51-9.72-10.24-15.47-23.58-22.85-35.66-7.39-12.08-20.87-30.39-34.74-33.56-18.52-4.23-39.05.57-58.19.27-6.98-.11-9.06,11.92-16.04,12.02-7.31.1-14.49,2.19-21.61,4.13-41.64,11.34-84.38,17.95-127.14,19.65-27.82,1.11-56.82.41-82.24,12.73-1.75.85-3.6,1.88-4.46,3.63-2.12,4.33,3.08,8.26,7.47,9.86,32.41,11.84,69.98,14.28,95.78,36.95,10.84,9.52,19.63,22.61,33.6,26.57,6.16,1.75,12.75,1.5,19.15,2.17,10.88,1.13,21.37,4.97,30.29,11.09,5.31,3.64,10.17,8.13,16.25,10.33,6.18,2.24,13.04,1.89,19.69,1.52,29.79-1.67,60.07-3.43,88.5-13.49,20.71-7.33,40.32-19.01,61.92-22,16.07-2.22,29.86,3.38,45.43-1.5,6.14-1.93,15.4-7.92,21.43-6.09,8.12,2.47,10.88,12.2,15.89,19.01,5.77,7.85,15.76,12.3,25.64,11.41,9.88-.89,14.25,5.78,19.14-3.03-4.91-3.09-4.73-5.61-3.16-9.05,2.1-4.62,10.13-5.03,10.13-5.03.66-3.44-6.09-22.75-7.56-25.85-3.53-7.44-7.57-19.53-15.68-18.59-15.73,1.82-27.01-4.19-47.24-7.47Z"/>
  </g>
  <g id="Vrstva_4" data-name="Vrstva 4">
    <path class="cls-10" d="M343.27,305.69c-.95-8.72-3.23-17.37-2.69-26.12s4.77-18.05,12.9-21.32c15.64-6.28,33.93,12.73,48.88,4.94,5.71-2.98,8.94-9.1,11.76-14.89,4.43-9.09,8.76-18.45,9.96-28.48,1.4-11.8-1.64-23.69-1.23-35.56.41-11.87,5.88-25.13,17.27-28.51,4.16-1.24,8.72-1,12.72-2.68,5-2.09,8.34-6.77,12.37-10.4,14.48-13.05,37.42-11.63,55.04-3.29,17.62,8.34,31.87,22.28,47.86,33.44,4.37,3.05,9.09,5.98,14.38,6.63,6.14.76,12.17-1.63,17.95-3.83,16.6-6.32,33.66-11.43,51-15.28,12.73-2.83,67.24-45.9,78.75-52.01,36.99-19.63,110.63,7.97,110.63,7.97-40.68,10.79-65.45,89.99-65.45,89.99,25.17,9.28-22.01,33.78-15.01,47.09,4.7,8.95-21.63,30.55-17.92,39.95,3.71,9.4,4.15,21.09-2.5,28.71-3.07,3.52-7.3,5.78-11.43,7.97-23.42,12.39-48.04,25.09-74.54,25.14-25.9.05-50.56-12.08-76.45-12.86-36.11-1.08-68.68,19.62-102.33,32.77-53.01,20.72-111.15,23.02-168.03,25.08,7.33,1.6,11.32,10.56,9.38,17.81s-8.29,12.6-15.19,15.57c-4.39,1.89-9.56,2.97-13.86.91-2.62-1.26-4.59-3.52-6.7-5.52-10-9.51-37.02-14.62-36.74-17.38,4.69-2.81,6.05-3.12,6.7-8.91s-8.84-11.26-9.37-11.54c2.29-5.29,4.6-11.21,6.89-16.5.66-1.53,1.44-3.19,2.93-3.95,1.49-.76,3.28-.41,4.91-.05,14.15,3.16,28.32,6.25,42.46,9.48,11.7,2.67,15.37,1.01,23.6-8.44,16-18.37,22.79-41.87,21.1-65.92Z"/>
    <path class="cls-2" d="M487.06,412.93c-5.45,6.87-9.9,14.63-16.44,20.47-6.54,5.84-16.08,9.49-24.16,6.1-15.54-6.52-15.2-32.9-31.3-37.87-6.16-1.9-12.76.19-18.84,2.33-9.54,3.35-19.2,6.96-27.1,13.26-9.29,7.41-15.48,18.01-24.12,26.16-8.64,8.16-21.85,13.75-32.32,8.15-3.83-2.05-6.91-5.41-10.94-7.04-5.03-2.03-10.69-1.05-16.11-1.29-19.48-.89-34.8-18.03-41.47-36.35-6.67-18.32-7.01-38.25-10.54-57.42-.96-5.25-2.26-10.64-5.57-14.83-3.84-4.85-9.81-7.39-15.47-9.89-16.25-7.17-31.98-15.53-47.02-24.98-11.04-6.93-80.09-14.6-92.58-18.35C32.98,269.36,0,197.96,0,197.96c36.52,20.91,109.81-18.01,109.81-18.01-11.39-24.29,39.4-8.56,43.77-22.94,2.94-9.67,36.86-6.53,40.83-15.83s11.88-17.92,21.96-18.66c4.66-.34,9.26,1.02,13.73,2.37,25.37,7.65,51.81,15.92,70.7,34.51,18.46,18.17,27.48,44.13,45.35,62.88,24.93,26.15,62.64,34.31,95.82,48.61,52.27,22.52,95.25,61.74,137.15,100.25-4.09-6.29-.63-15.47,5.84-19.27,6.47-3.79,14.75-3.13,21.74-.4,4.45,1.74,8.89,4.6,10.5,9.1.98,2.74.79,5.73.88,8.63.43,13.79,16.05,36.42,13.92,38.19-5.32-1.3-6.5-2.03-11.03,1.63-4.53,3.66-1.63,14.23-1.45,14.79-5.35,2.15-11.15,4.74-16.49,6.89-1.55.62-3.26,1.26-4.85.75-1.59-.51-2.62-2.01-3.53-3.42-7.85-12.19-15.75-24.35-23.54-36.58-6.45-10.13-10.22-11.52-22.72-10.58-24.3,1.82-45.64,13.76-61.34,32.06Z"/>
  </g>
  <g id="Vrstva_7" data-name="Vrstva 7">
    <path class="cls-9" d="M463.46,327.06c5.21-3.39,10.49-6.81,16.38-8.79,7.2-2.42,14.93-2.56,22.45-3.58,18.73-2.56,36.19-10.61,54.34-15.9,27.83-8.11,59.28-10.64,80.32-30.58,13.79-13.07,21.4-32.36,37.36-42.67,20.77-13.41,48.07-7.26,72.45-11.38,14.57-2.46,31.17-1.52,43.07-10.29,15.15-11.17,27.04-46.82,27.04-46.82,39.5,56.06,9.62,95.82,15.87,110.48,1.4,3.27,3.54,6.57,2.96,10.09-.57,3.47-3.62,5.92-6.44,8.02-10.27,7.63-20.55,15.27-30.82,22.9-3.96,2.95-7.95,5.91-12.38,8.09-6.5,3.21-13.71,4.63-20.83,6.03-88.59,17.34-177.18,34.67-265.76,52.01-20.98,4.1-41.98,8.22-62.5,14.2-46.73,13.62-91.3,36.98-139.85,40.5-2.83-2.97-1.61-8.18,1.41-10.97s7.2-3.82,11.16-4.89c25.38-6.85,47.85-20.62,70.8-32.98,28.73-15.47,55.63-35.67,82.99-53.46Z"/>
    <path class="cls-5" d="M445.02,322.81c-6.08-1.25-12.24-2.53-17.82-5.26-6.82-3.34-12.42-8.67-18.49-13.23-15.12-11.34-33.21-17.89-49.83-26.88-25.5-13.79-49.64-34.1-78.63-34.7-18.99-.39-37.97,7.98-56.57,4.09-24.2-5.06-39.3-28.62-59.54-42.83-12.1-8.49-23.24-20.83-37.87-22.95-18.63-2.7-52.14,14.31-52.14,14.31,11.3-67.65,60.5-74.92,66.36-89.74,1.31-3.31,2.1-7.16,4.98-9.25,2.85-2.07,6.73-1.67,10.22-1.18,12.67,1.79,25.35,3.58,38.02,5.37,4.89.69,9.81,1.39,14.5,2.95,6.88,2.29,13.01,6.34,19.05,10.35,75.2,49.93,150.4,99.86,225.6,149.8,17.81,11.82,35.64,23.66,54.44,33.83,42.81,23.15,90.94,37.86,127.94,69.48-.07,4.11-4.61,6.95-8.71,6.81-4.1-.14-7.81-2.34-11.38-4.37-22.87-12.97-48.53-18.96-73.54-26.3-31.31-9.19-64.65-13.72-96.61-20.3Z"/>
  </g>
  <g id="Vrstva_8" data-name="Vrstva 8">
    <path class="cls-3" d="M284.51,490.19c6.42,10.15,12.69,13.69,24.63,12.41,9.59-1.03,14.65-1.98,23.62-5.54,20.23-8.03,43.38.74,64.02,7.64,18.89,6.32,39.73,5.01,58.81-.71,12.01-3.6,23.47-8.88,35.58-12.13,14.75-3.96,30.13-4.84,45.38-5.69,19.36-1.08,38.95-2.15,57.99,1.54,16.3,3.16,31.74,9.73,47.84,13.76,56.54,14.15,117.58-21.39,155.39-65.74-104.87-30.43-207.83-42.96-314.16-67.81-5.79-1.35-11.83-2.7-17.62-1.32-5.39,1.29-9.92,4.79-14.49,7.92-21.61,14.81-47.09,22.71-72.13,30.41-17.49,5.37-35.02,10.76-52.97,14.36-10.34,2.07-21.22,3.72-29.78,9.89-5.31,3.83-9.44,9.23-15.18,12.37s-12.48,11.01-9.99,22.06c5.24-.03,9.83,1.84,12.22,8.85,1.3,3.82-3.94,11.72-3.94,11.72,1.91,4.94,1.94,1.51,4.79,6.01Z"/>
    <path class="cls-6" d="M202.99,410.79c25.7,2.94,61.54-19.13,85.17-29.35,23.63-10.21,45.3-24.02,67.58-36.68,70.02-39.76,146.34-68.24,221.76-97.75,16.35-6.4,33.07-13.08,46-24.54,12.29-10.89,21.29-26.1,36.92-31.98,5.35-2.01,11.15-2.76,16.45-4.87,18.99-7.55,26.19-30.36,23.3-49.58-1.94-12.92-6.72-27.84,2.34-37.75,6.69-7.33,18.21-8.34,26.88-13.48,11.52-6.82,16.88-21.68,12.16-33.66-11.44,6.88-26.45,5.6-39.09,1.16-12.64-4.44-23.98-11.68-36.47-16.48-36.64-14.08-87.09-7.19-123.76,7.31,8.97,6.92,16.71,15.19,22.11,17.64,6.11,2.76,10.29,5.14,10.29,5.14-.5,2.07-.06,1.95-1.42,3.65-15.05,18.85-30.09,37.71-45.14,56.56-6.43,8.06-12.91,16.17-20.84,22.92-7.53,6.41-16.22,11.47-24.85,16.49-29.77,17.3-59.53,34.61-89.3,51.91-31.8,18.49-66.43,40.56-74.63,74.94-3.27,13.7,1.22,18.37-7.5,29.78-19.08,24.95-27.29,30.04-48.41,41.93-18.51,10.42-38.86,17.31-60.34,18.01-3.33,1.2-5.49,4.37-6.1,7.69-.52,2.86-3.95,6.34-1.76,8.35,0,0,13.51-4.82,15.74-3.56,7,3.98-7.1,16.2-7.1,16.2Z"/>
    <path class="cls-8" d="M705.28,434.54c-20.46,15.83-62.55,15.51-88.06,19.01-25.5,3.5-51.19,2.91-76.81,3.63-80.49,2.25-160.53,17.42-240.33,31.24-17.3,3-35.07,5.94-52.06,2.84-16.15-2.95-31.73-11.3-48.15-8.23-5.61,1.05-10.97,3.41-16.59,4.35-20.15,3.38-38.12-12.4-45.61-30.35-5.03-12.06-8.67-27.3-21.55-31.09-9.52-2.8-19.9,2.29-29.98,2.39-13.39.13-25.67-9.8-27.83-22.5,13.35-.04,25.52-8.91,34.03-19.26,8.51-10.35,14.46-22.41,22.66-32.98,24.05-31.02,70.78-51.25,109.65-57.85-4.09,10.57-6.42,21.65-9.78,26.54-3.79,5.53-6.14,9.73-6.14,9.73,1.5,1.51,1.06,1.64,3.1,2.39,22.64,8.34,45.27,16.67,67.91,25.01,9.67,3.56,19.42,7.14,29.7,8.81,9.77,1.58,19.82,1.41,29.8,1.23,34.42-.62,68.85-1.23,103.27-1.85,36.78-.66,77.83.29,102.66,25.45,9.9,10.03,8.48,16.35,21.84,21.59,29.24,11.46,38.91,11.56,63.13,10.79,21.23-.67,42.21-5.32,60.94-15.84,3.47-.7,6.96.89,9.2,3.42,1.93,2.17,6.66,3.38,5.83,6.23,0,0-14.06,2.87-15.31,5.11-3.93,7.03,14.47,10.18,14.47,10.18Z"/>
  </g>
  <g id="Vrstva_6" data-name="Vrstva 6">
    <path class="cls-1" d="M466.1,441.25c30.71-4.25,61.92-1.66,92.78,1.34,29.26,2.85,58.54,6.06,87.36,11.93,21.02,4.28,41.82,9.99,63.18,11.99,38.48,3.62,78.04-5.25,111.3-24.94,33.26-19.69,60.05-50.11,75.39-85.59,2.12-4.89,4.05-10.02,4.08-15.35.04-5.64-2.05-11.06-4.11-16.32-3.5-8.94,5.68-32.81,5.68-32.81-24.01-25.07-37.46,18.92-42.89,22.53-5.5,3.66-28.86,4.65-35.75,5.23-34.53,2.89-46.05,7.85-77.24,16.46-18.49,5.11-36.11,12.92-54.4,18.69-30.71,9.7-62.96,13.56-95.09,15.82-28.47,2-57.5,2.88-84.49,12.15-14.83,5.1-41.64,7.34-55.43,14.83-27.47,14.93-83.65,53.56-109.07,71.87-6.34,4.56-26.71,19.78-11.37,21.69,11.84,1.47,70.34-32.27,80.82-36.46,15.81-6.32,32.38-10.74,49.24-13.08Z"/>
  </g>
  <g id="Vrstva_5" data-name="Vrstva 5">
    <path class="cls-7" d="M456.27,411.79c71.13-23.27,148.28-1.65,223.11-2.45,13.96-.15,28.1-1.13,41.31-5.65,13.23-4.53,25-12.45,37.71-18.28,15-6.88,31.21-10.8,46.22-17.65,28.01-12.78,50.42-35.02,72.18-56.8,6.29-6.29,12.91-13.22,14.21-22.02,1.2-8.12-2.4-16.5-.61-24.51,1.68-7.52,8.49-13.6,16.15-14.42-16.79-8.49-36.42,3.42-55.21,4.17-16.14.65-31.63-7.13-47.79-7.18-20.06-.07-38.08,11.6-57.42,16.92-24.83,6.82-51.79,3.11-76.28,11.05-19.05,6.17-35.25,18.96-53.7,26.75-24.96,10.53-52.83,11.45-79.02,18.39-41.78,11.07-77.82,36.96-112.81,62.35-20.81,15.1-41.67,30.24-60.99,47.25-7.41,6.53-21.51,15.88-24.55,25.69-3.13,10.1,10.08,17.15,4.77,27.02,35.56-27.09,69.43-56.47,112.7-70.63Z"/>
  </g>
</svg>