<?xml version="1.0" encoding="UTF-8"?>
<svg xmlns="http://www.w3.org/2000/svg" viewBox="0 0 1959.1 1111.11">
  <defs>
    <style>
      .cls-1, .cls-2 {
        stroke: #3d9181;
      }

      .cls-1, .cls-2, .cls-3, .cls-4, .cls-5, .cls-6, .cls-7, .cls-8, .cls-9, .cls-10, .cls-11, .cls-12, .cls-13, .cls-14, .cls-15, .cls-16, .cls-17, .cls-18, .cls-19, .cls-20, .cls-21, .cls-22, .cls-23, .cls-24, .cls-25, .cls-26, .cls-27, .cls-28, .cls-29, .cls-30, .cls-31, .cls-32, .cls-33, .cls-34, .cls-35, .cls-36, .cls-37, .cls-38, .cls-39, .cls-40, .cls-41, .cls-42, .cls-43, .cls-44 {
        stroke-linecap: round;
        stroke-linejoin: round;
      }

      .cls-1, .cls-2, .cls-4, .cls-6, .cls-7, .cls-8, .cls-9, .cls-11, .cls-12, .cls-13, .cls-14, .cls-16, .cls-17, .cls-19, .cls-22, .cls-24, .cls-25, .cls-28, .cls-30, .cls-31, .cls-32, .cls-33, .cls-34, .cls-36, .cls-37, .cls-41, .cls-44 {
        stroke-width: 26px;
      }

      .cls-1, .cls-3, .cls-4, .cls-6, .cls-7, .cls-8, .cls-9, .cls-10, .cls-11, .cls-12, .cls-13, .cls-14, .cls-15, .cls-16, .cls-17, .cls-19, .cls-22, .cls-23, .cls-24, .cls-26, .cls-30, .cls-31, .cls-32, .cls-33, .cls-34, .cls-35, .cls-36, .cls-37, .cls-38, .cls-40, .cls-42, .cls-43, .cls-44 {
        fill: none;
      }

      .cls-2, .cls-25, .cls-28, .cls-41 {
        fill: #fff;
      }

      .cls-3, .cls-15 {
        stroke-width: 6px;
      }

      .cls-3, .cls-26 {
        stroke: #845434;
      }

      .cls-45, .cls-27 {
        fill: #9b643e;
      }

      .cls-4 {
        stroke: #603813;
      }

      .cls-46 {
        fill: #492812;
      }

      .cls-5, .cls-18, .cls-20, .cls-21, .cls-23, .cls-27, .cls-29, .cls-39 {
        stroke-width: 5px;
      }

      .cls-5, .cls-27, .cls-29 {
        stroke: #602e04;
      }

      .cls-5, .cls-39 {
        fill: #7f461f;
      }

      .cls-6 {
        stroke: #54341c;
      }

      .cls-7 {
        stroke: #59351d;
      }

      .cls-8 {
        stroke: #542e0f;
      }

      .cls-9 {
        stroke: #5b361a;
      }

      .cls-10 {
        stroke: #6d3e1f;
        stroke-width: 4px;
      }

      .cls-11 {
        stroke: #633c21;
      }

      .cls-12 {
        stroke: #56361d;
      }

      .cls-47 {
        fill: #f5661d;
      }

      .cls-13 {
        stroke: #6d4320;
      }

      .cls-14 {
        stroke: #563011;
      }

      .cls-15, .cls-23, .cls-38, .cls-42 {
        stroke: #af7146;
      }

      .cls-16 {
        stroke: #512c10;
      }

      .cls-17 {
        stroke: #6d411d;
      }

      .cls-18, .cls-21, .cls-39 {
        stroke: #42210b;
      }

      .cls-18, .cls-48 {
        fill: #603813;
      }

      .cls-19 {
        stroke: #ea5a1b;
      }

      .cls-49 {
        fill: #8e643f;
      }

      .cls-20 {
        fill: #8e5f3c;
        stroke: #4f2f17;
      }

      .cls-50 {
        fill: #633610;
      }

      .cls-21 {
        fill: #573716;
      }

      .cls-22 {
        stroke: #512d10;
      }

      .cls-24 {
        stroke: #593212;
      }

      .cls-51 {
        fill: #844e26;
      }

      .cls-25 {
        stroke: #c64f1a;
      }

      .cls-26, .cls-38 {
        stroke-width: 10px;
      }

      .cls-52 {
        fill: #419a8a;
      }

      .cls-28, .cls-44 {
        stroke: #308474;
      }

      .cls-29 {
        fill: #754c24;
      }

      .cls-30 {
        stroke: #5e3c1f;
      }

      .cls-31 {
        stroke: #603616;
      }

      .cls-32 {
        stroke: #542f10;
      }

      .cls-33 {
        stroke: #512a14;
      }

      .cls-34 {
        stroke: #683e1e;
      }

      .cls-35 {
        stroke: #9b643e;
        stroke-width: 43px;
      }

      .cls-36 {
        stroke: #5e3619;
      }

      .cls-37, .cls-41 {
        stroke: #db5723;
      }

      .cls-40 {
        stroke: #5b3418;
      }

      .cls-40, .cls-43 {
        stroke-width: 13px;
      }

      .cls-42 {
        stroke-width: 11px;
      }

      .cls-43 {
        stroke: #47260e;
      }

      .cls-53 {
        fill: #6d3b16;
      }
    </style>
  </defs>
  <g id="Vrstva_10" data-name="Vrstva 10">
    <rect class="cls-47" x="-362.57" y="362.57" width="831.59" height="106.46" transform="translate(-362.57 469.02) rotate(-90)"/>
    <rect class="cls-47" x="-73.72" y="337.26" width="831.59" height="157.08" transform="translate(-73.72 757.88) rotate(-90)"/>
    <rect class="cls-47" x="608.68" y="705.49" width="95.12" height="157.08" transform="translate(-127.79 1440.27) rotate(-90)"/>
    <rect class="cls-47" x="922.85" y="705.49" width="95.12" height="157.08" transform="translate(186.37 1754.44) rotate(-90)"/>
    <rect class="cls-47" x="1237.01" y="705.49" width="95.12" height="157.08" transform="translate(500.53 2068.6) rotate(-90)"/>
    <rect class="cls-47" x="1551.17" y="705.49" width="95.12" height="157.08" transform="translate(814.7 2382.76) rotate(-90)"/>
    <rect class="cls-47" x="602.94" y="-25.24" width="106.6" height="157.08" transform="translate(602.94 709.54) rotate(-90)"/>
    <rect class="cls-47" x="917.1" y="-25.24" width="106.6" height="157.08" transform="translate(917.1 1023.71) rotate(-90)"/>
    <rect class="cls-47" x="1231.5" y="-25.47" width="106.6" height="157.55" transform="translate(1231.5 1338.11) rotate(-90)"/>
    <rect class="cls-47" x="1545.43" y="-25.24" width="106.6" height="157.08" transform="translate(1545.43 1652.03) rotate(-90)"/>
    <rect class="cls-47" x="1480.93" y="353.42" width="831.59" height="124.74" transform="translate(1480.93 2312.52) rotate(-90)"/>
    <rect class="cls-52" x="-230.8" y="337.26" width="831.59" height="157.08" transform="translate(-230.8 600.79) rotate(-90)"/>
    <rect class="cls-52" x="451.6" y="705.49" width="95.12" height="157.08" transform="translate(-284.87 1283.19) rotate(-90)"/>
    <rect class="cls-52" x="765.76" y="705.49" width="95.12" height="157.08" transform="translate(29.29 1597.36) rotate(-90)"/>
    <rect class="cls-52" x="1079.93" y="705.49" width="95.12" height="157.08" transform="translate(343.45 1911.52) rotate(-90)"/>
    <rect class="cls-52" x="1394.09" y="705.49" width="95.12" height="157.08" transform="translate(657.62 2225.68) rotate(-90)"/>
    <rect class="cls-52" x="1708.25" y="705.49" width="95.12" height="157.08" transform="translate(971.78 2539.84) rotate(-90)"/>
    <rect class="cls-52" x="445.86" y="-25.24" width="106.6" height="157.08" transform="translate(445.86 552.46) rotate(-90)"/>
    <rect class="cls-52" x="760.26" y="-25.47" width="106.6" height="157.55" transform="translate(760.26 866.86) rotate(-90)"/>
    <rect class="cls-52" x="1074.66" y="-25.24" width="106.6" height="157.08" transform="translate(1074.66 1181.26) rotate(-90)"/>
    <rect class="cls-52" x="1388.82" y="-25.24" width="106.6" height="157.08" transform="translate(1388.82 1495.42) rotate(-90)"/>
    <rect class="cls-52" x="1702.51" y="-25.24" width="106.6" height="157.08" transform="translate(1702.51 1809.11) rotate(-90)"/>
  </g>
  <g id="okno">
    <line class="cls-19" x1="1910.08" y1="663.01" x2="1910.08" y2="235.71"/>
    <line class="cls-1" x1="196.55" y1="256.61" x2="196.55" y2="15.1"/>
    <line class="cls-19" x1="332.72" y1="755.58" x2="332.72" y2="85.67"/>
    <line class="cls-19" x1="605.07" y1="111.13" x2="605.07" y2="19.54"/>
    <line class="cls-44" x1="128.46" y1="503.58" x2="128.46" y2="15.1"/>
    <line class="cls-37" x1="288.97" y1="755.78" x2="288.97" y2="209.45"/>
    <line class="cls-25" x1="288.97" y1="960.11" x2="288.97" y2="455.18"/>
    <line class="cls-37" x1="332.72" y1="623.32" x2="332.72" y2="376.48"/>
    <line class="cls-37" x1="332.72" y1="105.72" x2="332.72" y2="15.1"/>
    <line class="cls-37" x1="332.72" y1="850.63" x2="332.72" y2="751.42"/>
    <line class="cls-19" x1="400.81" y1="307.93" x2="400.81" y2="15.1"/>
    <line class="cls-19" x1="400.81" y1="828.75" x2="400.81" y2="796.77"/>
    <line class="cls-28" x1="468.9" y1="117.43" x2="468.9" y2="50.45"/>
    <line class="cls-44" x1="536.98" y1="828.75" x2="536.98" y2="764.8"/>
    <line class="cls-25" x1="605.07" y1="19.54" x2="605.07" y2="15.1"/>
    <line class="cls-19" x1="673.16" y1="105.72" x2="673.16" y2="37.2"/>
    <line class="cls-25" x1="605.07" y1="855.73" x2="605.07" y2="771.08"/>
    <line class="cls-37" x1="673.16" y1="850.73" x2="673.16" y2="767.68"/>
    <line class="cls-28" x1="753.44" y1="24.63" x2="753.44" y2="15.1"/>
    <line class="cls-44" x1="809.33" y1="103.51" x2="809.33" y2="15.1"/>
    <line class="cls-4" x1="809.33" y1="869.46" x2="809.33" y2="787.75"/>
    <line class="cls-44" x1="809.33" y1="869.6" x2="809.33" y2="767.68"/>
    <line class="cls-19" x1="1233.84" y1="853.34" x2="1233.84" y2="764.8"/>
    <line class="cls-37" x1="945.5" y1="853.34" x2="945.5" y2="763.9"/>
    <line class="cls-19" x1="1013.59" y1="111.13" x2="1013.59" y2="37.2"/>
    <line class="cls-19" x1="1013.59" y1="841.58" x2="1013.59" y2="777.55"/>
    <line class="cls-1" x1="1081.68" y1="106.6" x2="1081.68" y2="15.1"/>
    <line class="cls-1" x1="1081.68" y1="848.47" x2="1081.68" y2="763.9"/>
    <line class="cls-28" x1="1149.77" y1="105.72" x2="1149.77" y2="50.45"/>
    <line class="cls-28" x1="1149.77" y1="829.64" x2="1149.77" y2="760.97"/>
    <line class="cls-19" x1="1345.47" y1="865.35" x2="1345.47" y2="794.98"/>
    <line class="cls-37" x1="1558.29" y1="854.7" x2="1558.29" y2="764.39"/>
    <line class="cls-2" x1="1490.2" y1="857.43" x2="1490.2" y2="776.68"/>
    <line class="cls-19" x1="1345.47" y1="104.91" x2="1345.47" y2="15.1"/>
    <line class="cls-44" x1="1422.11" y1="1045.74" x2="1422.11" y2="752.8"/>
    <line class="cls-37" x1="1558.29" y1="111.13" x2="1558.29" y2="37.2"/>
    <line class="cls-28" x1="1694.46" y1="105.72" x2="1694.46" y2="15.1"/>
    <line class="cls-44" x1="1694.46" y1="853.34" x2="1694.46" y2="764.8"/>
    <line class="cls-1" x1="1762.55" y1="40.28" x2="1762.55" y2="15.1"/>
    <line class="cls-1" x1="1757.38" y1="825.3" x2="1757.38" y2="802.03"/>
    <line class="cls-37" x1="1857.1" y1="367.41" x2="1857.1" y2="50.45"/>
    <line class="cls-19" x1="1857.1" y1="1057.11" x2="1857.1" y2="764.18"/>
    <line class="cls-37" x1="1910.08" y1="401.06" x2="1910.08" y2="15.1"/>
    <line class="cls-37" x1="1910.08" y1="990.77" x2="1910.08" y2="666.73"/>
    <line class="cls-25" x1="1910.08" y1="1063.95" x2="1910.08" y2="739.91"/>
    <line class="cls-25" x1="1558.29" y1="113.45" x2="1558.29" y2="69.23"/>
    <line class="cls-19" x1="60.37" y1="374.44" x2="60.37" y2="524.32"/>
    <line class="cls-41" x1="60.37" y1="15.1" x2="60.37" y2="374.44"/>
    <path class="cls-20" d="M1796.85,77.94H441.09c-44.11,0-79.86,35.76-79.86,79.86v534.73c0,44.11,35.76,79.86,79.86,79.86h1355.76c44.11,0,79.86-35.76,79.86-79.86V157.8c0-44.11-35.76-79.86-79.86-79.86ZM1813.87,680.65c0,15.96-12.94,28.9-28.9,28.9H452.97c-15.96,0-28.9-12.94-28.9-28.9V169.68c0-15.96,12.94-28.9,28.9-28.9h1332c15.96,0,28.9,12.94,28.9,28.9v510.97Z"/>
    <rect class="cls-49" x="0" y="817.13" width="1959.1" height="293.06"/>
    <polygon class="cls-53" points="1834.35 817.06 1945.66 923.19 1946.94 817.13 1934.49 817.06 1834.35 817.06"/>
    <polygon class="cls-51" points="1677.27 817.06 1922.29 1100.26 1945.66 1100.26 1945.66 923.19 1834.35 817.06 1677.27 817.06"/>
    <polygon class="cls-53" points="1520.19 817.06 1733.02 1098.31 1922.29 1100.26 1677.27 817.06 1520.19 817.06"/>
    <polygon class="cls-51" points="1363.11 817.06 1512.85 1098.31 1733.02 1098.31 1520.19 817.06 1363.11 817.06"/>
    <polygon class="cls-53" points="1206.03 817.06 1303.63 1098.31 1512.85 1098.31 1363.11 817.06 1206.03 817.06"/>
    <polygon class="cls-51" points="1048.95 817.06 1062.06 1097.67 1303.63 1098.31 1206.03 817.06 1048.95 817.06"/>
    <polygon class="cls-53" points="891.86 817.06 827.8 1098.31 1062.06 1097.67 1048.95 817.06 891.86 817.06"/>
    <polygon class="cls-51" points="734.78 817.06 597.39 1098.31 827.8 1098.31 891.86 817.06 734.78 817.06"/>
    <polygon class="cls-53" points="577.7 817.06 381.39 1098.31 597.39 1098.31 734.78 817.06 577.7 817.06"/>
    <polygon class="cls-51" points="420.62 817.06 163.82 1100.92 381.39 1098.31 577.7 817.06 420.62 817.06"/>
    <polygon class="cls-53" points="263.54 817.06 0 1038.72 13.16 1100.92 163.82 1100.92 420.62 817.06 263.54 817.06"/>
    <polygon class="cls-51" points="106.46 817.06 0 895.26 0 1038.72 263.54 817.06 106.46 817.06"/>
    <polygon class="cls-53" points="0 817.13 0 876.12 0 895.26 106.46 817.06 0 817.13"/>
    <line class="cls-30" x1="13.16" y1="963.17" x2="196.55" y2="817.13"/>
    <line class="cls-11" x1="413.57" y1="1097.67" x2="605.07" y2="817.13"/>
    <line class="cls-17" x1="324.47" y1="1097.78" x2="500.17" y2="865.74"/>
    <line class="cls-7" x1="480.55" y1="999.55" x2="591.16" y2="836.63"/>
    <line class="cls-30" x1="13.16" y1="901.91" x2="128.46" y2="817.13"/>
    <line class="cls-4" x1="17.19" y1="1096.24" x2="332.72" y2="817.13"/>
    <line class="cls-4" x1="469.9" y1="905.73" x2="536.98" y2="817.13"/>
    <line class="cls-4" x1="508.44" y1="1097.67" x2="673.16" y2="817.13"/>
    <line class="cls-4" x1="712.75" y1="1097.99" x2="809.33" y2="817.13"/>
    <line class="cls-13" x1="1013.59" y1="1098.1" x2="1013.59" y2="817.13"/>
    <line class="cls-4" x1="915.34" y1="1098.02" x2="945.31" y2="817.06"/>
    <line class="cls-4" x1="1104.58" y1="1098.1" x2="1081.68" y2="817.09"/>
    <line class="cls-33" x1="1203.98" y1="1098.1" x2="1149.77" y2="817.13"/>
    <line class="cls-13" x1="1502.18" y1="1098.11" x2="1354.03" y2="817.13"/>
    <line class="cls-4" x1="1767.67" y1="1096.24" x2="1558.29" y2="817.13"/>
    <line class="cls-34" x1="1945.66" y1="1089.45" x2="1705.12" y2="817.13"/>
    <line class="cls-4" x1="1945.66" y1="1005.33" x2="1757.38" y2="817.13"/>
    <line class="cls-4" x1="1945.66" y1="923.19" x2="1830.64" y2="817.13"/>
    <line class="cls-12" x1="13.16" y1="963.17" x2="50.83" y2="933.17"/>
    <line class="cls-6" x1="67.46" y1="861.98" x2="128.46" y2="817.13"/>
    <line class="cls-33" x1="228.57" y1="846.47" x2="264.64" y2="817.13"/>
    <line class="cls-24" x1="581.38" y1="973.44" x2="673.16" y2="817.13"/>
    <line class="cls-22" x1="712.75" y1="1097.99" x2="782.45" y2="895.29"/>
    <line class="cls-36" x1="1013.59" y1="901.11" x2="1013.59" y2="817.13"/>
    <line class="cls-8" x1="1095.02" y1="980.81" x2="1081.68" y2="817.09"/>
    <line class="cls-9" x1="1502.18" y1="1098.11" x2="1386.63" y2="878.97"/>
    <line class="cls-32" x1="1672.87" y1="969.87" x2="1558.29" y2="817.13"/>
    <line class="cls-33" x1="1552.17" y1="903.37" x2="1490.2" y2="817.06"/>
    <line class="cls-4" x1="1456.66" y1="874.2" x2="1422.11" y2="817.06"/>
    <line class="cls-14" x1="1893.34" y1="953.03" x2="1757.38" y2="817.13"/>
    <line class="cls-16" x1="1945.66" y1="923.19" x2="1889.58" y2="871.48"/>
    <line class="cls-31" x1="1945.85" y1="856.54" x2="1898.72" y2="817.13"/>
    <line class="cls-9" x1="60.37" y1="817.13" x2="13.16" y2="849.22"/>
    <line class="cls-43" x1="9.79" y1="810.75" x2="1950.07" y2="810.75"/>
    <line class="cls-40" x1="9.79" y1="821.46" x2="1950.07" y2="821.46"/>
    <line class="cls-10" x1="10.04" y1="816.1" x2="1950.32" y2="816.1"/>
    <rect class="cls-35" x="393.41" y="108.56" width="1452.52" height="631.57" rx="55.7" ry="55.7"/>
    <path class="cls-38" d="M387.31,164.26c0-13.97,4.42-26.91,11.94-37.49"/>
    <line class="cls-38" x1="387.31" y1="455.18" x2="387.31" y2="341.57"/>
    <path class="cls-38" d="M536.98,743.28h-84.86c-35.8,0-64.82-29.02-64.82-64.82"/>
    <line class="cls-38" x1="1172.65" y1="743.28" x2="933.89" y2="743.28"/>
    <line class="cls-38" x1="1733.02" y1="743.28" x2="1334.92" y2="743.28"/>
    <path class="cls-38" d="M1851.52,678.46c0,14.45-4.73,27.79-12.72,38.57"/>
    <polyline class="cls-38" points="1851.52 374.4 1851.52 458.34 1851.52 615.19"/>
    <path class="cls-38" d="M1672.87,99.45h113.83c17.9,0,34.1,7.25,45.83,18.98s18.98,27.93,18.98,45.83"/>
    <line class="cls-38" x1="529.76" y1="99.45" x2="907.64" y2="99.45"/>
    <polyline class="cls-26" points="408.02 401.47 408.02 341.57 408.02 217.32"/>
    <path class="cls-26" d="M448.79,725.65c-22.52,0-40.77-18.26-40.77-40.77v-69.42"/>
    <line class="cls-26" x1="1002.6" y1="725.65" x2="772.66" y2="725.65"/>
    <line class="cls-26" x1="1687.52" y1="725.65" x2="1512.85" y2="725.65"/>
    <line class="cls-26" x1="1830.64" y1="537.07" x2="1830.64" y2="630.37"/>
    <path class="cls-26" d="M1789.86,123.58c10.63,0,20.31,4.07,27.57,10.73,8.12,7.45,13.2,18.15,13.2,30.04v165.5"/>
    <polyline class="cls-26" points="1272.86 123.58 1319.95 123.58 1379.54 123.58 1538.67 123.58"/>
    <line class="cls-26" x1="956.82" y1="123.58" x2="1009.81" y2="123.58"/>
    <path class="cls-26" d="M424.24,131.8c6.83-5.16,15.33-8.22,24.55-8.22h60.53"/>
  </g>
  <g id="police">
    <rect class="cls-50" x="60.97" y="56.52" width="216.71" height="997.16"/>
    <rect class="cls-39" x="91.01" y="165.64" width="156.63" height="720.71"/>
    <polygon class="cls-29" points="266.97 492.26 247.64 483.92 169.32 483.92 91.01 483.92 71.68 492.26 266.97 492.26"/>
    <polygon class="cls-18" points="266.97 284.74 247.64 317.48 169.32 317.48 91.01 317.48 71.68 284.74 266.97 284.74"/>
    <polyline class="cls-21" points="60.97 56.52 91.01 165.64 169.32 165.64 247.64 165.64 277.68 56.52"/>
    <polygon class="cls-5" points="266.97 720.48 247.64 666.96 169.32 666.96 91.01 666.96 71.68 720.48 266.97 720.48"/>
    <polygon class="cls-39" points="277.68 1053.68 247.64 886.35 169.32 886.35 91.01 886.35 60.97 1053.68 277.68 1053.68"/>
    <rect class="cls-27" x="71.68" y="492.26" width="195.29" height="20.71"/>
    <rect class="cls-27" x="71.68" y="264.03" width="195.29" height="20.71"/>
    <rect class="cls-27" x="71.68" y="720.48" width="195.29" height="83.55"/>
    <path class="cls-15" d="M199.63,796.87h-115.83c-2.7,0-4.88-2.19-4.88-4.88v-29.58"/>
    <path class="cls-15" d="M201.95,727.94h52.86c2.7,0,4.88,2.19,4.88,4.88v59.16c0,2.7-2.19,4.88-4.88,4.88"/>
    <path class="cls-15" d="M78.92,732.83c0-2.7,2.19-4.88,4.88-4.88h30.67"/>
    <path class="cls-3" d="M87.24,766.58v-28.1c0-1.42,1.4-2.57,3.13-2.57"/>
    <path class="cls-3" d="M130.8,788.55h-40.43"/>
    <path class="cls-3" d="M251.06,787.77c-.57.48-1.36.78-2.24.78h-28.09"/>
    <path class="cls-3" d="M248.82,735.9c1.73,0,3.13,1.15,3.13,2.57v10.79"/>
    <line class="cls-3" x1="136.88" y1="735.9" x2="177.23" y2="735.9"/>
    <path class="cls-46" d="M268.04,56.52c5.32,0,9.64,4.31,9.64,9.64v977.89c0,5.32-4.31,9.64-9.64,9.64H70.6c-5.32,0-9.64-4.31-9.64-9.64V66.15c0-5.32,4.31-9.64,9.64-9.64h197.44M268.04,30.52H70.6c-19.65,0-35.64,15.99-35.64,35.64v977.89c0,19.65,15.99,35.64,35.64,35.64h197.44c19.65,0,35.64-15.99,35.64-35.64V66.15c0-19.65-15.99-35.64-35.64-35.64h0Z"/>
    <path class="cls-45" d="M267.91,56.52c5.39,0,9.77,4.37,9.77,9.77v977.63c0,5.39-4.37,9.77-9.77,9.77H70.73c-5.39,0-9.77-4.37-9.77-9.77V66.28c0-5.39,4.37-9.77,9.77-9.77h197.18M267.91,34.52H70.73c-17.52,0-31.77,14.25-31.77,31.77v977.63c0,17.52,14.25,31.77,31.77,31.77h197.18c17.52,0,31.77-14.25,31.77-31.77V66.28c0-17.52-14.25-31.77-31.77-31.77h0Z"/>
    <rect class="cls-26" x="53.69" y="49.19" width="231.23" height="1011.68" rx="16.65" ry="16.65"/>
    <path class="cls-48" d="M268.3,61.52c2.41,0,4.38,1.96,4.38,4.38v978.4c0,2.41-1.96,4.38-4.38,4.38H70.35c-2.41,0-4.38-1.96-4.38-4.38V65.9c0-2.41,1.96-4.38,4.38-4.38h197.95M268.3,56.52H70.35c-5.18,0-9.38,4.2-9.38,9.38v978.4c0,5.18,4.2,9.38,9.38,9.38h197.95c5.18,0,9.38-4.2,9.38-9.38V65.9c0-5.18-4.2-9.38-9.38-9.38h0Z"/>
    <path class="cls-23" d="M268.77,1074.39H69.88c-16.36,0-29.62-13.26-29.62-29.62"/>
    <path class="cls-23" d="M69.88,35.81h198.89c16.36,0,29.62,13.26,29.62,29.62"/>
    <path class="cls-23" d="M298.39,1044.77c0,16.36-13.26,29.62-29.62,29.62H69.88"/>
    <line class="cls-42" x1="80.53" y1="502.61" x2="258.6" y2="502.61"/>
    <line class="cls-3" x1="80.53" y1="502.61" x2="258.6" y2="502.61"/>
    <line class="cls-42" x1="80.53" y1="274.39" x2="258.6" y2="274.39"/>
    <line class="cls-3" x1="80.53" y1="274.39" x2="258.6" y2="274.39"/>
  </g>
</svg>