<?xml version="1.0" encoding="UTF-8"?>
<svg xmlns="http://www.w3.org/2000/svg" viewBox="0 0 1921 1081">
  <defs>
    <style>
      .cls-1 {
        fill: none;
        stroke: #b57f68;
        stroke-width: 4px;
      }

      .cls-1, .cls-2, .cls-3, .cls-4, .cls-5, .cls-6, .cls-7, .cls-8, .cls-9 {
        stroke-linecap: round;
        stroke-linejoin: round;
      }

      .cls-2, .cls-3, .cls-4, .cls-5, .cls-6, .cls-9 {
        stroke-width: 5px;
      }

      .cls-2, .cls-3, .cls-5 {
        stroke: #42210b;
      }

      .cls-2, .cls-4, .cls-10 {
        fill: #8c6239;
      }

      .cls-3, .cls-11 {
        fill: #603813;
      }

      .cls-4, .cls-6, .cls-9 {
        stroke: #8c6239;
      }

      .cls-5 {
        fill: #573716;
      }

      .cls-6, .cls-12 {
        fill: #754c24;
      }

      .cls-13, .cls-9 {
        fill: #a67c52;
      }

      .cls-7 {
        fill: #ce9867;
      }

      .cls-7, .cls-8 {
        stroke: #000;
      }

      .cls-8 {
        fill: #f4b06c;
      }
    </style>
  </defs>
  <g id="okno">
    <path class="cls-8" d="M.5.5v1080h1920V.5H.5ZM1839.63,674.38c0,42.91-35.04,77.69-78.27,77.69H432.66c-43.23,0-78.27-34.78-78.27-77.69V154.19c0-42.91,35.04-77.69,78.27-77.69h1328.7c43.23,0,78.27,34.78,78.27,77.69v520.19Z"/>
    <rect class="cls-8" x="279.34" y="778.5" width="1641.16" height="302"/>
    <path class="cls-7" d="M1777.8,63.34H422.04c-44.11,0-79.86,35.76-79.86,79.86v534.73c0,44.11,35.76,79.86,79.86,79.86h1355.76c44.11,0,79.86-35.76,79.86-79.86V143.2c0-44.11-35.76-79.86-79.86-79.86ZM1794.82,666.05c0,15.96-12.94,28.9-28.9,28.9H433.92c-15.96,0-28.9-12.94-28.9-28.9V155.08c0-15.96,12.94-28.9,28.9-28.9h1332c15.96,0,28.9,12.94,28.9,28.9v510.97Z"/>
  </g>
  <g id="police">
    <rect class="cls-12" x="41.92" y="41.92" width="216.71" height="997.16"/>
    <rect class="cls-3" x="71.96" y="151.04" width="156.63" height="720.71"/>
    <polygon class="cls-6" points="247.92 477.66 228.59 469.32 150.27 469.32 71.96 469.32 52.63 477.66 247.92 477.66"/>
    <polygon class="cls-3" points="247.92 270.15 228.59 302.89 150.27 302.89 71.96 302.89 52.63 270.15 247.92 270.15"/>
    <polyline class="cls-5" points="41.92 41.92 71.96 151.04 150.27 151.04 228.59 151.04 258.63 41.92"/>
    <polygon class="cls-4" points="247.92 705.89 228.59 652.37 150.27 652.37 71.96 652.37 52.63 705.89 247.92 705.89"/>
    <polygon class="cls-2" points="258.63 1039.08 228.59 871.75 150.27 871.75 71.96 871.75 41.92 1039.08 258.63 1039.08"/>
    <rect class="cls-9" x="52.63" y="477.66" width="195.29" height="20.71"/>
    <rect class="cls-9" x="52.63" y="249.44" width="195.29" height="20.71"/>
    <rect class="cls-9" x="52.63" y="705.89" width="195.29" height="83.55"/>
    <path class="cls-10" d="M248.99,41.92c5.32,0,9.64,4.31,9.64,9.64v977.89c0,5.32-4.31,9.64-9.64,9.64H51.56c-5.32,0-9.64-4.31-9.64-9.64V51.56c0-5.32,4.31-9.64,9.64-9.64h197.44M248.99,15.92H51.56c-19.65,0-35.64,15.99-35.64,35.64v977.89c0,19.65,15.99,35.64,35.64,35.64h197.44c19.65,0,35.64-15.99,35.64-35.64V51.56c0-19.65-15.99-35.64-35.64-35.64h0Z"/>
    <path class="cls-13" d="M248.86,41.92c5.39,0,9.77,4.37,9.77,9.77v977.63c0,5.39-4.37,9.77-9.77,9.77H51.69c-5.39,0-9.77-4.37-9.77-9.77V51.69c0-5.39,4.37-9.77,9.77-9.77h197.18M248.86,19.92H51.69c-17.52,0-31.77,14.25-31.77,31.77v977.63c0,17.52,14.25,31.77,31.77,31.77h197.18c17.52,0,31.77-14.25,31.77-31.77V51.69c0-17.52-14.25-31.77-31.77-31.77h0Z"/>
    <path class="cls-11" d="M249.25,46.92c2.41,0,4.38,1.96,4.38,4.38v978.4c0,2.41-1.96,4.38-4.38,4.38H51.3c-2.41,0-4.38-1.96-4.38-4.38V51.3c0-2.41,1.96-4.38,4.38-4.38h197.95M249.25,41.92H51.3c-5.18,0-9.38,4.2-9.38,9.38v978.4c0,5.18,4.2,9.38,9.38,9.38h197.95c5.18,0,9.38-4.2,9.38-9.38V51.3c0-5.18-4.2-9.38-9.38-9.38h0Z"/>
    <path class="cls-1" d="M249.72,1059.79H50.83c-16.36,0-29.62-13.26-29.62-29.62"/>
    <path class="cls-1" d="M50.83,21.21h198.89c16.36,0,29.62,13.26,29.62,29.62"/>
    <path class="cls-1" d="M279.34,1030.17c0,16.36-13.26,29.62-29.62,29.62H50.83"/>
  </g>
</svg>