<?xml version="1.0" encoding="UTF-8"?>
<svg id="Vrstva_1" data-name="Vrstva 1" xmlns="http://www.w3.org/2000/svg" viewBox="0 0 494.33 335.38">
  <defs>
    <style>
      .cls-1 {
        fill: #fff;
      }

      .cls-2 {
        stroke: #ccc;
      }

      .cls-2, .cls-3 {
        fill: none;
        stroke-linecap: round;
        stroke-linejoin: round;
        stroke-width: 12px;
      }

      .cls-4 {
        fill: #f9f9f9;
      }

      .cls-3 {
        stroke: #e6e6e6;
      }
    </style>
  </defs>
  <g>
    <path class="cls-1" d="M6,332.38c-.78,0-1.55-.3-2.12-.88-.88-.88-1.13-2.22-.61-3.36l63.83-140.68c.41-.9,1.23-1.54,2.2-1.71.18-.03.36-.05.54-.05.79,0,1.55.31,2.12.88l76.85,76.85c.7.7,1.01,1.69.83,2.66s-.82,1.79-1.71,2.2L7.24,332.12c-.4.18-.82.27-1.24.27Z"/>
    <path d="M69.83,188.7l76.85,76.85L6,329.38l63.83-140.68M69.83,182.7c-.36,0-.72.03-1.07.1-1.94.35-3.58,1.63-4.39,3.42L.54,326.9c-1.03,2.28-.55,4.95,1.22,6.72,1.15,1.15,2.69,1.76,4.24,1.76.84,0,1.68-.18,2.48-.54l140.68-63.83c1.79-.81,3.07-2.45,3.42-4.39.35-1.94-.27-3.92-1.66-5.32l-76.85-76.85c-1.14-1.14-2.67-1.76-4.24-1.76h0Z"/>
  </g>
  <path class="cls-4" d="M74.96,214.23l46.19,46.19-84.42,38.22,38.23-84.42M70.24,188.3L6.64,328.74l140.44-63.59-76.85-76.85h0Z"/>
  <g>
    <path class="cls-1" d="M154.75,3h237.13c54.89,0,99.45,44.56,99.45,99.45v77.79c0,54.89-44.56,99.45-99.45,99.45h-237.13c-54.89,0-99.45-44.56-99.45-99.45v-77.79C55.29,47.56,99.86,3,154.75,3Z"/>
    <path d="M391.88,6c53.27,0,96.45,43.18,96.45,96.45v77.79c0,53.27-43.18,96.45-96.45,96.45h-237.13c-53.27,0-96.45-43.18-96.45-96.45v-77.79c0-53.27,43.18-96.45,96.45-96.45h237.13M391.88,0h-237.13C98.25,0,52.29,45.96,52.29,102.45v77.79c0,56.49,45.96,102.45,102.45,102.45h237.13c56.49,0,102.45-45.96,102.45-102.45v-77.79c0-56.49-45.96-102.45-102.45-102.45h0Z"/>
  </g>
  <path class="cls-4" d="M391.88,49.29c29.47,0,53.45,23.98,53.45,53.45v77.79c0,29.47-23.98,53.45-53.45,53.45h-237.13c-29.47,0-53.45-23.98-53.45-53.45v-77.79c0-29.47,23.98-53.45,53.45-53.45h237.13M391.88,6.29h-237.13c-53.27,0-96.45,43.18-96.45,96.45v77.79c0,53.27,43.18,96.45,96.45,96.45h237.13c53.27,0,96.45-43.18,96.45-96.45v-77.79c0-53.27-43.18-96.45-96.45-96.45h0Z"/>
  <path class="cls-3" d="M108.42,69.4c-6.73,8.26-12.01,17.74-15.46,28.07-2.95,8.85-4.55,18.32-4.55,28.17"/>
  <path class="cls-3" d="M369.4,36.59h-26.53s-65.28,0-65.28,0"/>
  <path class="cls-3" d="M452.85,94.51c-3.61-9.69-8.87-18.58-15.42-26.33"/>
  <path class="cls-3" d="M369.4,246.06c20.79,0,39.91-7.12,55.06-19.06s25.19-27,30.44-45.03c2.31-7.92,3.55-16.3,3.55-24.96"/>
  <line class="cls-3" x1="222.68" y1="246.06" x2="269.28" y2="246.06"/>
  <path class="cls-3" d="M90.13,174.48c2.26,11.36,6.68,21.94,12.81,31.29,11.2,17.09,28.12,30.09,48.04,36.28"/>
  <path class="cls-2" d="M208.21,17.83h-32.47c-23.49,0-45.19,7.73-62.75,20.8"/>
  <path class="cls-2" d="M448.15,51.6c-14.22-15.31-32.86-26.39-53.86-31.16-7.51-1.71-15.32-2.61-23.34-2.61h-30.59"/>
  <path class="cls-2" d="M342.87,265.44h28.08c11.36,0,22.29-1.81,32.55-5.15,14.01-4.57,26.74-12,37.52-21.62,11.94-10.66,21.48-24,27.68-39.09,5.18-12.6,8.05-26.42,8.05-40.91v-17.03"/>
  <path class="cls-2" d="M175.74,265.44h23.7"/>
  <path class="cls-2" d="M76.87,86.53c-4.47,11.83-6.92,24.66-6.92,38.07v34.07"/>
</svg>