<?xml version="1.0" encoding="UTF-8"?>
<svg id="Vrstva_2" data-name="Vrstva 2" xmlns="http://www.w3.org/2000/svg" viewBox="0 0 403.67 514.79">
  <defs>
    <style>
      .cls-1 {
        fill: #f6f6f6;
      }

      .cls-2 {
        fill: #f2936a;
      }

      .cls-3 {
        fill: #ec6623;
      }

      .cls-4 {
        fill: #8e1821;
      }

      .cls-5 {
        fill: #ddd;
      }

      .cls-6 {
        fill: #471c0f;
      }

      .cls-7 {
        fill: #bf1823;
      }

      .cls-8 {
        fill: #cf1729;
      }

      .cls-9 {
        fill: #ab1920;
      }

      .cls-10 {
        fill: #360e13;
      }
    </style>
  </defs>
  <g>
    <path class="cls-9" d="M2,513.79c-.55,0-1-.45-1-1v-3.63c0-9.77,7.5-17.92,17.06-18.54l138.35-9.03c4.49-.29,7.99-3.98,8.14-8.58l3.71-102.46c.73-22.42,19.22-40.67,41.23-40.67.55,0,1,.45,1,1v181.92c0,.55-.45,1-1,1H2Z"/>
    <path d="M209.49,330.88v181.92H2v-3.63c0-9.27,7.06-16.95,16.13-17.54l138.35-9.03c4.98-.33,8.91-4.46,9.08-9.55l3.71-102.46c.71-21.84,18.81-39.7,40.23-39.7h0M209.49,328.88c-22.54,0-41.48,18.68-42.23,41.64l-3.71,102.45c-.13,4.09-3.23,7.37-7.21,7.62l-138.35,9.03c-10.09.66-18,9.24-18,19.54v3.63c0,1.1.9,2,2,2h207.49c1.1,0,2-.9,2-2v-181.92c0-1.1-.9-2-2-2h0Z"/>
  </g>
  <path d="M375.75,170.14c5.66,0,10.26,4.6,10.26,10.28v38.96h2.02c7.53,0,13.64,6.12,13.64,13.68v94.97c0,11.62-6.3,21.76-15.66,27.19v51.5c.83,19.84-6.81,38.49-20.59,51.42v25h6.3c16.33,0,29.57,13.28,29.57,29.65h-88.5l.24-29.65h-44.51.02c16.33,0,29.57,13.28,29.57,29.65h-88.5v-29.65h-.19c-5.96,0-10.79-4.84-10.79-10.82v-164.38c0-61.37,49.62-137.81,110.83-137.81h66.29M375.75,168.14h-66.29c-15.03,0-29.89,4.44-44.18,13.2-13.12,8.04-25.16,19.31-35.78,33.49-20.58,27.47-32.86,62.28-32.86,93.11v164.38c0,6.45,4.78,11.8,10.98,12.69v27.78c0,1.1.9,2,2,2h88.5c1.1,0,2-.9,2-2,0-11.87-6.55-22.24-16.22-27.65h27.12l-.22,27.64c0,.53.2,1.05.58,1.42.38.38.89.59,1.42.59h88.5c1.1,0,2-.9,2-2,0-17.45-14.16-31.65-31.57-31.65h-4.3v-22.14c13.92-13.41,21.41-32.43,20.59-52.32v-50.33c9.69-6.09,15.66-16.83,15.66-28.32v-94.97c0-8.64-7.02-15.68-15.64-15.68h-.02v-36.96c0-6.77-5.5-12.28-12.26-12.28h0Z"/>
  <path class="cls-7" d="M401.67,512.79c0-16.38-13.28-29.65-29.65-29.65h-6.32v-25c12.65-14.09,20.64-32.6,20.64-51.42v-226.3c0-5.68-4.6-10.28-10.28-10.28h-66.46c-61.37,0-111.12,76.44-111.12,137.81v164.38c0,5.97,4.84,10.82,10.82,10.82h.19v29.65h88.74c0-16.38-13.28-29.65-29.65-29.65h-.02s44.62,0,44.62,0l-.24,29.65h88.74Z"/>
  <path class="cls-3" d="M336.71,260.46h-1.39c-61.37,0-74.3,42.61-74.3,89.88v132.8h52.45c36.28,0,72.87-36.82,72.87-70.71v-105.61c0-25.6-22.22-46.36-49.63-46.36Z"/>
  <path class="cls-3" d="M338.74,91.23c-26.29,0-47.6,15-47.6,39.75v49.44c0,21.32,32.82,52.73,47.6,52.73s47.6-31.41,47.6-52.73v-49.44c0-24.75-21.31-39.75-47.6-39.75Z"/>
  <path class="cls-4" d="M370.64,328.03h31.4c0,17.34-14.06,31.4-31.4,31.4"/>
  <path class="cls-4" d="M257.99,328.03h31.4c0,17.34-14.06,31.4-31.4,31.4"/>
  <path class="cls-8" d="M261.02,219.39h14.69c7.55,0,13.68,6.13,13.68,13.68v94.97h-28.37v-108.64h0Z"/>
  <path class="cls-8" d="M373.67,219.39h14.69c7.55,0,13.68,6.13,13.68,13.68v94.97h-28.37v-108.64h0Z"/>
  <path class="cls-4" d="M372.02,512.79v-29.65c16.38,0,29.65,13.28,29.65,29.65"/>
  <path class="cls-4" d="M268.57,512.69v-29.55c16.32,0,29.55,13.23,29.55,29.55"/>
  <path class="cls-7" d="M275.92,76.98c0,20.13,10.97,31.31,24.5,31.31s24.5-11.18,24.5-31.31S313.95,2,300.42,2s-24.5,54.85-24.5,74.98Z"/>
  <path class="cls-3" d="M280.97,80.3c0,12.25,8.71,19.05,19.45,19.05s19.45-6.8,19.45-19.05-8.71-45.61-19.45-45.61-19.45,33.36-19.45,45.61Z"/>
  <path class="cls-7" d="M352.57,76.98c0,20.13,10.97,31.31,24.5,31.31s24.5-11.18,24.5-31.31S390.59,2,377.06,2s-24.5,54.85-24.5,74.98Z"/>
  <path class="cls-3" d="M357.61,80.3c0,12.25,8.71,19.05,19.45,19.05s19.45-6.8,19.45-19.05-8.71-45.61-19.45-45.61-19.45,33.36-19.45,45.61Z"/>
  <circle class="cls-2" cx="338.74" cy="209.67" r="24.26"/>
  <path d="M377.06,2c13.53,0,24.5,54.85,24.5,74.98s-10.07,30.35-22.81,31.25c4.8,6.15,7.59,13.81,7.59,22.76v49.44c0,13.83-13.8,31.89-27.53,42.88-4.36,6.41-11.72,10.63-20.06,10.63s-15.7-4.21-20.06-10.63c-13.73-10.99-27.53-29.05-27.53-42.88v-49.44c0-8.94,2.8-16.61,7.59-22.76-12.74-.89-22.81-11.96-22.81-31.25S286.89,2,300.42,2s24.5,54.85,24.5,74.98c0,6.45-1.13,11.98-3.11,16.52,5.26-1.48,10.97-2.27,16.93-2.27s11.67.78,16.93,2.27c-1.98-4.54-3.11-10.07-3.11-16.52,0-20.13,10.97-74.98,24.5-74.98M377.06,0c-7.08,0-13.56,10.57-19.25,31.41-4.2,15.37-7.25,34.53-7.25,45.56,0,4.98.65,9.56,1.92,13.67-4.4-.94-9.01-1.42-13.75-1.42s-9.35.48-13.75,1.42c1.28-4.11,1.92-8.7,1.92-13.67,0-11.03-3.05-30.2-7.25-45.56-5.69-20.84-12.17-31.41-19.25-31.41s-13.56,10.57-19.25,31.41c-4.2,15.37-7.25,34.53-7.25,45.56,0,9.6,2.44,17.81,7.05,23.75,3.65,4.7,8.62,7.83,14.23,9.02-4.02,6.21-6.06,13.34-6.06,21.24v49.44c0,14.89,14.5,33.33,28.05,44.25,4.92,7.05,12.95,11.25,21.55,11.25s16.63-4.2,21.55-11.25c13.56-10.93,28.05-29.36,28.05-44.26v-49.44c0-7.9-2.04-15.03-6.06-21.24,5.61-1.19,10.57-4.32,14.23-9.02,4.61-5.93,7.05-14.15,7.05-23.75,0-11.03-3.05-30.2-7.25-45.56-5.69-20.84-12.17-31.41-19.25-31.41h0Z"/>
  <path class="cls-4" d="M320.47,209.67c0-10.09,8.18-18.27,18.27-18.27s18.27,8.18,18.27,18.27"/>
  <path class="cls-10" d="M357.01,209.67c0,10.09-8.18,18.27-18.27,18.27s-18.27-8.18-18.27-18.27"/>
  <circle class="cls-5" cx="311.9" cy="146.85" r="15.87"/>
  <circle class="cls-5" cx="365.58" cy="146.85" r="15.87"/>
  <circle class="cls-6" cx="310.43" cy="148.42" r="13.72"/>
  <circle class="cls-6" cx="364.24" cy="148.53" r="13.72"/>
  <circle cx="310.43" cy="148.42" r="3.84"/>
  <circle cx="364.24" cy="148.42" r="3.84"/>
  <circle class="cls-1" cx="318.2" cy="139.48" r="5.27"/>
  <circle class="cls-1" cx="371.79" cy="139.48" r="5.27"/>
  <path class="cls-3" d="M386.34,137.55l-48.81-2.74-46.39,2.74s21.31-17.73,47.6-17.73,47.6,17.73,47.6,17.73Z"/>
</svg>