<?xml version="1.0" encoding="UTF-8"?>
<svg id="Vrstva_2" data-name="Vrstva 2" xmlns="http://www.w3.org/2000/svg" viewBox="0 0 301.73 387.82">
  <defs>
    <style>
      .cls-1 {
        fill: #f7a544;
      }

      .cls-2 {
        fill: #f6f6f6;
      }

      .cls-3 {
        fill: #1d1d1b;
      }

      .cls-4 {
        fill: #717070;
      }

      .cls-5 {
        fill: #ddd;
      }

      .cls-6 {
        fill: #3c3c3b;
      }

      .cls-7 {
        fill: #471c0f;
      }

      .cls-8 {
        fill: #999;
      }

      .cls-9 {
        fill: #c67f2f;
      }

      .cls-10 {
        fill: #f9bb63;
      }

      .cls-11 {
        fill: #db9728;
      }

      .cls-12 {
        fill: #d88e35;
      }

      .cls-13 {
        fill: #b7b7b7;
      }
    </style>
  </defs>
  <path class="cls-9" d="M44.71,116.03c-21.86,0-39.58,15.27-39.58,34.12v223.09s-2.7,3.5-3.03,4.9c-.44,1.88.71,7.68.71,7.68h64.39s1.11-5.41.71-7.17c-.34-1.47-3.16-5.16-3.16-5.16v-100.85h170.32l16.26-22.52V116.03H44.71Z"/>
  <path class="cls-12" d="M266.32,84.74H48.97s-13.26,132.82,0,187.9c2.57,10.7,16.74,28.69,20.02,39.19,7.49,23.98,13.33,73.99,13.33,73.99h71.32l.79-7.23-10.91-7.31,12.38-88.21,2.42-.8,17.29,103.56h71.32l.79-7.23-10.91-7.31,13.51-98.64h-62.94l78.94-26.13V84.74Z"/>
  <path class="cls-1" d="M267.29,84.74H69.32s-13.26,132.82,0,187.9c2.57,10.7,16.74,28.69,20.02,39.19,7.49,23.98,13.33,73.99,13.33,73.99h51.94s1.55-5.58.79-7.23c-1.39-2.98-10.91-7.31-10.91-7.31l12.38-88.21,21.8-.8,17.29,103.56h51.94s1.55-5.58.79-7.23c-1.39-2.98-10.91-7.31-10.91-7.31l13.51-98.64h-62.94l78.94-26.13V84.74Z"/>
  <path class="cls-3" d="M267.29,84.74v161.77l-17.56,5.81-14.66,20.31h16.23l-13.51,98.64s9.53,4.33,10.91,7.31c.77,1.65-.79,7.23-.79,7.23h-72.29l-17.19-102.81-1.55.06-12.38,88.21s9.53,4.33,10.91,7.31c.77,1.65-.79,7.23-.79,7.23h-72.29s-5.85-50.01-13.33-73.99c-.83-2.67-2.37-5.83-4.25-9.22v70.88s2.82,3.69,3.16,5.16c.4,1.75-.71,7.17-.71,7.17H2.81s-1.15-5.81-.71-7.68c.33-1.4,3.03-4.9,3.03-4.9v-223.09c0-18.84,17.72-34.12,39.58-34.12h2.17c1.14-19.02,2.08-31.29,2.08-31.29h218.33M267.29,82.74H48.97c-1.04,0-1.91.8-1.99,1.85,0,.12-.9,11.68-1.97,29.44h-.29c-22.93,0-41.58,16.2-41.58,36.12v222.41c-1.01,1.35-2.64,3.69-2.98,5.12-.5,2.13.41,7.07.69,8.53.19.94,1.01,1.61,1.96,1.61h64.39c.95,0,1.77-.67,1.96-1.6.28-1.37,1.16-5.99.7-8.02-.34-1.49-2.06-3.97-3.11-5.38v-61.39c.12.35.24.68.34,1,7.35,23.52,13.2,73.12,13.26,73.62.12,1.01.97,1.77,1.99,1.77h72.29c.9,0,1.69-.6,1.93-1.46.65-2.35,1.61-6.59.67-8.61-1.35-2.89-7.33-6.1-10.54-7.65l11.08-78.94,15.89,94.99c.16.96,1,1.67,1.97,1.67h72.29c.9,0,1.69-.6,1.93-1.46.65-2.35,1.61-6.59.67-8.61-1.35-2.89-7.34-6.1-10.54-7.65l13.32-97.18c.08-.57-.09-1.15-.47-1.59-.38-.44-.93-.69-1.51-.69h-12.32l12-16.62,16.95-5.61c.82-.27,1.37-1.04,1.37-1.9V84.74c0-1.1-.9-2-2-2h0Z"/>
  <path class="cls-11" d="M283.89,265.13l-129.46,85.71s-21.34-88.78-32.86-116.85c-17.2-41.9-85.65-74.58-87.63-119.83-1.16-26.5,42.98-96.99,42.98-96.99l111.33-12.37v84.98l95.64,24.95v150.39Z"/>
  <path class="cls-10" d="M283.89,265.13c-19.27,33.69-129.46,85.71-129.46,85.71l75.13-87.95-27.8,3.56s-9.8-21.13-18.88-38.93c-17.71-34.7-98-79.82-101-118.67-1.86-24.02,50.44-82.13,50.44-82.13l-55.41-9.55S175.46-1.5,208.24,2.59c15.95,1.99,49.31,10.76,60.2,22.58,15.77,17.12,22.85,66.44,25.46,89.57,5.29,47.05,13.49,109.29-10.01,150.39Z"/>
  <path class="cls-3" d="M196.77,2c4.36,0,8.24.18,11.47.59,15.95,1.99,49.31,10.76,60.2,22.58,15.77,17.12,22.85,66.44,25.46,89.57,5.29,47.05,13.49,109.29-10.01,150.39-19.27,33.69-129.46,85.71-129.46,85.71,0,0-21.34-88.78-32.86-116.85-17.2-41.9-85.65-74.58-87.63-119.83-1.16-26.5,42.98-96.99,42.98-96.99,0,0,80.06-15.17,119.86-15.17M196.77,0c-39.53,0-119.43,15.06-120.23,15.21-.55.1-1.03.43-1.32.9-1.82,2.9-44.46,71.33-43.28,98.14,1.16,26.44,24.25,48.65,46.58,70.13,16.67,16.03,33.9,32.6,41.19,50.38,11.33,27.61,32.56,115.67,32.77,116.56.14.59.54,1.08,1.08,1.34.27.13.57.2.86.2s.58-.06.85-.19c4.52-2.13,110.99-52.67,130.34-86.52,22.91-40.07,16.25-98.84,10.89-146.05-.21-1.87-.42-3.73-.63-5.55-2.99-26.59-10.34-73.74-25.97-90.7-11.44-12.42-45.65-21.24-61.43-23.21-3.2-.4-7.14-.6-11.72-.6h0Z"/>
  <g>
    <path class="cls-5" d="M176.98,163.79c-.42,0-.79-.26-.94-.65l-30.08-80.57c-.08-.2-.08-.43-.02-.64l12.63-42c.13-.42.52-.71.96-.71h75.63c.36,0,.7.2.87.51l21.47,38.49c.08.15.13.32.13.49v84.08c0,.55-.45,1-1,1h-79.65Z"/>
    <path class="cls-3" d="M235.16,40.22l21.47,38.49v84.08h-79.65l-30.08-80.57,12.63-42h75.63M235.16,38.22h-75.63c-.88,0-1.66.58-1.92,1.42l-12.63,42c-.13.42-.11.87.04,1.28l30.08,80.57c.29.78,1.04,1.3,1.87,1.3h79.65c1.1,0,2-.9,2-2v-84.08c0-.34-.09-.68-.25-.97l-21.47-38.49c-.35-.63-1.02-1.03-1.75-1.03h0Z"/>
  </g>
  <path class="cls-13" d="M176.98,162.79h79.65s-7.41-46.26-19.23-54.63c-10.72-7.59-42.63-8.61-52.57,0-10.43,9.04-7.86,54.63-7.86,54.63Z"/>
  <polyline class="cls-8" points="176.98 162.79 256.63 162.79 216.81 129.09"/>
  <polygon class="cls-4" points="176.98 162.79 256.63 162.79 229.02 139.42 204.49 139.51 176.98 162.79"/>
  <polyline class="cls-6" points="225.34 121.87 208.27 121.87 216.81 129.09"/>
  <circle class="cls-2" cx="177.64" cy="68.87" r="15.87"/>
  <circle class="cls-2" cx="231.31" cy="68.87" r="15.87"/>
  <circle class="cls-7" cx="175.35" cy="68.76" r="13.72"/>
  <circle class="cls-7" cx="229.16" cy="68.87" r="13.72"/>
  <circle cx="175.35" cy="68.76" r="3.84"/>
  <circle cx="229.16" cy="68.76" r="3.84"/>
  <polygon class="cls-5" points="249.91 68.23 158.9 68.23 158.9 53 241.3 53 249.91 68.23"/>
</svg>