<?xml version="1.0" encoding="UTF-8"?>
<svg id="Vrstva_1" data-name="Vrstva 1" xmlns="http://www.w3.org/2000/svg" viewBox="0 0 802.22 257.94">
  <defs>
    <style>
      .cls-1 {
        fill: none;
        stroke: #af7146;
        stroke-width: 7px;
      }

      .cls-1, .cls-2 {
        stroke-linecap: round;
        stroke-linejoin: round;
      }

      .cls-2 {
        fill: #8c8c8c;
        stroke: #474747;
        stroke-width: 25px;
      }

      .cls-3 {
        letter-spacing: -.06em;
      }

      .cls-4 {
        fill: #563e31;
        stroke: #422e26;
        stroke-width: 4px;
      }

      .cls-4, .cls-5, .cls-6, .cls-7 {
        stroke-miterlimit: 10;
      }

      .cls-5 {
        fill: #9b643e;
        stroke: #4c2c15;
        stroke-width: 5px;
      }

      .cls-8 {
        letter-spacing: -.05em;
      }

      .cls-6 {
        fill: #efd8c5;
        stroke: #f5661d;
        stroke-width: 3px;
      }

      .cls-6, .cls-7 {
        font-family: Chaloops-Medium, Chaloops;
        font-size: 100px;
        font-weight: 500;
      }

      .cls-9 {
        fill: #a07050;
      }

      .cls-7 {
        fill: #c64f1a;
        stroke: #c64f1a;
        stroke-width: 2px;
      }

      .cls-10 {
        letter-spacing: -.04em;
      }

      .cls-11 {
        letter-spacing: -.03em;
      }
    </style>
  </defs>
  <line class="cls-2" x1="262.08" y1="50.1" x2="416.22" y2="50.1"/>
  <rect class="cls-4" x="2" y="5.69" width="792.43" height="247.54" rx="8.45" ry="8.45"/>
  <rect class="cls-9" x="7.29" y=".71" width="792.43" height="247.54" rx="8.45" ry="8.45"/>
  <rect class="cls-5" x="7.29" y="2.5" width="792.43" height="245.21" rx="7.81" ry="7.81"/>
  <path class="cls-1" d="M780.49,234.4H22.32"/>
  <path class="cls-1" d="M31.93,16.08h745.56c12.89,0,14.18,4.95,14.18,22.26"/>
  <text class="cls-7" transform="translate(103.41 160.76)"><tspan x="0" y="0">RES</tspan><tspan class="cls-10" x="153" y="0">T</tspan><tspan x="209.8" y="0">A</tspan><tspan class="cls-8" x="265.8" y="0">R</tspan><tspan x="313.8" y="0">TO</tspan><tspan class="cls-11" x="446.2" y="0">V</tspan><tspan class="cls-3" x="499.5" y="0">A</tspan><tspan x="549.4" y="0">T</tspan></text>
  <text class="cls-6" transform="translate(105.88 156.52)"><tspan x="0" y="0">RES</tspan><tspan class="cls-10" x="153" y="0">T</tspan><tspan x="209.8" y="0">A</tspan><tspan class="cls-8" x="265.8" y="0">R</tspan><tspan x="313.8" y="0">TO</tspan><tspan class="cls-11" x="446.2" y="0">V</tspan><tspan class="cls-3" x="499.5" y="0">A</tspan><tspan x="549.4" y="0">T</tspan></text>
</svg>