<?xml version="1.0" encoding="UTF-8"?>
<svg id="Vrstva_2" data-name="Vrstva 2" xmlns="http://www.w3.org/2000/svg" xmlns:xlink="http://www.w3.org/1999/xlink" viewBox="0 0 892.86 638.56">
  <defs>
    <style>
      .cls-1 {
        fill: #2e333d;
      }

      .cls-1, .cls-2, .cls-3, .cls-4, .cls-5, .cls-6, .cls-7, .cls-8 {
        stroke-linecap: round;
        stroke-linejoin: round;
      }

      .cls-1, .cls-2, .cls-6, .cls-7, .cls-8 {
        stroke-width: 3px;
      }

      .cls-1, .cls-6 {
        stroke: #d0d5dd;
      }

      .cls-9 {
        fill: #221f2c;
      }

      .cls-2 {
        stroke: #111119;
      }

      .cls-2, .cls-3, .cls-4, .cls-5, .cls-7, .cls-8 {
        fill: none;
      }

      .cls-3 {
        stroke-width: 7px;
      }

      .cls-3, .cls-4, .cls-10, .cls-8 {
        stroke: #171b23;
      }

      .cls-4 {
        stroke-width: 5px;
      }

      .cls-5 {
        stroke: #8b8c8e;
        stroke-width: 2px;
      }

      .cls-11 {
        fill: #090403;
      }

      .cls-10 {
        fill: #020202;
        stroke-miterlimit: 10;
        stroke-width: 4px;
      }

      .cls-12 {
        fill: url(#Nepojmenovaný_přechod_33);
      }

      .cls-6 {
        fill: #13161d;
      }

      .cls-7 {
        stroke: #8f939b;
      }

      .cls-13 {
        fill: url(#Nepojmenovaný_přechod_57);
      }

      .cls-14 {
        fill: #3d3d4c;
      }
    </style>
    <radialGradient id="Nepojmenovaný_přechod_57" data-name="Nepojmenovaný přechod 57" cx="-138.23" cy="-467.55" fx="-138.23" fy="-467.55" r="1143.79" gradientUnits="userSpaceOnUse">
      <stop offset=".75" stop-color="#b99c89"/>
      <stop offset=".86" stop-color="#d5dcd6"/>
      <stop offset=".88" stop-color="#d0d8d2"/>
      <stop offset=".91" stop-color="#c1ccc9"/>
      <stop offset=".94" stop-color="#a9b9ba"/>
      <stop offset=".97" stop-color="#889fa5"/>
      <stop offset="1" stop-color="#5e7d8a"/>
      <stop offset="1" stop-color="#5b7b88"/>
    </radialGradient>
    <radialGradient id="Nepojmenovaný_přechod_33" data-name="Nepojmenovaný přechod 33" cx="647.16" cy="899.06" fx="647.16" fy="899.06" r="764.7" gradientUnits="userSpaceOnUse">
      <stop offset=".6" stop-color="#414c5f"/>
      <stop offset=".78" stop-color="#3f4a5d"/>
      <stop offset=".85" stop-color="#3a4356"/>
      <stop offset=".89" stop-color="#30394a"/>
      <stop offset=".93" stop-color="#232939"/>
      <stop offset=".94" stop-color="#202535"/>
      <stop offset=".94" stop-color="#222939"/>
      <stop offset=".95" stop-color="#35485b"/>
      <stop offset=".96" stop-color="#446176"/>
      <stop offset=".97" stop-color="#4f7389"/>
      <stop offset=".99" stop-color="#557d94"/>
      <stop offset="1" stop-color="#588198"/>
    </radialGradient>
  </defs>
  <path class="cls-9" d="M773.42,238.84c43.58-16.59,86.11,10.13,107.12,10.01,4.36-.03,10.76-3.58,11.93-7.88,4.49-16.49-31.06-41.26-46.19-48.25-5.59-2.58-18.46-3.92-23.52-7.44-4.79-3.33-14.12-31.9-14.96-43.07-.96-12.69,4.87-26.35,6.1-40.55,1.49-17.35,4.25-23.47-1.92-69.24-2.54-18.82-2.42-34.72-14.69-32.13-24.49,5.16-30.68,54.7-32.33,74.87-1.75,21.39-2.73,39.06-30.27,75.38-33.23,43.82,3.19,101.84,38.73,88.31Z"/>
  <path class="cls-9" d="M406.64,125.93c-1.1-1.31-2.93-1.73-4.49-1.02-10.9,4.93-52.14,24.8-73.19,51.72-19.82,25.35-30.52,51.29-46.56,73.61-2.21,3.07.82,7.16,4.38,5.87,47.5-17.19,151.47-48.63,203.86-63.83,3.55-1.03,3.73-6.02.25-7.27-46.52-16.8-76.8-50.2-84.25-59.08Z"/>
  <path class="cls-9" d="M550.33,173.04c16.2-13.72,40.66-39.99,48.48-48.49,1.17-1.28,3.25-.93,3.97.64,3.64,8.03,13.8,28.72,28.17,43.65,1.46,1.52.38,4.06-1.73,4.07-22.99.16-54.22,1.65-77.06,4.36-2.38.28-3.67-2.69-1.84-4.23Z"/>
  <path class="cls-9" d="M793.08,349.35c3.38-2.36-8.47-10.73-11.56-11.95-53.1-21.06-61.43-52.7-61.43-52.7l-12.93-30.53-49.96,37.58-26.45,44.67,6.91,8.23s36.09,6.33,48.15,5.29c29.49-2.55,101.79,3.23,107.28-.59Z"/>
  <path class="cls-9" d="M405.52,502.27s54.47,45.79,74.36,58.62,41.39,13.93,54.37,9.06c6.86-2.57,17.57-12.29,20.72-18.91,4.53-9.52,2.3-23.03-5.96-41.73-3.4-7.69-25.04-31.46-37.1-36.59-19.94-8.49-85.53-8.52-85.53-8.52l-84.77-17.34-8.23,4.7,72.13,50.72Z"/>
  <path class="cls-7" d="M403.82,131.65c4.28-1.6-50.47,23.93-69.31,48.02-23.09,29.53-33.8,59.86-54.98,84.33"/>
  <path class="cls-7" d="M549,181.4c17.71-12.34,51.07-49.82,51.07-49.82"/>
  <path class="cls-7" d="M631.05,329.9l6.91,5.46s36.09,7.31,48.15,6.27c29.49-2.55,87.18,4.61,93.54,2.55"/>
  <path class="cls-7" d="M408.61,495.1c44.79,38.48,54.61,47.41,73.1,59.87s39.71,13.64,52.69,8.78"/>
  <path class="cls-7" d="M800.05,7.38c-20.4,13.4-24.88,45.06-26.38,65.23-1.6,21.41-.43,44.92-30.57,80.62-18.89,22.37,3.77,83.69,40.01,72.13,43.58-13.91,73.48,11.17,97.43,15.43"/>
  <path class="cls-13" d="M753.33,160.3c-20.18-9.64-62.41,14.82-91.45,12.29-45.95-4.01-95.46-.59-124.77,5.6-69.69,14.73-205.02,44.54-267.82,77.12C143.89,320.36,47.87,474.7,5.17,546.86c-8.52,14.4-6,30.29,3.92,37.62s37.4,6.07,37.4,6.07c0,0-21.72,14.4-24.17,24.59-3.06,12.74,33.36,23.6,46.34,23.41,54.69-.79,162.25-30.67,212.4-52.51,24.52-10.68,70.6-38.18,93.66-51.73,32.93-19.35,97.67-57.94,132.06-76.81,48.15-23.71,100.27-105.22,130.89-112.86,21.11-41.73,45.41-58.98,66.96-73.48,6.39,5.95,10.78,9.21,15.48,13.52,18.53-10.98,53.13-50.58,68.16-55.33,21.48-6.78,6.42-26.13-2.94-45.14-5.56-11.29-20.63-18.51-31.99-23.93Z"/>
  <path class="cls-12" d="M753.33,160.3c-20.18-9.64-63.26,7.69-92.3,7.85-46.12.25-96.07,4.24-125.77,8.2-68.68,9.16-203.18,46.38-265.98,78.95C143.89,320.36,47.87,474.7,5.17,546.86c-8.52,14.4-6.02,30.32,3.92,37.62,5.56,4.09,12.32,4.82,16.04,5.23-19.31-29.06,9.38-44.2,37.54-56.93,11.94-5.4,41.81-16.5,53.79-21.48,48.15-19.99,50.16-25.98,83.56-23.34,26.66,2.11,42.1-46.36,56.14-69.13,9.14,4.93,19.85-15.53,41.39-49.5,10.74,5.34,19.45-18.64,47.6-45.24,33.99-32.12,202.57-96.88,261.7-101.73,8.7-.71,90.37-11.16,111.7-16.36,20.93-5.11,26.68-13.54,39.6-22.58,5-3.49,14.75-5,14.16-7.7-1.19-5.47-7.62-10.02-18.97-15.44Z"/>
  <path class="cls-14" d="M164.5,483.3c0,2.81-.45,5.52-1.29,8.05-10.92,4.36-21.86,9.19-35.38,15.14-8.67-4.12-14.67-12.96-14.67-23.2,0-14.18,11.49-25.67,25.67-25.67s25.67,11.49,25.67,25.67Z"/>
  <path class="cls-2" d="M124.86,504.83c-6.26-4.68-12.38-13.21-12.38-21.63,0-14.18,11.49-25.67,25.67-25.67s25.67,11.49,25.67,25.67c0,1.15-.6,4.26-.75,5.37"/>
  <path class="cls-1" d="M141.14,467.09c5.77.44,10.95,3.2,14.05,7.46,1.03,1.42,1.84,3,2.36,4.72.92,3.06,1.35,9.14.44,12.13-8.39,3.64-20.22,8.69-25.2,10.79-2.03-.37-3.59-1.51-5.36-2.62"/>
  <circle class="cls-11" cx="138.14" cy="483.13" r="11.73"/>
  <path class="cls-6" d="M120.32,489.53c-1.09-6.45,1.3-12.59,5.2-16.74"/>
  <path class="cls-10" d="M154.81,544.89c-36.69,11.51-67.33,25.85-96.51,40.48-16.38.2-25.54-1.77-27.8-8.51-2.86-8.57,16.01-20.07,46.22-28.75,30.21-8.68,70.25-10.08,78.09-3.22Z"/>
  <path class="cls-8" d="M197.34,355.43c64.46-10.78,150.19,21.45,164,82.08,19.89,87.31-45.85,143.74-234.93,175.38"/>
  <path class="cls-8" d="M197.53,406.86c54.08-4.7,108.94,38.4,115.6,74.06,13.12,70.21-67.56,97.28-196.67,128.33"/>
  <path class="cls-3" d="M340.97,326.86c26.94-22.34,145.29-85.02,251.22-102.19,83.68-13.56,137.06-11.67,169.22-44.51"/>
  <path class="cls-7" d="M343.89,324.1c29.7-21.67,139.33-79.34,244.53-98.75,80.61-14.87,136.97-10.82,168.61-41.12"/>
  <path class="cls-9" d="M443.36,457.66c21.23-.6,71.18,8.45,92.95,6.8,20.9-1.58,41.06-11.26,50.86-20.45,5.18-4.86,11.36-15.94,11.93-21.5.82-8-5.65-15.22-19.15-22.73-5.55-3.09-32.93-7.18-44.84-4.69-20.9,4.37-57.86,28.54-78.1,35.69s-65.71,14.27-80.37,29.92c-3.93,4.2-3.98,13.02-2.53,14.7,7.47,8.65,15.99-16.23,69.24-17.73Z"/>
  <path class="cls-7" d="M381.56,465.1c-7.48,14.86,11.04-13.93,62.72-14.32,20.61-.16,69.3,7.92,90.41,6.72,20.26-1.15,36.89-9.12,46.87-17.36,5.29-4.38,11.23-14.1,11.67-19.64"/>
  <path class="cls-4" d="M28.9,612.89c6.03-9.43,18.7-19.86,26.69-24.49,27.83-16.1,81.17-38.29,100.03-41.8,14.58-2.71,24.34-2.86,34-2.86"/>
  <path class="cls-5" d="M23.9,615.28c2.94-9.64,22.38-25.73,30.1-30.18,25.84-14.89,78.53-37.3,98.42-42,15.77-3.72,33.86-4.53,43.11-3.65"/>
</svg>