<?xml version="1.0" encoding="UTF-8"?>
<svg id="Vrstva_2" data-name="Vrstva 2" xmlns="http://www.w3.org/2000/svg" viewBox="0 0 309.37 408.74">
  <defs>
    <style>
      .cls-1 {
        fill: #caad90;
      }

      .cls-2 {
        fill: #1d1d1b;
      }

      .cls-3 {
        fill: #9e7255;
      }

      .cls-4 {
        fill: #fff;
      }

      .cls-5 {
        fill: #2d1a1a;
      }

      .cls-6 {
        fill: #2d1b17;
      }

      .cls-7 {
        fill: #2f1a16;
      }

      .cls-8 {
        fill: #f0dec8;
      }

      .cls-9 {
        fill: #ededed;
      }

      .cls-10 {
        fill: #855b43;
      }
    </style>
  </defs>
  <g>
    <path class="cls-3" d="M1.74,407.74l.88-1.5c.24-.41,24.02-41.29,28.28-56.17,3.18-11.14,3.94-29.31,4.67-46.88.58-14.01,1.13-27.25,2.86-36.37,1.59-8.37,6.6-20.66,11.45-32.55,4.71-11.56,9.59-23.51,11.17-31.53,4.81-24.45,16.91-99.56,17.04-100.31l.14-.84h157.36l.04.96c.03.77,3.52,77.02,9.06,101.55,1.87,8.3,6.98,20.33,11.93,31.96,5.27,12.4,10.72,25.22,12.56,34.16,1.62,7.85,1.54,19.39,1.45,31.62-.09,13.11-.19,26.67,2,35.06,4.79,18.42,33.86,68.83,34.15,69.34l.87,1.5H1.74Z"/>
    <path class="cls-2" d="M234.62,102.59s3.46,76.82,9.08,101.73c3.88,17.19,20.92,48.84,24.48,66.11,3.37,16.36-.75,50.57,3.46,66.73,4.88,18.76,34.26,69.58,34.26,69.58H3.48s24.04-41.22,28.37-56.4c5.75-20.12,3.65-62.79,7.55-83.34,3.11-16.4,19.39-47.69,22.62-64.06,4.87-24.75,17.04-100.35,17.04-100.35h155.55M236.53,100.59H77.36l-.27,1.68c-.12.76-12.22,75.85-17.03,100.28-1.56,7.93-6.42,19.83-11.11,31.34-4.87,11.93-9.9,24.27-11.51,32.73-1.75,9.2-2.3,22.47-2.88,36.52-.73,17.51-1.48,35.62-4.63,46.65-4.22,14.76-27.94,55.53-28.18,55.94l-1.75,3.01h309.37l-1.73-3c-.29-.51-29.29-50.8-34.05-69.09-2.15-8.26-2.06-21.76-1.97-34.8.09-12.28.17-23.88-1.47-31.83-1.86-9.04-7.33-21.9-12.62-34.35-4.93-11.59-10.02-23.58-11.87-31.79-5.52-24.45-9-100.61-9.04-101.38l-.09-1.91h0Z"/>
  </g>
  <path class="cls-1" d="M305.9,406.83H49.29s24.04-41.22,28.37-56.4c5.75-20.12,3.65-62.79,7.55-83.34,3.11-16.4,10.75-33.36,14.64-49.59,3.64-15.22,27.37-44.57,27.37-44.57l-52.77-42.03,4.61-28.31,155.55.09s3.46,76.82,9.08,101.73c3.88,17.19,20.92,48.84,24.48,66.11,3.37,16.36-.75,50.57,3.46,66.73,4.88,18.76,34.26,69.58,34.26,69.58Z"/>
  <g>
    <path class="cls-10" d="M246.26,68.97c-8.76,0-15.88-9.22-15.88-20.55s7.12-20.55,15.88-20.55,15.88,9.22,15.88,20.55-7.12,20.55-15.88,20.55Z"/>
    <path class="cls-2" d="M246.26,28.87c8.22,0,14.88,8.75,14.88,19.55s-6.66,19.55-14.88,19.55-14.88-8.75-14.88-19.55,6.66-19.55,14.88-19.55M246.26,26.87c-9.31,0-16.88,9.67-16.88,21.55s7.57,21.55,16.88,21.55,16.88-9.67,16.88-21.55-7.57-21.55-16.88-21.55h0Z"/>
  </g>
  <path class="cls-6" d="M256.3,47.12c0,6.14-3.35,11.12-7.49,11.12-.44,0-7.49-9.01-7.49-11.12,0-6.14,3.35-11.12,7.49-11.12s7.49,4.98,7.49,11.12Z"/>
  <g>
    <path class="cls-3" d="M121.4,146.64c-.12,0-.25-.02-.37-.07-1.87-.74-45.99-18.2-53.74-31.75-5-8.75-1.06-37.16-.25-42.55-6.83-2.49-11.53-10.46-11.53-19.76,0-11.33,7.12-20.55,15.88-20.55,2.91,0,5.73,1.02,8.2,2.95,4.47-3.82,29.79-25.23,41.49-29.26,8.46-2.91,22.65-4.65,37.97-4.65s29.52,1.74,37.97,4.65c15.98,5.5,52.05,37.41,53.58,38.76.17.15.29.36.32.59.35,2.23,8.54,54.68-.12,69.82-7.75,13.55-51.87,31.01-53.74,31.75-.12.05-.24.07-.37.07h-75.29Z"/>
    <path class="cls-2" d="M159.05,2c14.37,0,28.75,1.53,37.65,4.6,15.97,5.5,53.24,38.56,53.24,38.56,0,0,8.58,54.15,0,69.16-7.67,13.4-53.24,31.31-53.24,31.31h-75.29s-45.57-17.91-53.24-31.31c-5.3-9.27,0-42.74,0-42.74-6.66-1.94-11.65-9.74-11.65-19.07,0-10.8,6.66-19.55,14.88-19.55,3.04,0,5.86,1.2,8.21,3.25,0,0,29.26-25.3,41.8-29.62,8.9-3.07,23.27-4.6,37.65-4.6M159.05,0c-15.66,0-29.61,1.72-38.3,4.71-11.41,3.93-35.39,23.97-41.2,28.92-2.49-1.75-5.28-2.67-8.16-2.67-9.31,0-16.88,9.67-16.88,21.55,0,9.37,4.62,17.47,11.43,20.4-1.09,7.4-4.5,33.69.49,42.41,7.93,13.86,52.36,31.44,54.25,32.18.23.09.48.14.73.14h75.29c.25,0,.5-.05.73-.14,1.89-.74,46.32-18.33,54.25-32.18,8.83-15.44.59-68.23.24-70.47-.07-.46-.3-.88-.65-1.18-1.53-1.36-37.75-33.39-53.92-38.96-8.68-2.99-22.64-4.71-38.3-4.71h0Z"/>
  </g>
  <circle class="cls-9" cx="125.55" cy="59.34" r="14.48"/>
  <circle class="cls-9" cx="216.17" cy="58.26" r="14.48"/>
  <circle class="cls-5" cx="123.9" cy="61.47" r="11.49"/>
  <circle class="cls-4" cx="127.87" cy="54.86" r="3.4"/>
  <circle class="cls-2" cx="123.34" cy="59.95" r="3.4"/>
  <circle class="cls-5" cx="214.28" cy="59.91" r="11.49"/>
  <circle class="cls-4" cx="219.57" cy="54.29" r="3.4"/>
  <circle class="cls-2" cx="214.28" cy="58.93" r="3.4"/>
  <path class="cls-3" d="M252.21,63.25l-86.04,12.41-86.04-12.41s38.52,41.77,86.04,41.77,86.04-41.77,86.04-41.77Z"/>
  <path class="cls-1" d="M164.12,25.07c-33.22-5.65-24.92-24.6-42.72-18.47-12.54,4.32-41.8,29.62-41.8,29.62l8.77,13.81s25.5-18.09,35.53-19.55c11.47-1.67,17.23,2.28,21.04,6.23,3.32,3.44,5.11,13.74,4.78,18.51-.75,10.69-16.38,39.62-16.38,39.62h84.95s-24.68-28.7-27.34-40.66c-.97-4.36-.07-11.45,2.77-15.08,2.07-2.65,16.61-9.14,16.61-9.14,0,0-34.44-2.88-46.22-4.89Z"/>
  <g>
    <path class="cls-8" d="M144.52,131.9c-14.1,0-25.45-6.97-28.25-17.33-1.8-6.67.04-13.87,5.17-20.27,5.06-6.31,12.73-11.11,21.62-13.5,3.94-1.06,7.93-1.6,11.86-1.6,8.57,0,16.42,2.62,21.75,7.22,4.33-4.31,10.94-6.76,18.32-6.76,5.41,0,11.04,1.3,16.29,3.76,7.5,3.52,13.52,9.05,16.95,15.56,3.48,6.6,3.9,13.43,1.18,19.23-3.54,7.53-11.78,12.03-22.04,12.03,0,0,0,0,0,0-5.42,0-11.06-1.3-16.31-3.77-5.09-2.39-9.55-5.75-12.98-9.77-5.01,6.3-12.83,11.23-21.66,13.61-3.95,1.06-7.95,1.6-11.89,1.6Z"/>
    <path class="cls-2" d="M154.91,80.19c8.79,0,16.67,2.78,21.8,7.61,4.2-4.65,10.85-7.15,18.27-7.15,5.1,0,10.57,1.18,15.86,3.67,15.1,7.09,23,22.07,17.65,33.46-3.47,7.39-11.67,11.45-21.13,11.45-5.11,0-10.59-1.19-15.89-3.68-5.56-2.61-10.13-6.3-13.44-10.48-4.66,6.37-12.38,11.69-21.89,14.25-3.95,1.06-7.87,1.57-11.63,1.57-13.31,0-24.52-6.35-27.28-16.59-3.54-13.14,8.13-27.71,26.08-32.55,3.94-1.06,7.85-1.57,11.6-1.57M154.9,78.19c-4.02,0-8.09.55-12.12,1.64-9.09,2.45-16.95,7.37-22.14,13.84-5.33,6.66-7.23,14.17-5.35,21.16,2.92,10.81,14.66,18.07,29.21,18.07,4.03,0,8.11-.55,12.15-1.64,8.6-2.32,16.27-7.01,21.42-13.03,3.41,3.73,7.7,6.86,12.53,9.14,5.38,2.53,11.17,3.87,16.74,3.87,10.66,0,19.24-4.71,22.94-12.6,5.81-12.37-2.54-28.57-18.61-36.12-5.37-2.52-11.15-3.86-16.71-3.86-7.28,0-13.86,2.32-18.37,6.42-5.48-4.39-13.27-6.88-21.7-6.88h0Z"/>
  </g>
  <path class="cls-7" d="M178.86,110.76s25.86-11.15,26.61-19.33c.5-5.48-9.88-14.37-15.14-15.97s-17.42-1.56-22.94,0-16.22,9.96-15.81,15.48c.62,8.41,27.28,19.82,27.28,19.82Z"/>
  <path d="M178.86,91.19s14.5.23,26.61.23c.5-5.48-9.88-14.37-15.14-15.97s-17.42-1.56-22.94,0-16.22,9.96-15.81,15.48c11.39,0,27.28.26,27.28.26Z"/>
  <path class="cls-6" d="M62.03,52.13c0,6.14,3.81,11.12,8.52,11.12.51,0,8.52-9.01,8.52-11.12,0-6.14-3.81-11.12-8.52-11.12s-8.52,4.98-8.52,11.12Z"/>
</svg>