<?xml version="1.0" encoding="UTF-8"?>
<svg id="Vrstva_1" data-name="Vrstva 1" xmlns="http://www.w3.org/2000/svg" viewBox="0 0 708.47 514.62">
  <defs>
    <style>
      .cls-1 {
        fill: #c9beb5;
      }

      .cls-2 {
        fill: #f1e1d4;
      }

      .cls-3 {
        fill: #e6baa5;
      }

      .cls-4 {
        fill: #ba6a5d;
        stroke: #c99e8f;
        stroke-width: 4px;
      }

      .cls-4, .cls-5, .cls-6 {
        stroke-miterlimit: 10;
      }

      .cls-7 {
        fill: #ba8e83;
      }

      .cls-7, .cls-8, .cls-9 {
        stroke: #ba8883;
        stroke-linecap: round;
        stroke-linejoin: round;
      }

      .cls-7, .cls-8, .cls-9, .cls-6 {
        stroke-width: 3px;
      }

      .cls-5 {
        fill: #c47363;
        stroke: #cca297;
        stroke-width: 7px;
      }

      .cls-8 {
        fill: #c99e8f;
      }

      .cls-9 {
        fill: #cca297;
      }

      .cls-6 {
        fill: #b56a5d;
        stroke: #ba8e83;
      }
    </style>
  </defs>
  <path class="cls-3" d="M162.83,262.23c-.27-63.91,31.05-106.05,39.51-117.22,5.54-7.33,5.25-4.81,14.01-16.69,40.55-54.95,41.29-72.25,67.31-93.8,21.23-17.59,44.45-22.71,59.09-25.94,38.93-8.59,45.45,5.07,104.13,3.81,46.54-1,60.46-9.98,85.41,1.49,14.92,6.85,14.03,11.94,37.5,27.78,30.42,20.54,42.39,19.05,65.07,32.54,9.51,5.65,52.49,33.21,64.81,77.95,11.02,40.04-1.33,73.83-6.4,92.35-10.78,39.42-53.31,92.35-104.98,118.83-123.6,63.33-279.61,64.62-337.96,20.56-59.92-45.24-87.34-85.36-87.5-121.65Z"/>
  <path class="cls-6" d="M697.91,146.8s-2.47-19.73-19.57-36.91c-35.67-35.86-40.35-38.09-81.89-56.35-6.17-2.71-25.09-16.41-54.68-39.68-18.9-14.86-34.25-11.05-104.22-10.31-46.3.49-39.51-2.83-63.19-1.84-26.55,1.11-47.78,5.45-66.36,14.75-14,7.01-14.69,4.45-35.61,28.51-18.75,21.56-43.24,70.45-47.55,78.37-1.52,2.8-4.04,8.95-7.64,15.18-3.81,6.6-5.43,10.41-6.32,12.15-8.56,16.81-21.63,51.42-12.72,86.76,5.31,21.05,15.73,34.05,30.8,52.85,13.45,16.78,31.21,38.94,63.41,54.34,7.28,3.48,36.17,13.32,73.71,16.1q25.97,1.93,59.5.8c18.83-.63,32.65-4.16,51.71-7.48,15.13-2.63,35.72-9.11,35.45-15.56-.13-3.15-5.2-5.56-12.69-8.12-25.57-8.75-45.47-7.67-65.91-8.99-30.45-1.97-45.67-2.96-53.75-11.17-14.42-14.66-1.96-33.61-19.96-55.5-7.12-8.65-9.11-5.76-22.16-18.72-14.43-14.34-25.06-24.9-25.87-40.26-.84-15.86,9.12-30.54,20.57-37.47,4.75-2.88,11.91-5.72,13.56-3.85,2.3,2.61-9.14,10.79-12.42,22.31-5.61,19.73,11.34,54.01,40.49,57.02,15.54,1.61,33.67-5.54,40.49-18.83,16.49-32.11-2.62-62.25-36.48-69.32-2.79-.58-9.38-.32-10.19-2.9-.92-2.94,5.99-7.76,9.73-9.54,15.55-7.41,45.83,4.49,61.74,25.57,15.46,20.49,4.63,32.82,18.79,76.03,8.11,24.74,12.16,37.11,23.41,46.61,31.35,26.47,87.71,8.65,115.45-.11,33.88-10.71,61.74-19.51,75-45.56,16.94-33.3-1.93-71.29-9.89-87.31-12.4-24.96-14.39-27.83-23.13-35-6.64-5.45-15.92-9.92-16.83-9.04-1.74,1.7,8.77,5.2,20.28,32.65,5.76,13.73,8.03,24.89,6.13,46.63-.74,8.53-1.93,31.47-8.87,29.5-7.42-2.1-4.07-26.57-7.46-45.41-6.96-38.67-28.92-58.09-49.59-76.7-38.97-35.07-69.33-31.92-66.99-43.03,2.19-10.35,57.19,9.07,81.93,19.91,80.92,35.43,99.77,78.92,99.77,78.92Z"/>
  <path class="cls-1" d="M402.68,198.26c-3.2,8.1-5.96,12.84-12.19,16.47-5.66,3.3-9.73,3.99-15.85,2.46-12.04-3-25.63-8.46-22.07-38.25"/>
  <path class="cls-2" d="M387.02,212.27c-11.07,3.18-21.2-3.62-22.02-4.2-6.71-4.65-9.07-10.99-10.23-14.27-1.37-3.86-4.94-13.87.64-22.71,5.64-8.93,17.68-12.05,27.38-10.39,9.32,1.6,17.7,7.82,21.07,16.44,3.74,9.56.32,18.09-1.16,21.1-1.19,2.43-5.46,11.08-15.67,14.02Z"/>
  <path class="cls-3" d="M334.24,140.63c-5.05,3.39-9.92,7.24-14.06,11.71s-7.71,9.23-10.11,14.63c-2.76,6.21-4.6,12.58-4.49,19.46s1.8,13.7,4.42,20.04c4.9,11.86,11.52,22.72,20.2,32.22,4.28,4.68,9.08,8.74,14.18,12.5,2.3,1.69,4.67,3.24,7.18,4.59,4.11,2.23,8.39,4.16,12.11,7.04l-2.41-1.86c2.13,1.66,4.03,3.57,5.69,5.7l-1.86-2.41c2.36,3.07,4.19,6.49,5.7,10.04l-1.2-2.84c3.83,9.15,5.74,19.05,7.17,28.82.4,2.74,3.2,5.78,5.47,7.12,2.55,1.49,6.31,2.13,9.17,1.2s5.66-2.72,7.12-5.47l1.2-2.84c.57-2.11.57-4.22,0-6.33-1.15-7.88-2.64-15.77-5.13-23.34-1.9-5.79-4.27-11.67-7.74-16.72-1.63-2.37-3.41-4.7-5.41-6.77-1.88-1.94-4.05-3.58-6.21-5.2-2.56-1.92-5.39-3.43-8.23-4.89-4.2-2.17-8.15-4.49-11.91-7.37l2.41,1.86c-5.69-4.41-10.75-9.56-15.16-15.25l1.86,2.41c-4.94-6.43-9.07-13.48-12.26-20.94l1.2,2.84c-1.79-4.26-3.2-8.66-3.85-13.24l.43,3.17c-.36-2.78-.42-5.55-.08-8.33l-.43,3.17c.4-2.93,1.2-5.77,2.33-8.5l-1.2,2.84c1.43-3.36,3.33-6.47,5.55-9.37l-1.86,2.41c3.12-4.01,6.8-7.53,10.81-10.64l-2.41,1.86c1.25-.95,2.52-1.87,3.83-2.74,2.59-1.74,4.63-4.04,5.47-7.12.78-2.85.43-6.65-1.2-9.17s-4.08-4.78-7.12-5.47-6.52-.58-9.17,1.2h0Z"/>
  <path class="cls-3" d="M378.01,151.54c3.95-.42,7.91-.38,11.85.14l-3.17-.43c4.42.62,8.71,1.81,12.83,3.53l-2.84-1.2c4.14,1.75,8.08,3.99,11.64,6.74l-2.41-1.86c2.66,2.07,4.75,4.41,6.82,7.07l-1.86-2.41c5.46,7.1,9.96,14.87,13.45,23.12l-1.2-2.84c3.57,8.55,6.03,17.53,7.28,26.72l-.43-3.17c1.17,8.87,1.22,17.87.03,26.74l.43-3.17c-1.11,8.12-3.25,16.06-6.42,23.62l1.2-2.84c-.9,2.1-1.87,4.17-2.92,6.21-1.46,2.84-2.07,6.03-1.2,9.17.76,2.76,2.9,5.75,5.47,7.12,2.76,1.46,6.11,2.19,9.17,1.2,2.86-.93,5.69-2.71,7.12-5.47,3.01-5.84,5.56-12,7.45-18.31,1.9-6.34,2.99-12.83,3.75-19.4,1.41-12.19.42-24.67-2.22-36.63-2.64-11.99-7.37-23.74-13.69-34.26-3.27-5.44-7.04-10.78-11.24-15.54-2.66-3.01-6.08-5.47-9.41-7.68-5.13-3.4-10.95-6-16.83-7.77-7.24-2.17-15.13-3.03-22.65-2.23-1.64-.06-3.17.28-4.59,1.03-1.48.48-2.75,1.3-3.83,2.46-2.07,2.07-3.62,5.45-3.49,8.42s1.15,6.27,3.49,8.42c2.18,2,5.34,3.82,8.42,3.49h0Z"/>
  <path class="cls-3" d="M407.34,159.63c4.96,4.89,10.26,9.48,14.57,14.98l-1.86-2.41c3.31,4.28,5.82,9.04,8.24,13.86s4.94,10.15,7.13,15.34l-1.2-2.84c2.91,6.91,4.85,13.94,5.87,21.38l-.43-3.17c.62,4.67.89,9.38.86,14.09-.03,4.33-.3,8.62.1,12.95.47,5.05,1.26,10.1,2.57,15.01,1.38,5.15,3.34,10.08,5.48,14.95s4.69,9.49,7.56,13.94c1.67,2.59,4.1,4.64,7.12,5.47,2.85.78,6.65.43,9.17-1.2s4.78-4.08,5.47-7.12.54-6.47-1.2-9.17c-3.15-4.89-5.91-10.01-8.17-15.37l1.2,2.84c-2.63-6.31-4.54-12.9-5.48-19.67l.43,3.17c-1.06-8.03-.11-16.1-.7-24.16s-1.86-16.94-4.73-24.82c-2.41-6.62-5.36-13.07-8.42-19.42-2.59-5.36-5.19-10.85-8.6-15.75-2.72-3.9-5.76-7.57-9.1-10.95-2.96-2.99-6.05-5.83-9.05-8.77-2.19-2.15-5.34-3.49-8.42-3.49s-6.41,1.3-8.42,3.49-3.63,5.25-3.49,8.42,1.2,6.16,3.49,8.42h0Z"/>
  <path class="cls-3" d="M191.6,225.79c2.81-14.68,7.45-28.93,13.24-42.69l-1.2,2.84c6.82-16.12,15.16-31.55,24.09-46.59,8.89-14.97,18.22-29.73,27.81-44.26,5.34-8.09,10.87-16.07,16.79-23.75l-1.86,2.41c9.57-12.38,20.19-24.22,32.58-33.86l-2.41,1.86c5.36-4.13,11.09-7.73,17.33-10.38l-2.84,1.2c8.35-3.48,17.39-5.55,26.35-6.75l-3.17.43c6.54-.87,13.17-1.13,19.75-1.41,9.67-.41,19.35-.64,29.03-.79,10.72-.17,21.44-.24,32.15-.24,9.71,0,19.42.07,29.13.24,6.63.12,13.28.24,19.9.65.52.03,1.05.07,1.57.11,2.91.22,6.42-1.49,8.42-3.49s3.62-5.45,3.49-8.42c-.14-3.08-1.15-6.27-3.49-8.42s-5.12-3.24-8.42-3.49c-6.74-.51-13.53-.6-20.28-.73C439.2.07,428.85,0,418.5,0c-11.45,0-22.9.08-34.35.29-10.08.18-20.16.43-30.23.93-8.7.44-17.29,1.2-25.85,2.85-9.5,1.83-18.79,4.7-27.37,9.24-8.09,4.28-15.4,10.09-22.16,16.22-13.17,11.95-24.36,25.95-34.62,40.43-9.78,13.8-18.77,28.18-27.71,42.54s-17.85,29.4-25.48,44.8c-7.94,16.02-14.84,32.72-19.35,50.05-1.04,4.01-1.96,8.05-2.73,12.11-.61,3.19-.48,6.3,1.2,9.17,1.45,2.47,4.28,4.83,7.12,5.47,3.05.69,6.47.54,9.17-1.2,2.49-1.6,4.89-4.1,5.47-7.12h0Z"/>
  <path class="cls-3" d="M596.35,345.49c7.03-4.35,13.5-9.7,19.82-15.01,7.79-6.54,15.31-13.41,22.69-20.41,8.06-7.66,15.95-15.53,23.61-23.59,7-7.37,13.86-14.9,20.31-22.75,5.22-6.35,10.63-12.92,14.57-20.18,7.71-14.21,10.95-30.44,11.11-46.51.16-15.89-2.58-31.84-6.23-47.26-3.86-16.3-8.83-32.33-16.05-47.48-6.5-13.64-15.32-26.5-26.29-36.93-5.68-5.4-12.02-10.29-18.8-14.25-7.53-4.4-15.74-7.56-23.85-10.68-3.65-1.41-7.31-2.81-10.91-4.32l2.84,1.2c-16.72-7.09-31.54-17.84-48.09-25.26-9.28-4.16-18.77-7.36-28.8-9.14S511.89.25,501.61.1s-21.19.36-31.77.9c-3.15.16-6.15,1.22-8.42,3.49-2.07,2.07-3.62,5.45-3.49,8.42.14,3.08,1.15,6.27,3.49,8.42s5.26,3.65,8.42,3.49c17.87-.91,35.88-1.76,53.67.62l-3.17-.43c10.02,1.37,19.81,3.83,29.14,7.76l-2.84-1.2c9.34,3.97,18.1,9.1,26.88,14.14,4.4,2.52,8.81,5.03,13.33,7.35,5.38,2.77,10.93,5.18,16.55,7.43s11.18,4.26,16.69,6.59l-2.84-1.2c7.5,3.19,14.57,7.07,21.03,12.04l-2.41-1.86c6.69,5.19,12.61,11.28,17.79,17.96l-1.86-2.41c6.88,8.93,12.33,18.83,16.72,29.2l-1.2-2.84c6.44,15.32,10.81,31.59,14.07,47.86.9,4.48,1.67,8.98,2.28,13.5l-.43-3.17c1.51,11.35,1.98,22.87.46,34.24l.43-3.17c-1.01,7.27-2.84,14.4-5.69,21.17l1.2-2.84c-2.88,6.75-6.89,12.68-11.35,18.46l1.86-2.41c-8.77,11.32-18.54,21.89-28.49,32.16-10.86,11.21-22.1,22.08-33.77,32.45-5.42,4.82-10.94,9.54-16.68,13.98l2.41-1.86c-3,2.32-6.06,4.58-9.29,6.58-2.59,1.6-4.66,4.16-5.47,7.12s-.43,6.65,1.2,9.17,4.08,4.78,7.12,5.47,6.42.5,9.17-1.2h0Z"/>
  <path class="cls-7" d="M166.74,222.93c7.22,23.88,29.3,65.51,66.83,103.45,33.59,33.96,97.91,52.65,160.61,53.17,57.01.47,115.59-15.6,161.15-36.11,88.71-39.93,119.83-68.44,148.9-116.82-9.21,47.6-56,106.34-116.94,137.14-123.97,62.66-279.61,64.62-337.96,20.56-59.92-45.24-106.22-94.36-82.58-161.39Z"/>
  <path class="cls-3" d="M83.36,311.53c-.27-63.91,31.05-106.05,39.51-117.22,5.54-7.33,5.25-4.81,14.01-16.69,40.55-54.95,41.29-72.25,67.31-93.8,21.23-17.59,44.45-22.71,59.09-25.94,38.93-8.59,45.45,5.07,104.13,3.81,46.54-1,60.46-9.98,85.41,1.49,14.92,6.85,14.03,11.94,37.5,27.78,30.42,20.54,42.39,19.05,65.07,32.54,9.51,5.65,52.49,33.21,64.81,77.95,11.02,40.04-1.33,73.83-6.4,92.35-10.78,39.42-53.31,92.35-104.98,118.83-123.6,63.33-279.61,64.62-337.96,20.56-59.92-45.24-87.34-85.36-87.5-121.65Z"/>
  <path class="cls-4" d="M618.44,196.1s-2.47-19.73-19.57-36.91c-35.67-35.86-34.48-47.05-76.01-65.31-6.17-2.71-30.96-7.45-60.55-30.72-18.9-14.86,2.96-15.74-67.01-15-46.3.49-76.72,1.86-100.4,2.85-26.55,1.11-47.78,5.45-66.36,14.75-14,7.01-14.69,4.45-35.61,28.51-18.75,21.56-43.24,70.45-47.55,78.37-1.52,2.8-4.04,8.95-7.64,15.18-3.81,6.6-5.43,10.41-6.32,12.15-8.56,16.81-21.63,51.42-12.72,86.76,5.31,21.05,15.73,34.05,30.8,52.85,13.45,16.78,31.21,38.94,63.41,54.34,7.28,3.48,36.17,13.32,73.71,16.1q25.97,1.93,59.5.8c18.83-.63,32.65-4.16,51.71-7.48,15.13-2.63,35.72-9.11,35.45-15.56-.13-3.15-5.2-5.56-12.69-8.12-25.57-8.75-45.47-7.67-65.91-8.99-30.45-1.97-45.67-2.96-53.75-11.17-14.42-14.66-1.96-33.61-19.96-55.5-7.12-8.65-9.11-5.76-22.16-18.72-14.43-14.34-25.06-24.9-25.87-40.26-.84-15.86,9.12-30.54,20.57-37.47,4.75-2.88,11.91-5.72,13.56-3.85,2.3,2.61-9.14,10.79-12.42,22.31-5.61,19.73,11.34,54.01,40.49,57.02,15.54,1.61,33.67-5.54,40.49-18.83,16.49-32.11-2.62-62.25-36.48-69.32-2.79-.58-9.38-.32-10.19-2.9-.92-2.94,5.99-7.76,9.73-9.54,15.55-7.41,45.83,4.49,61.74,25.57,15.46,20.49,4.63,32.82,18.79,76.03,8.11,24.74,12.16,37.11,23.41,46.61,31.35,26.47,87.71,8.65,115.45-.11,33.88-10.71,61.74-19.51,75-45.56,16.94-33.3,2.74-70.64-5.46-86.53-7.13-13.81-16.11-21.83-24.85-28.99-6.64-5.45-13.96-8.91-14.87-8.02-1.74,1.7,4.54-.56,15.26,27.2,2.2,5.69,5.49,17.86,7.43,39.6.91,10.18-3.75,32.24-8.22,31.07-5.46-1.43-4.39-19.36-7.04-31.07-8.69-38.32-29.23-62.9-48.52-82.33-36.94-37.2-137.32-45.85-137.06-59.11.21-10.56,93.92,6.7,118.66,17.53,80.92,35.43,130.01,91.76,130.01,91.76Z"/>
  <path class="cls-1" d="M323.21,247.56c-3.2,8.1-5.96,12.84-12.19,16.47-5.66,3.3-9.73,3.99-15.85,2.46-12.04-3-25.63-8.46-22.07-38.25"/>
  <path class="cls-2" d="M307.54,261.58c-11.07,3.18-21.2-3.62-22.02-4.2-6.71-4.65-9.07-10.99-10.23-14.27-1.37-3.86-4.94-13.87.64-22.71,5.64-8.93,17.68-12.05,27.38-10.39,9.32,1.6,17.7,7.82,21.07,16.44,3.74,9.56.32,18.09-1.16,21.1-1.19,2.43-5.46,11.08-15.67,14.02Z"/>
  <path class="cls-3" d="M254.77,189.93c-5.05,3.39-9.92,7.24-14.06,11.71s-7.71,9.23-10.11,14.63c-2.76,6.21-4.6,12.58-4.49,19.46s1.8,13.7,4.42,20.04c4.9,11.86,11.52,22.72,20.2,32.22,4.28,4.68,9.08,8.74,14.18,12.5,2.3,1.69,4.67,3.24,7.18,4.59,4.11,2.23,8.39,4.16,12.11,7.04l-2.41-1.86c2.13,1.66,4.03,3.57,5.69,5.7l-1.86-2.41c2.36,3.07,4.19,6.49,5.7,10.04l-1.2-2.84c3.83,9.15,5.74,19.05,7.17,28.82.4,2.74,3.2,5.78,5.47,7.12,2.55,1.49,6.31,2.13,9.17,1.2s5.66-2.72,7.12-5.47l1.2-2.84c.57-2.11.57-4.22,0-6.33-1.15-7.88-2.64-15.77-5.13-23.34-1.9-5.79-4.27-11.67-7.74-16.72-1.63-2.37-3.41-4.7-5.41-6.77-1.88-1.94-4.05-3.58-6.21-5.2-2.56-1.92-5.39-3.43-8.23-4.89-4.2-2.17-8.15-4.49-11.91-7.37l2.41,1.86c-5.69-4.41-10.75-9.56-15.16-15.25l1.86,2.41c-4.94-6.43-9.07-13.48-12.26-20.94l1.2,2.84c-1.79-4.26-3.2-8.66-3.85-13.24l.43,3.17c-.36-2.78-.42-5.55-.08-8.33l-.43,3.17c.4-2.93,1.2-5.77,2.33-8.5l-1.2,2.84c1.43-3.36,3.33-6.47,5.55-9.37l-1.86,2.41c3.12-4.01,6.8-7.53,10.81-10.64l-2.41,1.86c1.25-.95,2.52-1.87,3.83-2.74,2.59-1.74,4.63-4.04,5.47-7.12.78-2.85.43-6.65-1.2-9.17s-4.08-4.78-7.12-5.47-6.52-.58-9.17,1.2h0Z"/>
  <path class="cls-3" d="M298.53,200.85c3.95-.42,7.91-.38,11.85.14l-3.17-.43c4.42.62,8.71,1.81,12.83,3.53l-2.84-1.2c4.14,1.75,8.08,3.99,11.64,6.74l-2.41-1.86c2.66,2.07,4.75,4.41,6.82,7.07l-1.86-2.41c5.46,7.1,9.96,14.87,13.45,23.12l-1.2-2.84c3.57,8.55,6.03,17.53,7.28,26.72l-.43-3.17c1.17,8.87,1.22,17.87.03,26.74l.43-3.17c-1.11,8.12-3.25,16.06-6.42,23.62l1.2-2.84c-.9,2.1-1.87,4.17-2.92,6.21-1.46,2.84-2.07,6.03-1.2,9.17.76,2.76,2.9,5.75,5.47,7.12,2.76,1.46,6.11,2.19,9.17,1.2,2.86-.93,5.69-2.71,7.12-5.47,3.01-5.84,5.56-12,7.45-18.31,1.9-6.34,2.99-12.83,3.75-19.4,1.41-12.19.42-24.67-2.22-36.63-2.64-11.99-7.37-23.74-13.69-34.26-3.27-5.44-7.04-10.78-11.24-15.54-2.66-3.01-6.08-5.47-9.41-7.68-5.13-3.4-10.95-6-16.83-7.77-7.24-2.17-15.13-3.03-22.65-2.23-1.64-.06-3.17.28-4.59,1.03-1.48.48-2.75,1.3-3.83,2.46-2.07,2.07-3.62,5.45-3.49,8.42s1.15,6.27,3.49,8.42c2.18,2,5.34,3.82,8.42,3.49h0Z"/>
  <path class="cls-3" d="M327.86,208.93c4.96,4.89,10.26,9.48,14.57,14.98l-1.86-2.41c3.31,4.28,5.82,9.04,8.24,13.86s4.94,10.15,7.13,15.34l-1.2-2.84c2.91,6.91,4.85,13.94,5.87,21.38l-.43-3.17c.62,4.67.89,9.38.86,14.09-.03,4.33-.3,8.62.1,12.95.47,5.05,1.26,10.1,2.57,15.01,1.38,5.15,3.34,10.08,5.48,14.95s4.69,9.49,7.56,13.94c1.67,2.59,4.1,4.64,7.12,5.47,2.85.78,6.65.43,9.17-1.2s4.78-4.08,5.47-7.12c.69-3.05.54-6.47-1.2-9.17-3.15-4.89-5.91-10.01-8.17-15.37l1.2,2.84c-2.63-6.31-4.54-12.9-5.48-19.67l.43,3.17c-1.06-8.03-.11-16.1-.7-24.16-.61-8.32-1.86-16.94-4.73-24.82-2.41-6.62-5.36-13.07-8.42-19.42-2.59-5.36-5.19-10.85-8.6-15.75-2.72-3.9-5.76-7.57-9.1-10.95-2.96-2.99-6.05-5.83-9.05-8.77-2.19-2.15-5.34-3.49-8.42-3.49s-6.41,1.3-8.42,3.49-3.63,5.25-3.49,8.42,1.2,6.16,3.49,8.42h0Z"/>
  <path class="cls-3" d="M112.12,275.09c2.81-14.68,7.45-28.93,13.24-42.69l-1.2,2.84c6.82-16.12,15.16-31.55,24.09-46.59,8.89-14.97,18.22-29.73,27.81-44.26,5.34-8.09,10.87-16.07,16.79-23.75l-1.86,2.41c4.18-5.4,8.54-10.66,13.16-15.69s9.36-10.02,14.71-14.17l-2.41,1.86c6.49-4.93,14.13-8.45,21.6-11.63l-2.84,1.2c6.68-2.79,13.83-4.54,20.87-6.16,5.89-1.36,11.83-2.58,17.83-3.39l-3.17.43c11.79-1.58,23.71-2.37,35.58-3.07,13.47-.79,26.97-1.35,40.47-1.41,5.5-.02,11.02,0,16.5.41,2.91.22,6.42-1.48,8.42-3.49s3.62-5.45,3.49-8.42-1.15-6.27-3.49-8.42-5.12-3.24-8.42-3.49c-8.29-.62-16.66-.47-24.96-.3-10.79.22-21.57.69-32.35,1.32-9.83.58-19.66,1.28-29.44,2.35-10.01,1.09-19.88,2.81-29.67,5.19-5.46,1.33-10.94,2.77-16.2,4.76-3.59,1.36-7.07,3-10.55,4.62-3.06,1.42-6.11,2.89-9.05,4.56-6.92,3.94-12.84,9.21-18.43,14.82-5.19,5.2-10.06,10.72-14.68,16.43-9.61,11.88-18.28,24.44-26.57,37.27s-15.77,24.65-23.25,37.21c-15.39,25.83-29.34,53.19-36.7,82.5-.86,3.44-1.63,6.91-2.29,10.4-.61,3.19-.48,6.3,1.2,9.17,1.45,2.47,4.28,4.83,7.12,5.47,3.05.69,6.47.54,9.17-1.2,2.49-1.6,4.89-4.1,5.47-7.12h0Z"/>
  <path class="cls-3" d="M516.87,394.8c4.54-2.8,8.76-6.12,12.95-9.41,4.58-3.6,9.02-7.36,13.39-11.2,10.52-9.24,20.66-18.92,30.52-28.86,9.65-9.74,19.08-19.73,27.88-30.25,4.05-4.84,8-9.8,11.64-14.95s6.53-10.84,9.01-16.87c3.97-9.66,5.8-20.13,6.49-30.51s-.27-21.21-1.76-31.73c-1.39-9.84-3.55-19.56-6.03-29.18-2.56-9.91-5.57-19.72-9.44-29.2-4.12-10.07-8.88-19.77-14.93-28.82-5.6-8.38-12.01-16.36-19.34-23.31-7.2-6.82-15.31-12.53-23.71-17.76-7.84-4.88-15.87-9.52-24.18-13.57-8.61-4.2-17.44-8.02-26.21-11.9-9.91-4.38-19.93-8.52-30.15-12.14-5.49-1.95-10.96-4-16.6-5.49-7.48-1.97-15.24-2.96-22.94-3.46-4.69-.31-9.4-.41-14.1-.41-3.05,0-6.26,1.33-8.42,3.49s-3.62,5.45-3.49,8.42c.29,6.46,5.23,11.9,11.91,11.91,7.53,0,15.08.25,22.55,1.23l-3.17-.43c11.6,1.56,22.56,5.65,33.47,9.72,4.72,1.76,9.4,3.63,14.04,5.59l-2.84-1.2c10.21,4.31,20.26,8.99,30.35,13.56,9.24,4.18,18.1,9.29,26.72,14.61,4.78,2.95,9.54,5.98,14,9.41l-2.41-1.86c7.73,5.97,14.57,12.98,20.54,20.69l-1.86-2.41c7.46,9.69,13.53,20.36,18.29,31.61l-1.2-2.84c6.44,15.32,10.81,31.59,14.07,47.86.9,4.48,1.67,8.98,2.28,13.5l-.43-3.17c1.51,11.35,1.98,22.87.46,34.24l.43-3.17c-1.01,7.27-2.84,14.4-5.69,21.17l1.2-2.84c-2.88,6.75-6.89,12.68-11.35,18.46l1.86-2.41c-8.77,11.32-18.54,21.89-28.49,32.16-10.86,11.21-22.1,22.08-33.77,32.45-5.42,4.82-10.94,9.54-16.68,13.98l2.41-1.86c-3,2.32-6.06,4.58-9.29,6.58-2.59,1.6-4.66,4.16-5.47,7.12s-.43,6.65,1.2,9.17,4.08,4.78,7.12,5.47,6.42.5,9.17-1.2h0Z"/>
  <path class="cls-8" d="M87.27,272.23c7.22,23.88,29.3,65.51,66.83,103.45,33.59,33.96,97.91,52.65,160.61,53.17,57.01.47,115.59-15.6,161.15-36.11,88.71-39.93,119.83-68.44,148.9-116.82-9.21,47.6-56,106.34-116.94,137.14-123.97,62.66-279.61,64.62-337.96,20.56-59.92-45.24-106.22-94.36-82.58-161.39Z"/>
  <path class="cls-3" d="M3.89,360.84c-.27-63.91,31.05-106.05,39.51-117.22,5.54-7.33,5.25-4.81,14.01-16.69,40.55-54.95,41.29-72.25,67.31-93.8,21.23-17.59,44.45-22.71,59.09-25.94,38.93-8.59,45.45,5.07,104.13,3.81,46.54-1,60.46-9.98,85.41,1.49,14.92,6.85,14.03,11.94,37.5,27.78,30.42,20.54,42.39,19.05,65.07,32.54,9.51,5.65,52.49,33.21,64.81,77.95,11.02,40.04-1.33,73.83-6.4,92.35-10.78,39.42-53.31,92.35-104.98,118.83-123.6,63.33-279.61,64.62-337.96,20.56C31.47,437.24,4.04,397.13,3.89,360.84Z"/>
  <path class="cls-5" d="M538.97,245.4s-2.47-19.73-19.57-36.91c-35.67-35.86-40.35-38.09-81.89-56.35-6.17-2.71-25.09-16.41-54.68-39.68-18.9-14.86-34.63-8.87-104.6-8.13-46.3.49-38.93-3.11-62.61-2.11-26.55,1.11-47.98,3.54-66.56,12.84-14,7.01-14.69,4.45-35.61,28.51-18.75,21.56-43.24,70.45-47.55,78.37-1.52,2.8-4.04,8.95-7.64,15.18-3.81,6.6-5.43,10.41-6.32,12.15-8.56,16.81-21.63,51.42-12.72,86.76,5.31,21.05,15.73,34.05,30.8,52.85,13.45,16.78,31.21,38.94,63.41,54.34,7.28,3.48,36.17,13.32,73.71,16.1q25.97,1.93,59.5.8c18.83-.63,32.65-4.16,51.71-7.48,15.13-2.63,35.72-9.11,35.45-15.56-.13-3.15-5.2-5.56-12.69-8.12-25.57-8.75-45.47-7.67-65.91-8.99-30.45-1.97-45.67-2.96-53.75-11.17-14.42-14.66-1.96-33.61-19.96-55.5-7.12-8.65-9.11-5.76-22.16-18.72-14.43-14.34-25.06-24.9-25.87-40.26-.84-15.86,9.12-30.54,20.57-37.47,4.75-2.88,11.91-5.72,13.56-3.85,2.3,2.61-9.14,10.79-12.42,22.31-5.61,19.73,11.34,54.01,40.49,57.02,15.54,1.61,33.67-5.54,40.49-18.83,16.49-32.11-2.62-62.25-36.48-69.32-2.79-.58-9.38-.32-10.19-2.9-.92-2.94,5.99-7.76,9.73-9.54,15.55-7.41,45.83,4.49,61.74,25.57,15.46,20.49,4.63,32.82,18.79,76.03,8.11,24.74,12.16,37.11,23.41,46.61,31.35,26.47,87.71,8.65,115.45-.11,33.88-10.71,61.74-19.51,75-45.56,16.94-33.3-1.93-71.29-9.89-87.31-12.4-24.96-19.14-25.72-27.88-32.89-6.64-5.45-13.38-10.05-14.29-9.16-1.74,1.7,10.72,5.47,21.45,33.24,2.2,5.69,10.69,18.83,8.79,40.58-.74,8.53-10.74,26.78-10.74,26.78,0,0,6.48-21.24,3.82-32.94-8.69-38.32-36.39-72.68-57.03-90.68s-68.26-38.47-66.18-42.56c1.63-3.21,52.8,16.32,77.54,27.15,80.92,35.43,99.77,78.92,99.77,78.92Z"/>
  <path class="cls-1" d="M228.6,263.27c7.17,4.95,11.16,8.71,13.29,15.59,1.93,6.26,1.68,10.38-1.19,16-5.64,11.05-14.04,23.05-42.25,12.85"/>
  <path class="cls-2" d="M238.71,281.7c.59,11.5-8.32,19.83-9.07,20.5-6.05,5.49-12.75,6.35-16.21,6.74-4.07.47-14.63,1.67-21.98-5.76-7.42-7.51-7.74-19.95-3.93-29.02,3.66-8.72,11.62-15.47,20.78-16.81,10.16-1.48,17.69,3.78,20.29,5.91,2.1,1.71,9.56,7.83,10.11,18.43Z"/>
  <path class="cls-3" d="M483.32,333.29c2.46-3.95,4.24-8.34,5.95-12.64s3.03-8.3,4.28-12.53c2.39-8.08,4.35-16.35,5.19-24.74.11-1.13.16-2.25.09-3.39-.26-4-.8-8.01-1.52-11.95-1.1-6.08-2.84-12.02-4.86-17.85-2-5.77-4.24-11.47-6.57-17.12-2.64-6.41-5.38-12.78-8.64-18.9-5.94-11.14-13.83-21.17-22.8-30.02-6.76-6.68-14.01-12.92-21.82-18.34-14.84-10.3-31.34-18.35-48.2-24.75-8.93-3.39-18.11-6.19-27.49-8.02s-19.88-3.1-29.83-2.26c-3.03.26-6.05.66-9.04,1.18-2.78.48-5.75,3.13-7.12,5.47-1.49,2.55-2.13,6.31-1.2,9.17s2.72,5.66,5.47,7.12l2.84,1.2c2.11.57,4.22.57,6.33,0,.84-.14,1.67-.27,2.51-.39l-3.17.43c7.54-1,15.18-.73,22.71.26l-3.17-.43c14.55,1.96,28.69,6.49,42.19,12.19l-2.84-1.2c12.45,5.28,24.56,11.58,35.81,19.11,2.44,1.63,4.83,3.33,7.15,5.12l-2.41-1.86c4.26,3.3,8.28,6.95,12.18,10.66,4.92,4.68,9.56,9.65,13.72,15.02l-1.86-2.41c6.73,8.76,11.73,18.58,16.02,28.72l-1.2-2.84c5.5,13.07,10.94,26.61,12.88,40.75l-.43-3.17c.45,3.44.69,6.68.23,10.1l.43-3.17c-.75,5.5-2.06,10.93-3.52,16.27-1.69,6.19-3.66,12.32-6.15,18.23l1.2-2.84c-1.14,2.68-2.39,5.32-3.93,7.79s-2,6.28-1.2,9.17,2.9,5.75,5.47,7.12c5.84,3.09,12.77,1.38,16.29-4.27h0Z"/>
  <path class="cls-3" d="M175.3,239.24c-5.15,3.46-10.13,7.4-14.32,12-3.97,4.36-7.62,9.26-10,14.68-2.79,6.37-4.65,13.02-4.32,20.06.38,8.1,2.76,15.42,5.95,22.79,4.73,10.92,11.55,21.08,19.74,29.71,4.39,4.63,9.35,8.73,14.57,12.39,2.07,1.45,4.21,2.73,6.45,3.89,4.34,2.25,8.81,4.25,12.71,7.26l-2.41-1.86c2.22,1.73,4.2,3.73,5.94,5.95l-1.86-2.41c2.45,3.18,4.35,6.72,5.92,10.41l-1.2-2.84c3.67,8.77,5.56,18.23,6.93,27.6.4,2.74,3.2,5.78,5.47,7.12,2.55,1.49,6.31,2.13,9.17,1.2s5.66-2.72,7.12-5.47l1.2-2.84c.57-2.11.57-4.22,0-6.33-1.15-7.88-2.69-15.77-5.3-23.31-2.01-5.81-4.48-11.71-8.13-16.71-1.74-2.38-3.55-4.75-5.67-6.81-1.99-1.93-4.22-3.63-6.47-5.22-2.7-1.91-5.65-3.41-8.61-4.88-4.27-2.13-8.24-4.45-12.05-7.37l2.41,1.86c-5.69-4.41-10.75-9.56-15.16-15.25l1.86,2.41c-4.94-6.43-9.07-13.48-12.26-20.94l1.2,2.84c-1.79-4.26-3.2-8.66-3.85-13.24l.43,3.17c-.36-2.78-.42-5.55-.08-8.33l-.43,3.17c.4-2.93,1.2-5.77,2.33-8.5l-1.2,2.84c1.43-3.36,3.33-6.47,5.55-9.37l-1.86,2.41c3.12-4.01,6.8-7.53,10.81-10.64l-2.41,1.86c1.25-.95,2.52-1.87,3.83-2.74,2.59-1.74,4.63-4.04,5.47-7.12.78-2.85.43-6.65-1.2-9.17s-4.08-4.78-7.12-5.47-6.52-.58-9.17,1.2h0Z"/>
  <path class="cls-3" d="M219.06,250.15c3.95-.42,7.91-.38,11.85.14l-3.17-.43c4.42.62,8.71,1.81,12.83,3.53l-2.84-1.2c4.14,1.75,8.08,3.99,11.64,6.74l-2.41-1.86c2.66,2.07,4.75,4.41,6.82,7.07l-1.86-2.41c5.46,7.1,9.96,14.87,13.45,23.12l-1.2-2.84c3.57,8.55,6.03,17.53,7.28,26.72l-.43-3.17c1.17,8.87,1.22,17.87.03,26.74l.43-3.17c-1.11,8.12-3.25,16.06-6.42,23.62l1.2-2.84c-.9,2.1-1.87,4.17-2.92,6.21-1.46,2.84-2.07,6.03-1.2,9.17.76,2.76,2.9,5.75,5.47,7.12,2.76,1.46,6.11,2.19,9.17,1.2,2.86-.93,5.69-2.71,7.12-5.47,3.01-5.84,5.56-12,7.45-18.31s2.99-12.83,3.75-19.4c1.41-12.19.42-24.67-2.22-36.63s-7.37-23.74-13.69-34.26c-3.27-5.44-7.04-10.78-11.24-15.54-2.66-3.01-6.08-5.47-9.41-7.68-5.13-3.4-10.95-6-16.83-7.77-7.24-2.17-15.13-3.03-22.65-2.23-1.64-.06-3.17.28-4.59,1.03-1.48.48-2.75,1.3-3.83,2.46-2.07,2.07-3.62,5.45-3.49,8.42s1.15,6.27,3.49,8.42c2.18,2,5.34,3.82,8.42,3.49h0Z"/>
  <path class="cls-3" d="M248.39,258.24c4.96,4.89,10.26,9.48,14.57,14.98l-1.86-2.41c3.31,4.28,5.82,9.04,8.24,13.86s4.94,10.15,7.13,15.34l-1.2-2.84c2.91,6.91,4.85,13.94,5.87,21.38l-.43-3.17c.57,4.28.85,8.59.86,12.91.01,2.93-.19,5.86-.16,8.79.05,5.5.76,11.03,1.76,16.43s2.53,10.8,4.55,15.96c2.68,6.85,5.84,13.48,9.96,19.59,5.11,7.58,11.16,14.54,18.18,20.39,2.48,2.07,5.08,3.49,8.42,3.49,2.92,0,6.41-1.3,8.42-3.49s3.63-5.25,3.49-8.42c-.13-2.99-1.09-6.42-3.49-8.42-4.85-4.05-9.26-8.59-13.14-13.58l1.86,2.41c-4.49-5.84-8.2-12.23-11.08-19.02l1.2,2.84c-2.96-7.06-5.01-14.48-6.05-22.07l.43,3.17c-.68-5.11-.66-10.11-.55-15.25.21-10.27-.95-20.7-3.63-30.63-1.87-6.96-5.07-13.63-8.11-20.14-2.72-5.83-5.48-11.79-8.92-17.23-5.3-8.38-12.49-14.85-19.48-21.73-2.19-2.15-5.34-3.49-8.42-3.49s-6.41,1.3-8.42,3.49-3.63,5.25-3.49,8.42,1.2,6.16,3.49,8.42h0Z"/>
  <path class="cls-3" d="M33.08,321.23c0-3.4.26-6.8.71-10.17l-.43,3.17c1.43-10.44,4.71-20.53,8.8-30.21l-1.2,2.84c6.29-14.8,14.43-28.75,22.95-42.37,4.31-6.89,8.74-13.7,13.17-20.52s8.59-13.45,12.99-20.12c5.25-7.96,10.77-15.73,16.59-23.28l-1.86,2.41c10.5-13.59,21.95-26.46,34.67-38.02,2.19-1.99,3.49-5.51,3.49-8.42s-1.3-6.41-3.49-8.42c-4.94-4.53-11.91-4.48-16.84,0-11.2,10.18-21.43,21.39-30.87,33.2s-18.92,25.23-27.43,38.55c-7.78,12.18-15.83,24.2-23.4,36.51s-14.57,24.58-20.2,37.7c-3,7-5.79,14.07-7.78,21.42-1.87,6.91-3.08,14.06-3.53,21.2-.09,1.5-.14,3.01-.14,4.52,0,3.05,1.33,6.27,3.49,8.42s5.45,3.62,8.42,3.49c6.46-.29,11.89-5.23,11.91-11.91h0Z"/>
  <path class="cls-3" d="M437.4,444.1c7.03-4.35,13.5-9.7,19.82-15.01,7.79-6.54,15.31-13.41,22.69-20.41,8.06-7.66,15.95-15.53,23.61-23.59,7-7.37,13.86-14.9,20.31-22.75,5.22-6.35,10.63-12.92,14.57-20.18,7.71-14.21,10.95-30.44,11.11-46.51s-2.58-31.84-6.23-47.26c-3.86-16.3-8.83-32.33-16.05-47.48-6.5-13.64-15.32-26.5-26.29-36.93-5.68-5.4-12.02-10.29-18.8-14.25-7.53-4.4-15.74-7.56-23.85-10.68-3.65-1.41-7.31-2.81-10.91-4.32l2.84,1.2c-16.49-6.99-31.81-16.4-47.76-24.48-4.72-2.39-9.51-4.92-14.57-6.52-2.48-.78-5.02-1.36-7.57-1.87-7.99-1.58-16.13-2.51-24.23-3.26-9.04-.84-18.11-1.37-27.17-1.76-10.26-.43-20.52-.67-30.79-.76-10.66-.1-21.32-.05-31.98.13s-20.59.47-30.88.91c-9.04.39-18.07.89-27.09,1.59-8.04.62-16.04,1.45-24.03,2.57-4.19.59-8.61,1.13-12.6,2.63-1.46.55-2.97,1.09-4.32,1.88-2.58,1.52-4.68,4.22-5.47,7.12s-.43,6.65,1.2,9.17,4.08,4.78,7.12,5.47,6.36.45,9.17-1.2c.31-.18.64-.34.98-.48l-2.84,1.2c3.14-1.31,6.67-1.83,10-2.36,1.39-.22,2.78-.42,4.17-.61l-3.17.43c9.34-1.25,18.75-1.98,28.14-2.59,12.16-.79,24.33-1.29,36.51-1.62,13.3-.36,26.61-.52,39.91-.45s25.78.33,38.65.92c10.89.5,21.79,1.2,32.61,2.5,1.15.14,2.29.28,3.44.44l-3.17-.43c5.62.76,11.29,1.64,16.72,3.31,1.08.33,2.15.7,3.19,1.14l-2.84-1.2c4.32,1.82,8.5,4.07,12.66,6.23,5.16,2.68,10.27,5.47,15.38,8.24,10.97,5.94,22.01,11.66,33.57,16.37,5.97,2.43,12.04,4.6,17.97,7.11l-2.84-1.2c7.5,3.19,14.57,7.07,21.03,12.04l-2.41-1.86c6.69,5.19,12.61,11.28,17.79,17.96l-1.86-2.41c6.88,8.93,12.33,18.83,16.72,29.2l-1.2-2.84c6.44,15.32,10.81,31.59,14.07,47.86.9,4.48,1.67,8.98,2.28,13.5l-.43-3.17c1.51,11.35,1.98,22.87.46,34.24l.43-3.17c-1.01,7.27-2.84,14.4-5.69,21.17l1.2-2.84c-2.88,6.75-6.89,12.68-11.35,18.46l1.86-2.41c-8.77,11.32-18.54,21.89-28.49,32.16-10.86,11.21-22.1,22.08-33.77,32.45-5.42,4.82-10.94,9.54-16.68,13.98l2.41-1.86c-3,2.32-6.06,4.58-9.29,6.58-2.59,1.6-4.66,4.16-5.47,7.12s-.43,6.65,1.2,9.17,4.08,4.78,7.12,5.47,6.42.5,9.17-1.2h0Z"/>
  <path class="cls-9" d="M7.8,321.54c7.22,23.88,29.3,65.51,66.83,103.45,33.59,33.96,97.91,52.65,160.61,53.17,57.01.47,115.59-15.6,161.15-36.11,88.71-39.93,119.83-68.44,148.9-116.82-9.21,47.6-56,106.34-116.94,137.14-123.97,62.66-279.61,64.62-337.96,20.56C30.46,437.69-15.84,388.57,7.8,321.54Z"/>
</svg>