<?xml version="1.0" encoding="UTF-8"?>
<svg id="Vrstva_2" data-name="Vrstva 2" xmlns="http://www.w3.org/2000/svg" xmlns:xlink="http://www.w3.org/1999/xlink" viewBox="0 0 663.97 418.63">
  <defs>
    <style>
      .cls-1 {
        stroke: #fee;
      }

      .cls-1, .cls-2 {
        fill: #eac1c1;
      }

      .cls-1, .cls-2, .cls-3, .cls-4 {
        stroke-linecap: round;
        stroke-linejoin: round;
      }

      .cls-1, .cls-2, .cls-4 {
        stroke-width: 3px;
      }

      .cls-5 {
        fill: #221f2c;
      }

      .cls-2 {
        stroke: #ead6d6;
      }

      .cls-3 {
        stroke: #171b23;
        stroke-width: 7px;
      }

      .cls-3, .cls-4 {
        fill: none;
      }

      .cls-6 {
        fill: url(#Nepojmenovaný_přechod_33);
      }

      .cls-4 {
        stroke: #8f939b;
      }

      .cls-7 {
        fill: url(#Nepojmenovaný_přechod_57);
      }
    </style>
    <radialGradient id="Nepojmenovaný_přechod_57" data-name="Nepojmenovaný přechod 57" cx="-475.99" cy="-987.71" fx="-475.99" fy="-987.71" r="1589.09" gradientUnits="userSpaceOnUse">
      <stop offset=".75" stop-color="#b99c89"/>
      <stop offset=".86" stop-color="#d5dcd6"/>
      <stop offset=".88" stop-color="#d0d8d2"/>
      <stop offset=".91" stop-color="#c1ccc9"/>
      <stop offset=".94" stop-color="#a9b9ba"/>
      <stop offset=".97" stop-color="#889fa5"/>
      <stop offset="1" stop-color="#5e7d8a"/>
      <stop offset="1" stop-color="#5b7b88"/>
    </radialGradient>
    <radialGradient id="Nepojmenovaný_přechod_33" data-name="Nepojmenovaný přechod 33" cx="551.23" cy="935.23" fx="551.23" fy="935.23" r="929.29" gradientUnits="userSpaceOnUse">
      <stop offset=".6" stop-color="#414c5f"/>
      <stop offset=".78" stop-color="#3f4a5d"/>
      <stop offset=".85" stop-color="#3a4356"/>
      <stop offset=".89" stop-color="#30394a"/>
      <stop offset=".93" stop-color="#232939"/>
      <stop offset=".94" stop-color="#202535"/>
      <stop offset=".94" stop-color="#222939"/>
      <stop offset=".95" stop-color="#35485b"/>
      <stop offset=".96" stop-color="#446176"/>
      <stop offset=".97" stop-color="#4f7389"/>
      <stop offset=".99" stop-color="#557d94"/>
      <stop offset="1" stop-color="#588198"/>
    </radialGradient>
  </defs>
  <path class="cls-5" d="M272.95,2.16c-1.1-1.31-2.93-1.73-4.49-1.02-10.9,4.93-52.14,24.8-73.19,51.72-19.82,25.35-30.52,51.29-46.56,73.61-2.21,3.07.82,7.16,4.38,5.87,47.5-17.19,151.47-48.63,203.86-63.83,3.55-1.03,3.73-6.02.25-7.27-46.52-16.8-76.8-50.2-84.25-59.08Z"/>
  <path class="cls-5" d="M416.63,49.27c16.2-13.72,40.66-39.99,48.48-48.49,1.17-1.28,3.25-.93,3.97.64,3.64,8.03,13.8,28.72,28.17,43.65,1.46,1.52.38,4.06-1.73,4.07-22.99.16-54.22,1.65-77.06,4.36-2.38.28-3.67-2.69-1.84-4.23Z"/>
  <path class="cls-5" d="M659.39,225.58c3.38-2.36-8.47-10.73-11.56-11.95-53.1-21.06-61.43-52.7-61.43-52.7l-12.93-30.53-49.96,37.58-26.45,44.67,6.91,8.23s36.09,6.33,48.15,5.29c29.49-2.55,101.79,3.23,107.28-.59Z"/>
  <path class="cls-4" d="M270.13,7.88c4.28-1.6-50.47,23.93-69.31,48.02-23.09,29.53-33.8,59.86-54.98,84.33"/>
  <path class="cls-4" d="M415.3,57.63c17.71-12.34,51.07-49.82,51.07-49.82"/>
  <path class="cls-4" d="M497.36,206.13l6.91,5.46s36.09,7.31,48.15,6.27c29.49-2.55,87.18,4.61,93.54,2.55"/>
  <path class="cls-7" d="M253.84,402.99c31.95-16.88,84.84-50.39,119.24-69.25,48.15-23.71,100.27-105.22,130.89-112.86,21.11-41.73,45.41-58.98,66.96-73.48,6.39,5.95,10.78,9.21,15.48,13.52,18.53-10.98,53.13-50.58,68.16-55.33,21.48-6.78.75-26.13-8.61-45.14-5.56-11.29-14.97-18.51-26.32-23.93-20.18-9.64-62.41,14.82-91.45,12.29-45.95-4.01-95.46-.59-124.77,5.6-69.69,14.73-201.79,48.82-266.15,78.17-23.72,10.81-98.06,57.26-123.06,94.34,20.74-29.19,88.63-48.52,173.91-.81,102.32,56.63,112,146.44,65.72,176.87Z"/>
  <path class="cls-6" d="M188.11,226.12c3.35-6.68,10.51-15.58,23.34-25.79,36.6-29.12,202.57-96.88,261.7-101.73,8.7-.71,90.37-11.16,111.7-16.36,20.93-5.11,26.68-13.54,39.6-22.58,5-3.49,14.75-5,14.16-7.7-1.19-5.47-7.62-10.02-18.97-15.44-20.18-9.64-63.26,7.69-92.3,7.85-46.12.25-96.07,4.24-125.77,8.2-68.68,9.16-202.46,47.82-265.98,78.95S35.97,199.67,13.34,225.72c30.66-26.44,59.66-27.99,83.49-27.72s68.46,13.11,91.28,28.12Z"/>
  <path class="cls-3" d="M207.28,203.08c26.94-22.34,145.29-85.02,251.22-102.19,83.68-13.56,137.06-11.67,169.22-44.51"/>
  <path class="cls-4" d="M210.19,200.33c29.7-21.67,139.33-79.34,244.53-98.75,80.61-14.87,136.97-10.82,168.61-41.12"/>
  <ellipse class="cls-1" cx="141.25" cy="307.43" rx="93.84" ry="150.83" transform="translate(-196.22 283.34) rotate(-61.24)"/>
  <path class="cls-2" d="M254.79,371.93c-22.74,41.44-95.24,45.01-154.87,12.28C40.29,351.48,5.56,286.57,28.31,245.13c22.74-41.44,94.35-43.71,153.98-10.98,59.63,32.73,95.25,96.33,72.51,137.77Z"/>
  <path class="cls-2" d="M220.2,354.09c-20.76,37.83-80.24,45.98-120.86,23.69-40.62-22.3-61.22-73.37-40.46-111.2,20.76-37.83,75.03-48.1,115.65-25.8,40.62,22.3,66.43,75.48,45.67,113.32Z"/>
  <path class="cls-2" d="M182.03,335.59c-15.52,28.27-52.42,37.52-74.82,25.23-22.4-12.29-34.92-49.81-19.4-78.08,15.52-28.27,53.19-36.59,75.59-24.29,22.4,12.29,34.15,48.88,18.63,77.15Z"/>
  <path class="cls-2" d="M151.87,318.46c-4.13,7.52-20.37,6.78-27.9,2.65-7.52-4.13-17.26-17.32-13.13-24.84,4.13-7.52,20.56-6.53,28.09-2.4,7.52,4.13,17.07,17.07,12.94,24.6Z"/>
  <line class="cls-2" x1="25.85" y1="247.98" x2="110.84" y2="296.27"/>
  <line class="cls-2" x1="152.87" y1="317.85" x2="253.84" y2="371.08"/>
  <line class="cls-2" x1="141.5" y1="293.36" x2="163.39" y2="258.44"/>
  <line class="cls-2" x1="102.56" y1="357.45" x2="124.46" y2="322.54"/>
</svg>