<?xml version="1.0" encoding="UTF-8"?>
<svg id="Vrstva_2" data-name="Vrstva 2" xmlns="http://www.w3.org/2000/svg" viewBox="0 0 1200 799">
  <defs>
    <style>
      .cls-1 {
        fill: #f6f6f6;
      }

      .cls-2 {
        fill: none;
      }

      .cls-3 {
        fill: #e2e2e2;
      }

      .cls-4 {
        fill: #a6a6a7;
      }

      .cls-5 {
        fill: #ebebeb;
        stroke: #d3d3d3;
        stroke-width: 24px;
      }

      .cls-5, .cls-6 {
        stroke-miterlimit: 10;
      }

      .cls-6 {
        fill: #f2f2f2;
        stroke: #d8d8d8;
        stroke-width: 11px;
      }

      .cls-7 {
        fill: #fafafa;
      }
    </style>
  </defs>
  <path class="cls-5" d="M887.73,489.99c0,40.35-128.82,54.34-287.73,54.34s-287.73-13.99-287.73-54.34,128.82-73.06,287.73-73.06,287.73,32.71,287.73,73.06Z"/>
  <path class="cls-4" d="M881.74,475.09c3.92,4.81,5.99,9.79,5.99,14.89,0,40.35-128.82,64.78-287.73,64.78s-287.73-24.43-287.73-64.78c0-5.84,2.72-11.52,7.82-16.97-19.85,10.38-31,22.03-31,34.34,0,43.46,138.75,78.69,309.91,78.69s309.91-35.23,309.91-78.69c0-11.5-9.72-22.42-27.17-32.26Z"/>
  <path class="cls-1" d="M600,378.03c-178.47,0-323.15,36.53-323.15,81.59,0,13.68,13.36,26.57,36.93,37.9-1-2.48-1.51-4.99-1.51-7.53,0-40.35,128.82-73.06,287.73-73.06s287.73,32.71,287.73,73.06c0,2.54-.52,5.06-1.51,7.53,23.57-11.32,36.93-24.22,36.93-37.9,0-45.06-144.68-81.59-323.15-81.59Z"/>
  <path class="cls-6" d="M600,285.38c-287.75,0-521.02,58.89-521.02,131.54s233.27,131.54,521.02,131.54,521.02-58.89,521.02-131.54-233.27-131.54-521.02-131.54ZM600,541.21c-178.47,0-323.15-36.53-323.15-81.59s144.68-81.59,323.15-81.59,323.15,36.53,323.15,81.59-144.68,81.59-323.15,81.59Z"/>
  <g id="Vrstva_3" data-name="Vrstva 3">
    <path class="cls-3" d="M329.68,492.2c-.01-.81.04-1.6.14-2.4l-.43,3.17c.25-1.7.75-3.33,1.42-4.92l-1.2,2.84c1.19-2.77,2.83-5.31,4.66-7.7l-1.86,2.41c3.97-5.09,8.79-9.47,13.88-13.41l-2.41,1.86c6.05-4.65,12.6-8.9,19.64-11.89l-2.84,1.2c16.32-6.84,33.3-12.12,50.58-15.91,14.82-3.25,29.85-5.36,44.84-7.65,6.65-1.02,13.31-2,19.98-2.9l-3.17.43c14.96-2.01,29.97-3.54,45.01-4.69,5.45-.42,10.9-.78,16.36-1.11,3.17-.19,6.13-1.2,8.42-3.49,2.07-2.07,3.62-5.45,3.49-8.42s-1.15-6.27-3.49-8.42-5.27-3.68-8.42-3.49c-17.66,1.07-35.31,2.55-52.87,4.71-13.79,1.7-27.52,3.79-41.26,5.89-17.81,2.72-35.52,5.67-52.88,10.6-9.25,2.62-18.37,5.73-27.32,9.24-7.46,2.92-14.56,6.09-21.27,10.49s-13.64,9.73-19.34,15.75c-2.98,3.15-5.77,6.58-8.06,10.26-.8,1.28-1.51,2.6-2.12,3.98-.97,2.19-1.99,4.43-2.5,6.79-.48,2.2-.82,4.52-.79,6.79.05,3.08,1.29,6.23,3.49,8.42,2.07,2.07,5.45,3.62,8.42,3.49s6.27-1.15,8.42-3.49,3.54-5.21,3.49-8.42h0Z"/>
    <path class="cls-2" d="M622.49,390.29c18.72.21,37.43.79,56.13,1.82,16.5.91,32.99,2.18,49.43,3.89,8.39.87,16.77,1.87,25.12,2.99l-4.75-.64c19.04,2.56,38,5.79,56.75,10.01,14.98,3.37,29.83,7.37,44.37,12.31,6.74,2.29,13.42,4.8,19.98,7.57l-4.27-1.8c5.74,2.43,11.4,5.06,16.92,7.97,4.68,2.46,9.25,5.13,13.65,8.06,2.13,1.42,4.22,2.91,6.25,4.48l-3.61-2.79c3.65,2.82,7.13,5.89,10.19,9.35.73.82,1.43,1.66,2.1,2.53l-2.79-3.61c1.49,1.93,2.83,3.98,3.89,6.19,1.12,2.08,2.66,3.75,4.6,5.01,1.72,1.58,3.75,2.64,6.07,3.2,2.37.74,4.75.85,7.12.32,2.38-.11,4.59-.81,6.64-2.12,3.81-2.46,7.17-6.12,8.21-10.67l.64-4.75c-.01-3.22-.82-6.23-2.44-9.01-.71-1.49-1.56-2.92-2.5-4.28-1.91-2.79-4.01-5.48-6.25-8.01-4.1-4.64-8.95-8.42-13.84-12.18s-9.71-6.84-14.87-9.78c-6.42-3.66-13.09-6.9-19.87-9.83-9.58-4.15-19.27-7.94-29.18-11.21-10.06-3.32-20.25-6.21-30.53-8.76-12.08-3-24.27-5.54-36.52-7.74-15.62-2.8-31.34-5.03-47.1-6.93-16.27-1.96-32.6-3.45-48.95-4.57-18.62-1.27-37.28-2.07-55.94-2.47-4.89-.11-9.77-.19-14.66-.24-4.55-.05-9.43,2.03-12.63,5.23-1.74,1.62-2.97,3.53-3.69,5.75-1.12,2.13-1.63,4.42-1.54,6.88.21,4.62,1.72,9.41,5.23,12.63s7.77,5.18,12.63,5.23h0Z"/>
    <path class="cls-7" d="M346.82,371.39c7.41-1.75,14.88-3.28,22.36-4.69,9.58-1.81,19.2-3.41,28.84-4.88,6.26-.95,12.53-1.85,18.81-2.69l-6.33.85c19.23-2.58,38.53-4.69,57.85-6.42,22.53-2.01,45.11-3.49,67.7-4.48,25.41-1.11,50.85-1.59,76.29-1.44,27.39.16,54.78,1.06,82.12,2.74,28.87,1.77,57.69,4.42,86.39,8.03,3.67.46,7.34.94,11,1.43l-6.33-.85c17.99,2.42,35.93,5.22,53.8,8.44s36.18,6.96,54.13,11.11c10.25,2.37,20.47,4.89,30.64,7.57,3.17.99,6.33,1.13,9.5.43,3.17-.14,6.12-1.09,8.85-2.83,2.77-1.5,5-3.54,6.68-6.13,2.1-2.3,3.53-5,4.26-8.1l.85-6.33c-.01-4.3-1.1-8.3-3.25-12.02-3.34-5.19-8.13-9.34-14.23-10.94-24.34-6.4-48.91-11.91-73.63-16.61-26.14-4.97-52.44-8.96-78.83-12.35-23.82-3.06-47.72-5.45-71.67-7.23-22.91-1.7-45.87-2.84-68.83-3.46-21.71-.58-43.43-.69-65.14-.34-20.13.32-40.26,1.04-60.36,2.15-18.19,1.01-36.36,2.33-54.5,4.01-15.88,1.47-31.74,3.2-47.55,5.25-15.28,1.98-30.54,4.12-45.74,6.69-10.18,1.72-20.34,3.61-30.43,5.84-1.97.43-3.94.88-5.91,1.35-3.1.74-5.8,2.16-8.1,4.26-2.59,1.68-4.64,3.91-6.13,6.68-1.74,2.73-2.68,5.68-2.83,8.85-.71,3.17-.57,6.33.43,9.5,1.86,5.76,5.44,11.32,10.94,14.23l5.69,2.4c4.22,1.13,8.44,1.13,12.66,0h0Z"/>
    <path class="cls-3" d="M135.73,362.9c-6.2,3.07-12.18,6.45-17.89,10.36s-11.4,8.09-16.37,12.98c-5.99,5.89-10.99,12.72-13.83,20.67-.86,2.41-1.18,4.89-1.48,7.44-.33,2.72,0,5.24.41,7.95.37,2.53,1.35,4.79,2.39,7.13.6,1.36,1.33,2.64,2.19,3.84,8.79,12.31,21.87,20.73,34.9,27.94,9.38,5.18,18.4,10.97,27.85,16.03,6.22,3.33,12.56,6.44,19.06,9.19,7.37,3.12,14.83,6.01,22.64,7.85,1.6.38,3.21.71,4.83.99,3.23.57,6.25.51,9.17-1.2,2.47-1.45,4.83-4.28,5.47-7.12.69-3.05.54-6.47-1.2-9.17-1.59-2.46-4.11-4.94-7.12-5.47-8.49-1.49-16.69-4.31-24.62-7.63l2.84,1.2c-9.99-4.22-19.59-9.31-28.99-14.71-6.53-3.76-12.9-7.81-19.53-11.38-5.7-3.06-11.23-6.49-16.36-10.44l2.41,1.86c-4.33-3.37-8.68-7.23-12.07-11.57l1.86,2.41c-1.13-1.48-2.1-3.06-2.84-4.78l1.2,2.84c-.56-1.39-.94-2.82-1.15-4.31l.43,3.17c-.17-1.54-.15-3.07.04-4.61l-.43,3.17c.27-1.92.82-3.77,1.56-5.56l-1.2,2.84c1.22-2.87,2.88-5.5,4.77-7.97l-1.86,2.41c3.65-4.71,8.04-8.82,12.74-12.46l-2.41,1.86c7.68-5.9,15.93-10.88,24.6-15.17,2.57-1.27,4.73-4.43,5.47-7.12.78-2.85.43-6.65-1.2-9.17s-4.08-4.78-7.12-5.47c-3.25-.74-6.18-.28-9.17,1.2h0Z"/>
    <path class="cls-7" d="M318.17,412.92c-8.74,3.94-17.48,8.11-25.42,13.54s-15.55,12.39-19.25,21.72c-2.15,5.43-2.63,11.46-1.77,17.21.75,5.01,3.12,9.82,6.18,13.82,5.03,6.57,11.66,11.16,18.7,15.33,9.21,5.47,18.88,10.06,28.81,14.06,12.89,5.2,26.22,9.27,39.66,12.79,19.14,5.01,38.56,8.92,58.03,12.38,2.87.51,5.75,1.01,8.62,1.5,1.62.28,3.12.26,4.59-.6,1.23-.72,2.41-2.14,2.74-3.56.66-2.88-.88-6.76-4.16-7.32-19.95-3.4-39.86-7.21-59.51-12.06-13.86-3.42-27.62-7.35-41-12.35-2.75-1.03-5.48-2.1-8.19-3.23-.28-.12-.57-.24-.85-.36,1.97.81.83.35.37.15-.69-.3-1.38-.6-2.07-.9-1.21-.53-2.41-1.07-3.61-1.63-4.45-2.06-8.82-4.28-13.1-6.67-1.99-1.11-3.96-2.26-5.91-3.44-.95-.58-1.89-1.16-2.83-1.75-.65-.41-1.3-.82-1.94-1.25-.49-.33-.98-.67-1.46-1.02-.21-.15-.43-.31-.64-.47-.16-.12-.32-.24-.47-.36-.35-.27-.21-.16.43.33-.37-.06-.92-.74-1.21-.99-.45-.38-.88-.76-1.31-1.16-.9-.83-1.77-1.69-2.59-2.6-.34-.38-.68-.76-1-1.15l-.24-.29c-.32-.4-.32-.4,0,0l.23.3c-.11-.15-.23-.3-.34-.46-.71-.96-1.36-1.97-1.95-3.01-.25-.44-.48-.88-.71-1.33-.14-.28-.28-.56-.41-.85-.11-.23-.54-.89-.08-.15.51.81-.04-.14-.12-.34-.09-.24-.17-.48-.25-.72-.21-.61-.39-1.23-.53-1.87-.03-.14-.35-1.55-.3-1.56-.01,0,.16,1.46.04.18-.03-.27-.05-.54-.06-.81-.08-1.3-.07-2.61.04-3.91.02-.28.05-.55.08-.83.1-1.16-.07.3-.05.35-.15-.32.3-1.68.38-2.03.26-1.18.6-2.35,1.02-3.49-.02.04.24-.73.28-.74-.02,0-.52,1.14-.17.41.23-.48.46-.97.71-1.44.46-.87.96-1.71,1.5-2.52.28-.41.56-.82.85-1.22.14-.19.62-.8.04-.07-.66.83.06-.06.16-.19.65-.8,1.34-1.57,2.05-2.32,1.48-1.56,3.07-3.01,4.73-4.37.19-.16.38-.31.57-.46.11-.09,1.1-.81.27-.22-.73.52-.04.04.14-.1.25-.19.5-.37.75-.56.92-.67,1.86-1.33,2.8-1.96,1.94-1.3,3.93-2.52,5.95-3.69,4.09-2.37,8.32-4.5,12.59-6.53,2.07-.98,4.16-1.94,6.25-2.88,2.85-1.28,3.75-5.64,2.14-8.15-1.9-2.94-5.1-3.51-8.15-2.14h0Z"/>
    <path class="cls-7" d="M104.17,373.32c-8.63,6.33-16.48,14.58-21.53,24.07-2.54,4.77-4.49,10.1-4.49,15.57,0,3.12.62,6.32,1.26,9.36.54,2.57,1.26,5.1,2.2,7.55,1.92,4.96,4.46,9.33,7.74,13.5,2.68,3.42,5.78,6.48,8.92,9.47,9.29,8.83,20.15,16.37,31.76,21.84,13.03,6.14,26.18,12.19,39.67,17.25,2.92,1.1,6.65-1.22,7.32-4.16.77-3.38-1.03-6.15-4.16-7.32s-6.18-2.37-9.23-3.64c-.4-.17-2.52-1.03-1.05-.44-.61-.25-1.21-.52-1.82-.78-1.39-.6-2.77-1.2-4.15-1.82-5.3-2.35-10.55-4.81-15.83-7.22s-10.83-5.11-15.96-8.27c-2.55-1.58-5.05-3.25-7.49-5.01-.61-.44-1.21-.88-1.81-1.33-.36-.27-.72-.53-1.07-.81.14.12.99.78.15.11-1.27-1.01-2.53-2.03-3.76-3.08-3.53-3.02-6.94-6.26-10.08-9.69-.64-.7-1.26-1.41-1.87-2.13-.32-.38-.63-.77-.94-1.16-.72-.9.88,1.19.2.26-.18-.24-.36-.48-.53-.73-1.2-1.67-2.29-3.42-3.24-5.24-.25-.48-.48-.96-.71-1.44s-.8-2.2-.2-.39c-.4-1.2-.92-2.37-1.3-3.58-.78-2.45-1.34-4.97-1.76-7.51-.06-.38-.21-.87-.19-1.25,0,.15.17,1.41.04.29-.07-.58-.14-1.17-.18-1.75-.03-.49-.03-.99-.01-1.48.02-.62.43-2.58-.02-.54.2-.93.34-1.86.59-2.78.32-1.17.86-2.28,1.18-3.45-.4,1.46-.33.77-.13.32.17-.37.34-.74.51-1.1.28-.58.58-1.16.89-1.73.66-1.22,1.38-2.41,2.14-3.58s1.54-2.24,2.34-3.34-.85,1.07-.02.02c.23-.29.46-.58.7-.87.47-.58.95-1.15,1.43-1.71,1.81-2.1,3.74-4.1,5.77-5.99.9-.84,1.83-1.67,2.77-2.46.49-.41.99-.81,1.48-1.21.73-.59-.44.34-.48.37.32-.23.63-.48.95-.71,1.29-.95,2.3-1.96,2.74-3.56.39-1.43.22-3.32-.6-4.59-1.6-2.48-5.46-4.11-8.15-2.14h0Z"/>
    <path class="cls-7" d="M1072,374.08c5.4,3.89,11.02,7.45,16.42,11.35.64.46,1.27.93,1.9,1.4.31.23.63.47.94.71.17.13.87.67.18.13s.03.03.17.14c1.32,1.04,2.62,2.11,3.88,3.22,2.44,2.14,4.75,4.44,6.8,6.96.85,1.05-.53-.73.07.08.21.29.43.58.63.87.44.63.87,1.27,1.27,1.93.49.8.95,1.62,1.38,2.46.21.4.4.81.59,1.21.09.2.18.41.28.61.36.76-.51-1.34,0,0,.66,1.75,1.22,3.52,1.61,5.34.09.41.17.83.24,1.24.04.21.06.42.1.62.12.67-.07-.54-.07-.54-.11.9.19,1.99.21,2.91.02.83.01,1.67-.02,2.5-.02.49-.06.97-.1,1.46-.02.21-.04.42-.06.62-.08.81-.05-.01.05-.34-.26.77-.28,1.69-.45,2.49-.21.97-.47,1.94-.76,2.89-.27.9-.58,1.79-.91,2.67-.08.2-.58,1.46-.28.72s0-.02-.05.1c-.12.27-.25.54-.37.81-.76,1.62-1.62,3.19-2.56,4.71-.43.68-.87,1.35-1.34,2.01-.22.3-.45.59-.66.89s1.07-1.35.47-.61c-.16.2-.32.4-.48.6-1.11,1.36-2.3,2.66-3.54,3.9-1.37,1.37-2.8,2.68-4.28,3.93-.79.67-1.6,1.33-2.42,1.98-.23.18-.45.37-.68.54.37-.27,1.16-.89.41-.32-.48.36-.96.72-1.44,1.08-8.74,6.43-18.3,11.73-27.98,16.6-6.1,3.08-12.3,5.97-18.54,8.75-3.53,1.57-7.07,3.15-10.65,4.62.04-.02,1-.42.38-.16-.21.09-.42.18-.63.27-.42.18-.85.36-1.27.53-1,.42-2,.83-3.01,1.25-1.91.79-3.82,1.57-5.73,2.34s-3.95,1.59-5.93,2.37c-1.49.59-2.72,1.3-3.56,2.74-.75,1.28-1.06,3.16-.6,4.59.91,2.8,4.22,5.39,7.32,4.16,14.99-5.94,29.9-12.18,44.39-19.27,10.38-5.08,20.66-10.58,30.1-17.27,7.22-5.12,14.1-10.87,19.12-18.24,4.35-6.38,7.02-13.87,7.8-21.54.86-8.4-1.41-17.08-5.79-24.24-7.61-12.42-20.81-20.21-32.52-28.24-1.35-.92-2.68-1.86-4.01-2.81-2.54-1.83-6.74-.52-8.15,2.14-1.63,3.08-.57,6.2,2.14,8.15h0Z"/>
    <path class="cls-7" d="M330.52,535.48c23.4,2.98,46.82,5.73,70.28,8.19,21.69,2.27,43.4,4.28,65.14,5.98,20.24,1.58,40.5,2.89,60.78,3.88,19.06.93,38.13,1.57,57.21,1.89,18.08.3,36.17.31,54.26,0s34.98-.89,52.46-1.78c17.1-.87,34.19-2.03,51.26-3.45s33.81-3.09,50.68-5c17.58-1.99,35.12-4.24,52.64-6.67s34.84-5.04,52.22-7.81c4.35-.69,8.7-1.4,13.05-2.11,3.08-.5,5.07-4.49,4.16-7.32-1.08-3.34-4.02-4.7-7.32-4.16-17.58,2.87-35.17,5.61-52.8,8.15-4.27.62-8.55,1.22-12.83,1.81-2.16.3-4.31.6-6.47.89-.52.07-1.05.14-1.57.21-.23.03-.47.06-.7.09-1.24.17,1.2-.16.36-.05-1.1.15-2.21.3-3.31.44-8.5,1.13-17,2.2-25.51,3.22-16.93,2.03-33.89,3.83-50.87,5.37-16.95,1.54-33.93,2.82-50.92,3.81s-34.61,1.74-51.93,2.17c-17.96.45-35.93.58-53.9.43s-37.54-.65-56.3-1.43c-19.97-.82-39.93-1.97-59.86-3.4-21.29-1.52-42.56-3.36-63.81-5.45-22.94-2.26-45.85-4.82-68.73-7.62-5.89-.72-11.78-1.46-17.67-2.21-1.4-.18-3.26.79-4.21,1.74-1.03,1.03-1.81,2.73-1.74,4.21s.57,3.14,1.74,4.21c1.24,1.14,2.55,1.53,4.21,1.74h0Z"/>
  </g>
</svg>