<?xml version="1.0" encoding="UTF-8"?>
<svg xmlns="http://www.w3.org/2000/svg" viewBox="0 0 1004.76 1080">
  <defs>
    <style>
      .cls-1, .cls-2, .cls-3, .cls-4, .cls-5, .cls-6, .cls-7, .cls-8, .cls-9, .cls-10 {
        fill: none;
        stroke-miterlimit: 10;
      }

      .cls-1, .cls-4, .cls-7, .cls-8, .cls-9, .cls-10 {
        stroke-width: 15px;
      }

      .cls-1, .cls-5 {
        stroke: #8c8c8c;
      }

      .cls-11 {
        fill: #727272;
      }

      .cls-2 {
        stroke: #b7b7b7;
        stroke-width: 6px;
      }

      .cls-12 {
        fill: #8e8e8e;
      }

      .cls-3 {
        stroke: #777;
        stroke-width: 23px;
      }

      .cls-4 {
        stroke: #939393;
      }

      .cls-5 {
        stroke-width: 30px;
      }

      .cls-6 {
        stroke: #7c7c7c;
        stroke-width: 8px;
      }

      .cls-7 {
        stroke: #828282;
      }

      .cls-8 {
        stroke: #a0a0a0;
      }

      .cls-13 {
        fill: #b7b7b7;
      }

      .cls-14 {
        fill: #3d3d3d;
      }

      .cls-9 {
        stroke: #757575;
      }

      .cls-10 {
        stroke: #8e8e8e;
      }
    </style>
  </defs>
  <g id="Vrstva_2" data-name="Vrstva 2">
    <path class="cls-11" d="M337.21,802.2c2.03,14.29,0,0-68.77-510.47-15.62-115.92,483.61-115.9,467.87,0-69.84,514.41-70.48,519.16-69.84,514.41,19.53-143.85-348.63-140.39-329.26-3.94Z"/>
    <ellipse class="cls-14" cx="502.38" cy="777.29" rx="184.52" ry="83.83"/>
    <ellipse class="cls-3" cx="502.38" cy="780.2" rx="184.52" ry="83.83"/>
    <line class="cls-8" x1="686.9" y1="774.29" x2="753" y2="269.72"/>
    <line class="cls-8" x1="251.76" y1="269.72" x2="317.87" y2="774.29"/>
    <line class="cls-2" x1="250.08" y1="269.74" x2="316.18" y2="774.32"/>
    <path class="cls-6" d="M505.68,697.95c101.91,0,152.17,33.75,166.82,52"/>
  </g>
  <g id="Vrstva_3" data-name="Vrstva 3">
    <line class="cls-9" x1="277.02" y1="295.01" x2="268.45" y2="247.1"/>
    <line class="cls-7" x1="339.57" y1="737.81" x2="282.58" y2="240.27"/>
    <line class="cls-1" x1="317.35" y1="311.02" x2="307.98" y2="228.65"/>
    <line class="cls-10" x1="344.48" y1="317.87" x2="334.66" y2="224.21"/>
    <line class="cls-4" x1="382.65" y1="317.61" x2="373.83" y2="208.13"/>
    <line class="cls-8" x1="424.9" y1="327.98" x2="418.72" y2="211.83"/>
    <line class="cls-8" x1="461.45" y1="332.03" x2="458.24" y2="214.27"/>
    <line class="cls-8" x1="502.38" y1="332.03" x2="502.38" y2="215.17"/>
    <line class="cls-9" x1="724.14" y1="304.7" x2="733.38" y2="251.47"/>
    <line class="cls-10" x1="659.99" y1="736.48" x2="722.03" y2="246.44"/>
    <line class="cls-4" x1="687.42" y1="312.22" x2="698.29" y2="228.65"/>
    <line class="cls-4" x1="658.82" y1="318.01" x2="670.33" y2="219.1"/>
    <line class="cls-8" x1="620.69" y1="325.85" x2="630.93" y2="208.13"/>
    <line class="cls-8" x1="579.88" y1="327.98" x2="586.04" y2="211.83"/>
    <line class="cls-8" x1="542.84" y1="332.99" x2="546.53" y2="214.27"/>
    <line class="cls-2" x1="686.05" y1="312.71" x2="696.92" y2="229.15"/>
    <line class="cls-2" x1="657.45" y1="318.5" x2="668.97" y2="219.6"/>
    <line class="cls-2" x1="619.32" y1="326.35" x2="629.56" y2="208.62"/>
    <line class="cls-2" x1="578.51" y1="328.47" x2="584.67" y2="212.32"/>
    <line class="cls-2" x1="541.47" y1="333.49" x2="545.16" y2="214.76"/>
  </g>
  <g id="Vrstva_5" data-name="Vrstva 5">
    <path class="cls-12" d="M317.04,783.71c-5.54-21.49-72.13-581.78-60.92-498.52,7.36,54.66,485.36,67.9,494.19,2.84,8.13-59.89-57.07,457.75-63.42,489.26-20.42,101.32-343.29,109.45-369.86,6.42Z"/>
    <line class="cls-8" x1="531.77" y1="860.78" x2="546.53" y2="330.02"/>
    <line class="cls-9" x1="335.94" y1="792.75" x2="268.45" y2="291.73"/>
    <line class="cls-7" x1="338.06" y1="810.87" x2="277.9" y2="296.98"/>
    <line class="cls-1" x1="356.24" y1="823.17" x2="299.96" y2="305.83"/>
    <line class="cls-10" x1="380.94" y1="836.28" x2="332.26" y2="314.69"/>
    <line class="cls-4" x1="411.65" y1="848.7" x2="373.83" y2="323.59"/>
    <line class="cls-2" x1="336.38" y1="810.89" x2="276.22" y2="297.01"/>
    <line class="cls-2" x1="354.56" y1="823.2" x2="298.28" y2="305.86"/>
    <line class="cls-2" x1="379.26" y1="836.31" x2="330.58" y2="314.71"/>
    <line class="cls-2" x1="409.97" y1="848.72" x2="372.15" y2="323.62"/>
    <line class="cls-8" x1="443.49" y1="848.7" x2="418.72" y2="327.46"/>
    <line class="cls-8" x1="471.2" y1="860.78" x2="458.24" y2="330.02"/>
    <line class="cls-8" x1="502.38" y1="862.03" x2="502.38" y2="330.96"/>
    <line class="cls-9" x1="666.48" y1="806.14" x2="736.32" y2="291.73"/>
    <line class="cls-10" x1="662.87" y1="811.44" x2="726.86" y2="296.98"/>
    <line class="cls-4" x1="642.69" y1="826.21" x2="704.8" y2="305.83"/>
    <line class="cls-4" x1="618" y1="839.31" x2="672.5" y2="314.69"/>
    <line class="cls-8" x1="589.83" y1="851.57" x2="630.93" y2="323.59"/>
    <line class="cls-8" x1="561.28" y1="850.02" x2="586.04" y2="327.46"/>
  </g>
  <g id="Vrstva_4" data-name="Vrstva 4">
    <ellipse class="cls-5" cx="502.38" cy="269.72" rx="250.62" ry="61.25"/>
    <path class="cls-8" d="M686.9,770.93c0,48.46-82.61,87.74-184.52,87.74s-184.52-39.28-184.52-87.74"/>
    <path class="cls-13" d="M247.5,260.93c-4.24,10.14-2.05,19.77,6.34,26.81s18.31,13.24,28.63,17.77c22.22,9.76,45.9,15.36,69.72,19.38,52.51,8.86,105.82,13.87,159.09,12.95,13.07-.23,26.13-.52,39.16-1.65,9.54-.82,9.63-15.83,0-15-33.12,2.86-66.96,2.75-100.06.44-24.65-1.72-49.36-4.67-73.87-7.8s-46.39-7.8-68.88-14.94c-10.94-3.47-21.6-7.51-31.43-13.51-4.6-2.81-9.28-5.88-13.25-9.55-3.71-3.43-2.9-6.31-.97-10.92,1.57-3.76-1.7-8.21-5.24-9.23-4.31-1.23-7.67,1.52-9.23,5.24h0Z"/>
    <path class="cls-13" d="M309.82,770.93c1.48,12.54,5.95,24.86,13.1,35.31,5.8,8.48,14.8,14.37,23.02,20.33,19.99,14.49,44.16,24.11,68.25,29.21,26.78,5.67,53.17,10.57,80.65,10.72,26.89.15,53.44,0,79.86-5.67,18.79-4.03,37.32-9.59,54.83-17.63,5.26-2.41.69-10.17-4.54-7.77-36.38,16.71-76.11,22.21-115.82,22.11-25.82-.07-51.15-1.34-76.47-6.86-24.3-5.31-48.67-11.24-70.32-24.01-5.37-3.17-10.48-6.73-15.45-10.49-4.45-3.36-9.42-6.65-13.28-10.69-8.38-8.75-13.43-22.77-14.83-34.55-.67-5.68-9.68-5.75-9,0h0Z"/>
    <path class="cls-13" d="M477.17,215.34c42.76-1.36,85.69-.25,128.26,4.06,39.24,3.98,79.75,12.65,115.56,29.66,7.34,3.49,16.41,8.45,20.88,15.52,3.79,6,.04,11.95-5.06,15.83-3.25,2.47-4.87,6.44-2.69,10.26,1.82,3.2,7.04,5.14,10.26,2.69,7.4-5.63,13.54-12.7,14.08-22.4.42-7.57-3.12-14.44-8.29-19.73-15.15-15.5-37.85-22.63-57.95-29.2-43.04-14.07-88.11-18.83-133.13-21.04-27.28-1.34-54.62-1.52-81.92-.65-9.63.31-9.67,15.31,0,15h0Z"/>
  </g>
</svg>